<svg width="89" height="38" viewBox="0 0 89 38" fill="none" xmlns="http://www.w3.org/2000/svg">
<path d="M0.121201 37.786C0.105199 32.8615 1.22701 27.9815 3.42257 23.4246C5.61814 18.8677 8.84447 14.7233 12.9174 11.2278C16.9902 7.73236 21.8299 4.95439 27.16 3.05251C32.4902 1.15063 38.2064 0.16208 43.9823 0.143312C49.7582 0.124544 55.4808 1.07592 60.8231 2.94312C66.1655 4.81033 71.0231 7.55679 75.1187 11.0257C79.2142 14.4946 82.4674 18.618 84.6925 23.1605C86.9176 27.703 88.0711 32.5757 88.0871 37.5002L44.1042 37.6431L0.121201 37.786Z" fill="url(#paint0_linear_5818_21855)"/>
<defs>
<linearGradient id="paint0_linear_5818_21855" x1="89.445" y1="34.1359" x2="2.65016" y2="34.8735" gradientUnits="userSpaceOnUse">
<stop offset="0.14429" stop-color="#00FFC2"/>
<stop offset="1" stop-color="#0099FF"/>
</linearGradient>
</defs>
</svg>
