<svg width="88" height="39" viewBox="0 0 88 39" fill="none" xmlns="http://www.w3.org/2000/svg">
<path d="M0.00206024 38.622C-0.0139416 33.6974 1.10787 28.8174 3.30343 24.2605C5.499 19.7037 8.72533 15.5592 12.7982 12.0637C16.8711 8.5683 21.7108 5.79033 27.0409 3.88844C32.371 1.98656 38.0872 0.998018 43.8632 0.97925C49.6391 0.960482 55.3616 1.91186 60.704 3.77906C66.0464 5.64626 70.904 8.39272 74.9995 11.8616C79.095 15.3305 82.3482 19.454 84.5734 23.9965C86.7985 28.539 87.952 33.4116 87.968 38.3361L43.985 38.4791L0.00206024 38.622Z" fill="url(#paint0_linear_5818_21855)"/>
<defs>
<linearGradient id="paint0_linear_5818_21855" x1="89.3259" y1="34.9718" x2="2.53102" y2="35.7094" gradientUnits="userSpaceOnUse">
<stop offset="0.14429" stop-color="#00FFC2"/>
<stop offset="1" stop-color="#0099FF"/>
</linearGradient>
</defs>
</svg>
