<svg width="156" height="83" viewBox="0 0 156 83" fill="none" xmlns="http://www.w3.org/2000/svg">
<g clip-path="url(#clip0_5822_21734)">
<path d="M7.01455 81.4895L6.33548 81.454L4.66337 79.5603C4.49836 79.3789 4.35129 79.2273 4.22214 79.1054C4.093 78.9835 3.96657 78.8905 3.84288 78.8264C3.71918 78.7624 3.58554 78.7266 3.44196 78.7191C3.2781 78.7106 3.13595 78.7404 3.01552 78.8087C2.8934 78.8768 2.79685 78.9743 2.72587 79.101C2.65489 79.2277 2.61509 79.3739 2.60645 79.5394C2.59755 79.71 2.62522 79.8614 2.68947 79.9935C2.75204 80.1254 2.84566 80.2303 2.97034 80.3079C3.09511 80.3839 3.24618 80.4265 3.42355 80.4357L3.37688 81.3302C3.04748 81.313 2.76508 81.2229 2.52967 81.0599C2.29426 80.8968 2.11671 80.6801 1.99701 80.4096C1.87739 80.1374 1.82653 79.8299 1.84442 79.4869C1.86257 79.139 1.94356 78.8366 2.08738 78.5799C2.2312 78.3231 2.42007 78.128 2.65401 77.9946C2.88804 77.8594 3.15032 77.7994 3.44087 77.8146C3.63513 77.8247 3.82408 77.8718 4.00771 77.9559C4.19133 78.04 4.39228 78.1818 4.61055 78.3812C4.8289 78.5789 5.09147 78.8543 5.39827 79.2074L6.26126 80.1493L6.29674 80.1511L6.41465 77.8909L7.20014 77.9319L7.01455 81.4895ZM7.44463 75.1448C7.42286 75.562 7.2986 75.9146 7.07185 76.2026C6.8435 76.4888 6.52496 76.7017 6.11624 76.8413C5.70592 76.9791 5.21781 77.0333 4.65192 77.0037C4.08611 76.9725 3.60886 76.8672 3.22018 76.6877C2.82989 76.5064 2.53777 76.2616 2.34381 75.9534C2.14994 75.6435 2.06385 75.2807 2.08553 74.8652C2.10721 74.4496 2.23058 74.0978 2.45564 73.8098C2.6807 73.5217 2.99671 73.3087 3.40365 73.1707C3.81068 73.031 4.2963 72.9759 4.86051 73.0053C5.42809 73.0349 5.90871 73.1405 6.30238 73.3219C6.69445 73.5016 6.98826 73.7464 7.18381 74.0564C7.37946 74.3647 7.4664 74.7275 7.44463 75.1448ZM6.65153 75.1034C6.66845 74.7791 6.52217 74.5148 6.21269 74.3107C5.9016 74.1047 5.4344 73.9855 4.81107 73.953C4.39889 73.9315 4.05035 73.9565 3.76545 74.028C3.48054 74.0995 3.26304 74.2101 3.11295 74.3598C2.96117 74.5094 2.87968 74.6915 2.86849 74.906C2.85166 75.2287 2.99883 75.4921 3.31 75.6964C3.61949 75.9005 4.08331 76.0196 4.70149 76.0535C5.11526 76.0768 5.4654 76.0536 5.75191 75.9838C6.03851 75.9124 6.2577 75.8019 6.40948 75.6523C6.55957 75.5026 6.64025 75.3196 6.65153 75.1034ZM7.69291 70.3856C7.67114 70.8028 7.54688 71.1554 7.32013 71.4434C7.09178 71.7296 6.77324 71.9425 6.36452 72.0821C5.9542 72.2199 5.46609 72.274 4.90019 72.2445C4.33439 72.2133 3.85714 72.108 3.46846 71.9285C3.07817 71.7472 2.78605 71.5024 2.59209 71.1942C2.39822 70.8843 2.31213 70.5215 2.33381 70.106C2.35549 69.6904 2.47886 69.3386 2.70392 69.0506C2.92898 68.7625 3.24499 68.5495 3.65193 68.4115C4.05896 68.2718 4.54458 68.2167 5.10878 68.2461C5.67637 68.2757 6.15699 68.3812 6.55066 68.5627C6.94273 68.7424 7.23654 68.9872 7.43209 69.2972C7.62774 69.6055 7.71468 69.9683 7.69291 70.3856ZM6.89981 70.3442C6.91673 70.0199 6.77045 69.7556 6.46097 69.5514C6.14988 69.3455 5.68268 69.2263 5.05935 69.1938C4.64717 69.1723 4.29863 69.1973 4.01373 69.2688C3.72882 69.3403 3.51132 69.4509 3.36123 69.6006C3.20945 69.7502 3.12796 69.9323 3.11677 70.1468C3.09994 70.4695 3.24711 70.7329 3.55828 70.9372C3.86776 71.1413 4.33159 71.2604 4.94976 71.2943C5.36354 71.3176 5.71368 71.2944 6.00019 71.2246C6.28679 71.1532 6.50598 71.0427 6.65776 70.8931C6.80785 70.7434 6.88853 70.5604 6.89981 70.3442Z" fill="#AAAAAA"/>
<path d="M10.443 51.8792C10.3232 52.2243 10.1575 52.5106 9.94606 52.738C9.73515 52.9638 9.49733 53.1176 9.23258 53.1994C8.96783 53.2811 8.69557 53.2788 8.41579 53.1924L8.72872 52.2912C8.86412 52.3292 8.99523 52.3255 9.12205 52.28C9.24727 52.234 9.36006 52.1541 9.46045 52.0403C9.56083 51.9265 9.63959 51.7873 9.69674 51.6228C9.75777 51.447 9.78151 51.2806 9.76795 51.1237C9.75279 50.9663 9.7034 50.83 9.61977 50.7151C9.53614 50.6001 9.42214 50.5184 9.27777 50.4701C9.12972 50.4169 8.98537 50.4097 8.84473 50.4486C8.70409 50.4875 8.57601 50.5702 8.46049 50.6966C8.34553 50.8214 8.25198 50.9877 8.17985 51.1954L8.02922 51.6293L7.3437 51.3913L7.49433 50.9574C7.5537 50.7864 7.57602 50.6268 7.56128 50.4784C7.5471 50.3284 7.49923 50.1981 7.41769 50.0874C7.33456 49.9762 7.2216 49.8967 7.07883 49.8489C6.94036 49.799 6.8089 49.7883 6.68444 49.8167C6.55893 49.843 6.44744 49.9036 6.34997 49.9987C6.25305 50.0922 6.17795 50.2156 6.12469 50.369C6.07254 50.5193 6.05143 50.6677 6.06137 50.8144C6.07132 50.9611 6.11303 51.0911 6.18651 51.2043C6.2584 51.317 6.36222 51.3996 6.49798 51.4522L6.20087 52.3079C5.92824 52.206 5.71441 52.0432 5.55939 51.8192C5.40332 51.5931 5.31135 51.332 5.28347 51.0358C5.254 50.7391 5.29447 50.4317 5.40488 50.1137C5.51862 49.7862 5.6789 49.5231 5.88573 49.3245C6.0915 49.1238 6.32049 48.9929 6.57268 48.9319C6.82486 48.8708 7.0756 48.8836 7.32488 48.9701C7.60188 49.0645 7.80528 49.2264 7.93509 49.4559C8.06546 49.6839 8.11336 49.9404 8.07878 50.2257L8.11713 50.239C8.28491 49.9105 8.50457 49.6904 8.77611 49.5788C9.04661 49.465 9.33498 49.4621 9.64124 49.5703C9.91608 49.6657 10.135 49.8294 10.2979 50.0615C10.4598 50.2914 10.5549 50.5643 10.583 50.8803C10.6118 51.1947 10.5651 51.5276 10.443 51.8792ZM12.0143 47.4391C11.8772 47.8337 11.6597 48.1378 11.3618 48.3513C11.0628 48.5626 10.6976 48.6785 10.2661 48.6988C9.83367 48.7169 9.34978 48.6331 8.81447 48.4472C8.27971 48.2597 7.85065 48.0257 7.52728 47.7451C7.20288 47.4624 6.99043 47.146 6.88993 46.7959C6.78999 46.4443 6.80827 46.0719 6.94476 45.6788C7.08125 45.2857 7.29767 44.9822 7.59402 44.7681C7.89037 44.5541 8.25318 44.4374 8.68245 44.4182C9.11228 44.3973 9.59405 44.4795 10.1278 44.6649C10.6647 44.8513 11.0969 45.0864 11.4245 45.3703C11.7511 45.652 11.9651 45.9689 12.0667 46.3211C12.1688 46.6717 12.1513 47.0444 12.0143 47.4391ZM11.264 47.1786C11.3705 46.8717 11.3036 46.5772 11.0632 46.295C10.8217 46.0106 10.4061 45.766 9.8165 45.5613C9.4266 45.4259 9.08487 45.3529 8.79132 45.3423C8.49776 45.3317 8.25807 45.3774 8.07224 45.4794C7.88482 45.5809 7.75587 45.7331 7.68541 45.936C7.57943 46.2412 7.64746 46.5352 7.88948 46.818C8.12991 47.1002 8.54227 47.3437 9.12656 47.5484C9.51751 47.6859 9.86028 47.761 10.1549 47.7738C10.45 47.785 10.6913 47.7398 10.8787 47.6384C11.0646 47.5364 11.193 47.3831 11.264 47.1786ZM13.5774 42.937C13.4404 43.3317 13.2229 43.6358 12.9249 43.8493C12.6259 44.0606 12.2607 44.1764 11.8293 44.1968C11.3969 44.2149 10.913 44.1311 10.3776 43.9452C9.84289 43.7577 9.41383 43.5237 9.09046 43.2431C8.76606 42.9603 8.55361 42.6439 8.45311 42.2939C8.35317 41.9423 8.37145 41.5699 8.50794 41.1768C8.64443 40.7837 8.86085 40.4801 9.1572 40.2661C9.45355 40.0521 9.81636 39.9354 10.2456 39.9162C10.6755 39.8953 11.1572 39.9775 11.6909 40.1628C12.2279 40.3493 12.6601 40.5844 12.9877 40.8683C13.3143 41.15 13.5283 41.4669 13.6299 41.8191C13.732 42.1697 13.7145 42.5423 13.5774 42.937ZM12.8272 42.6765C12.9337 42.3697 12.8668 42.0752 12.6263 41.793C12.3849 41.5086 11.9693 41.264 11.3797 41.0593C10.9898 40.9239 10.6481 40.8509 10.3545 40.8403C10.0609 40.8297 9.82125 40.8754 9.63542 40.9774C9.448 41.0788 9.31905 41.231 9.24859 41.434C9.14261 41.7392 9.21064 42.0332 9.45266 42.316C9.69309 42.5982 10.1054 42.8417 10.6897 43.0463C11.0807 43.1839 11.4235 43.259 11.7181 43.2718C12.0132 43.2829 12.2545 43.2378 12.4419 43.1363C12.6278 43.0343 12.7562 42.8811 12.8272 42.6765Z" fill="#AAAAAA"/>
<path d="M24.2344 25.6071L23.7481 25.0381L23.1608 20.9573L23.6353 20.5517L24.3277 21.3618L24.0384 21.6091L24.4382 24.3615L24.4646 24.3924L26.8042 22.3927L27.307 22.981L24.2344 25.6071ZM26.7453 24.7294L25.9705 23.8229L25.7606 23.5617L23.3769 20.7726L24.0519 20.1957L27.4281 24.1459L26.7453 24.7294ZM30.0741 22.0145C29.7565 22.286 29.4152 22.4386 29.0502 22.4724C28.6854 22.5038 28.3117 22.4193 27.9291 22.219C27.5467 22.0163 27.1714 21.6995 26.8032 21.2688C26.4363 20.8369 26.1842 20.4182 26.0468 20.0127C25.9096 19.6049 25.886 19.2245 25.976 18.8716C26.0673 18.5176 26.2712 18.2055 26.5875 17.9351C26.9038 17.6648 27.2439 17.512 27.6078 17.477C27.9717 17.4419 28.3437 17.5244 28.724 17.7246C29.1055 17.9236 29.4798 18.2379 29.8469 18.6674C30.2161 19.0994 30.4705 19.5207 30.6099 19.9311C30.7495 20.3392 30.7741 20.7209 30.6839 21.0761C30.595 21.4303 30.3917 21.7431 30.0741 22.0145ZM29.5581 21.4108C29.805 21.1998 29.896 20.9118 29.831 20.5468C29.7662 20.1794 29.531 19.7584 29.1255 19.2839C28.8573 18.9702 28.5992 18.7346 28.3512 18.5772C28.1032 18.4198 27.8732 18.3382 27.6613 18.3324C27.4483 18.3253 27.2602 18.3915 27.0969 18.5311C26.8513 18.741 26.7615 19.0291 26.8276 19.3954C26.8926 19.7605 27.1256 20.1788 27.5265 20.6506C27.7945 20.9667 28.0524 21.2047 28.3002 21.3645C28.5493 21.5231 28.7804 21.606 28.9934 21.6131C29.2053 21.6189 29.3935 21.5515 29.5581 21.4108ZM33.6969 18.9182C33.3793 19.1897 33.038 19.3423 32.673 19.3761C32.3082 19.4075 31.9345 19.323 31.5519 19.1227C31.1694 18.9199 30.7941 18.6032 30.426 18.1724C30.0591 17.7406 29.807 17.3219 29.6696 16.9164C29.5323 16.5085 29.5088 16.1282 29.5988 15.7753C29.6901 15.4213 29.8939 15.1091 30.2103 14.8388C30.5266 14.5684 30.8667 14.4157 31.2306 14.3806C31.5944 14.3456 31.9665 14.4281 32.3467 14.6283C32.7283 14.8273 33.1026 15.1416 33.4696 15.5711C33.8389 16.0031 34.0932 16.4244 34.2326 16.8348C34.3722 17.2429 34.3969 17.6245 34.3067 17.9798C34.2178 18.3339 34.0145 18.6468 33.6969 18.9182ZM33.1809 18.3145C33.4278 18.1035 33.5187 17.8155 33.4538 17.4504C33.389 17.083 33.1538 16.6621 32.7483 16.1876C32.4801 15.8739 32.222 15.6383 31.974 15.4809C31.726 15.3235 31.496 15.2419 31.2841 15.2361C31.0711 15.229 30.883 15.2952 30.7197 15.4348C30.4741 15.6447 30.3843 15.9328 30.4504 16.2991C30.5154 16.6641 30.7483 17.0825 31.1493 17.5542C31.4172 17.8704 31.6751 18.1083 31.923 18.2681C32.1721 18.4268 32.4032 18.5097 32.6162 18.5168C32.8281 18.5226 33.0163 18.4552 33.1809 18.3145Z" fill="#AAAAAA"/>
<path d="M55.8657 9.32768C55.5392 9.41661 55.2304 9.43499 54.9392 9.38284C54.6476 9.32906 54.3965 9.21513 54.186 9.04105C53.9772 8.86653 53.8301 8.64188 53.7447 8.3671L54.626 8.12699C54.6983 8.32818 54.8331 8.47205 55.0302 8.5586C55.2269 8.64351 55.4387 8.65506 55.6656 8.59326C55.8435 8.54479 55.9906 8.46086 56.1071 8.34146C56.2236 8.22206 56.3021 8.07885 56.3425 7.91181C56.3829 7.74477 56.3769 7.56844 56.3246 7.38283C56.2746 7.19307 56.1889 7.03586 56.0672 6.91121C55.9456 6.78656 55.8025 6.70196 55.6378 6.65741C55.4727 6.61123 55.2979 6.61326 55.1135 6.6635C54.9629 6.70278 54.8228 6.77076 54.6931 6.86746C54.5634 6.96415 54.4688 7.07057 54.4093 7.18672L53.5525 7.27551L53.1101 4.61898L56.0184 3.82663L56.2252 4.58553L54.0684 5.17312L54.2862 6.54178L54.3155 6.53377C54.3788 6.39908 54.4855 6.27271 54.6356 6.15466C54.7854 6.03497 54.9614 5.94756 55.1638 5.89243C55.4673 5.80972 55.7578 5.80772 56.0352 5.88643C56.3122 5.9635 56.5532 6.10821 56.7584 6.32056C56.9635 6.53292 57.1098 6.79985 57.1974 7.12136C57.2877 7.45267 57.2915 7.76897 57.2088 8.07026C57.1272 8.36947 56.9712 8.63024 56.7408 8.85257C56.5115 9.07282 56.2198 9.23119 55.8657 9.32768ZM60.3456 8.13607C59.9425 8.24589 59.5687 8.23815 59.2243 8.11285C58.881 7.98547 58.5792 7.7495 58.3187 7.40495C58.0595 7.05832 57.8554 6.61163 57.7064 6.0649C57.5591 5.51771 57.5099 5.03146 57.5588 4.60613C57.6089 4.17873 57.7501 3.82471 57.9822 3.54408C58.2159 3.26301 58.5335 3.06778 58.935 2.95839C59.3365 2.84901 59.7092 2.85616 60.0532 2.97983C60.3972 3.1035 60.6984 3.33702 60.9568 3.68039C61.2167 4.02331 61.421 4.46733 61.5695 5.01243C61.7189 5.5608 61.769 6.05032 61.7198 6.48098C61.6717 6.90958 61.5311 7.26523 61.2978 7.54793C61.0661 7.8302 60.7487 8.02624 60.3456 8.13607ZM60.1369 7.36982C60.4502 7.28445 60.6554 7.06286 60.7526 6.70505C60.8509 6.34516 60.818 5.8641 60.6539 5.26187C60.5454 4.86365 60.4127 4.54042 60.2556 4.29218C60.0986 4.04394 59.9255 3.87194 59.7363 3.7762C59.5468 3.67883 59.3484 3.65838 59.1411 3.71485C58.8294 3.79978 58.6252 4.02196 58.5285 4.3814C58.4314 4.73922 58.4634 5.21701 58.6245 5.81478C58.7318 6.21508 58.8634 6.54039 59.0192 6.79071C59.1767 7.04058 59.3502 7.21421 59.5398 7.31158C59.7289 7.40732 59.928 7.42673 60.1369 7.36982ZM64.9437 6.88335C64.5406 6.99317 64.1668 6.98543 63.8224 6.86013C63.4791 6.73275 63.1772 6.49678 62.9168 6.15222C62.6576 5.80559 62.4535 5.35891 62.3045 4.81217C62.1572 4.26499 62.108 3.77874 62.1569 3.35341C62.207 2.92601 62.3481 2.57199 62.5802 2.29136C62.814 2.01028 63.1316 1.81506 63.5331 1.70567C63.9346 1.59629 64.3073 1.60344 64.6513 1.72711C64.9953 1.85078 65.2965 2.0843 65.5549 2.42767C65.8148 2.77059 66.0191 3.2146 66.1676 3.75971C66.317 4.30808 66.3671 4.79759 66.3179 5.22826C66.2698 5.65685 66.1292 6.0125 65.8959 6.29521C65.6642 6.57747 65.3468 6.77352 64.9437 6.88335ZM64.7349 6.1171C65.0483 6.03173 65.2535 5.81014 65.3507 5.45232C65.449 5.09243 65.4161 4.61138 65.252 4.00915C65.1435 3.61093 65.0107 3.2877 64.8537 3.03946C64.6967 2.79121 64.5236 2.61922 64.3344 2.52348C64.1449 2.42611 63.9464 2.40566 63.7392 2.46213C63.4274 2.54705 63.2233 2.76924 63.1266 3.12868C63.0295 3.4865 63.0614 3.96429 63.2226 4.56206C63.3299 4.96236 63.4614 5.28767 63.6173 5.53799C63.7748 5.78786 63.9483 5.96149 64.1379 6.05886C64.327 6.1546 64.526 6.17401 64.7349 6.1171Z" fill="#AAAAAA"/>
<path d="M93.792 7.04555C93.5526 6.97856 93.3297 6.87313 93.1234 6.72928C92.9176 6.5838 92.7487 6.39313 92.6166 6.15727C92.4849 5.91979 92.4075 5.63133 92.3842 5.29189C92.3615 4.95083 92.4136 4.5504 92.5406 4.0906C92.6575 3.66137 92.8075 3.29111 92.9905 2.97981C93.1735 2.6685 93.3822 2.42032 93.6167 2.23526C93.8517 2.04856 94.1066 1.92692 94.3815 1.87032C94.658 1.81417 94.9464 1.827 95.2467 1.90881C95.5617 1.99463 95.8239 2.13268 96.0333 2.32297C96.2443 2.5137 96.3955 2.73723 96.487 2.99357C96.5789 3.24828 96.6061 3.51516 96.5686 3.79423L95.6751 3.55079C95.6819 3.34576 95.6298 3.16678 95.519 3.01385C95.4102 2.85974 95.2481 2.75334 95.0326 2.69464C94.685 2.59994 94.3762 2.67798 94.1063 2.92877C93.838 3.18001 93.6312 3.56899 93.4859 4.09569L93.5202 4.10503C93.6393 3.9832 93.7765 3.88821 93.9318 3.82008C94.0871 3.75194 94.2523 3.71191 94.4274 3.7C94.6045 3.6869 94.7828 3.7048 94.9624 3.75371C95.2561 3.83375 95.5006 3.97573 95.6957 4.17967C95.8925 4.38406 96.0259 4.62815 96.0958 4.91193C96.1662 5.19409 96.1575 5.49326 96.0696 5.80943C95.9814 6.13955 95.8256 6.41531 95.6023 6.63672C95.3793 6.85649 95.112 7.00455 94.8001 7.08089C94.4883 7.15723 94.1523 7.14545 93.792 7.04555ZM93.9872 6.30979C94.1651 6.35826 94.336 6.35836 94.4999 6.3101C94.6639 6.26184 94.8066 6.17539 94.9283 6.05074C95.0499 5.92608 95.1348 5.77214 95.1829 5.58891C95.2335 5.40983 95.2386 5.23677 95.1982 5.06973C95.1594 4.90313 95.0822 4.7585 94.9666 4.63584C94.851 4.51318 94.7043 4.42762 94.5264 4.37915C94.3942 4.34314 94.2641 4.33486 94.136 4.35433C94.008 4.3738 93.8893 4.41685 93.78 4.4835C93.6711 4.54851 93.5762 4.63309 93.4952 4.73726C93.4163 4.84024 93.3581 4.95761 93.3204 5.08936C93.2745 5.26443 93.2715 5.43631 93.3114 5.60498C93.3514 5.77365 93.4295 5.92117 93.5459 6.04754C93.6622 6.17391 93.8093 6.26133 93.9872 6.30979ZM98.272 8.29502C97.8689 8.18519 97.5507 7.98893 97.3174 7.70622C97.0862 7.42232 96.9457 7.06586 96.8961 6.63682C96.8485 6.2066 96.8992 5.71812 97.0481 5.17138C97.1987 4.62509 97.403 4.18108 97.6609 3.83934C97.9208 3.49642 98.222 3.2629 98.5644 3.13878C98.9084 3.01511 99.2811 3.00797 99.6826 3.11735C100.084 3.22673 100.402 3.42196 100.635 3.70303C100.869 3.98411 101.01 4.33813 101.059 4.76509C101.109 5.19249 101.06 5.67874 100.911 6.22385C100.762 6.77222 100.557 7.21949 100.296 7.56568C100.037 7.91068 99.7354 8.14583 99.3909 8.27114C99.0481 8.39688 98.6751 8.40485 98.272 8.29502ZM98.4808 7.52877C98.7941 7.61414 99.0834 7.52728 99.3486 7.26818C99.6159 7.00789 99.8315 6.57663 99.9956 5.9744C100.104 5.57619 100.154 5.23028 100.144 4.93668C100.135 4.64308 100.073 4.40706 99.9584 4.22862C99.8444 4.04854 99.6838 3.93027 99.4765 3.8738C99.1648 3.78888 98.8761 3.87678 98.6105 4.13751C98.3453 4.39662 98.1305 4.82461 97.9662 5.42149C97.8556 5.8209 97.804 6.168 97.8113 6.46278C97.8203 6.75801 97.8818 6.99566 97.9958 7.17574C98.1102 7.35418 98.2719 7.47186 98.4808 7.52877ZM102.87 9.54774C102.467 9.43791 102.149 9.24165 101.915 8.95894C101.684 8.67505 101.544 8.31858 101.494 7.88954C101.447 7.45932 101.497 6.97084 101.646 6.4241C101.797 5.87781 102.001 5.4338 102.259 5.09206C102.519 4.74914 102.82 4.51562 103.162 4.39151C103.506 4.26783 103.879 4.26069 104.281 4.37007C104.682 4.47945 105 4.67468 105.234 4.95576C105.467 5.23683 105.608 5.59085 105.657 6.01781C105.707 6.44521 105.658 6.93147 105.509 7.47657C105.36 8.02494 105.155 8.47222 104.894 8.8184C104.635 9.1634 104.333 9.39855 103.989 9.52386C103.646 9.64961 103.273 9.65757 102.87 9.54774ZM103.079 8.78149C103.392 8.86687 103.681 8.78 103.947 8.5209C104.214 8.26061 104.43 7.82935 104.594 7.22713C104.702 6.82891 104.752 6.483 104.742 6.1894C104.733 5.8958 104.671 5.65978 104.557 5.48134C104.443 5.30127 104.282 5.18299 104.075 5.12652C103.763 5.0416 103.474 5.1295 103.209 5.39023C102.943 5.64934 102.729 6.07733 102.564 6.67421C102.454 7.07362 102.402 7.42072 102.409 7.7155C102.418 8.01073 102.48 8.24838 102.594 8.42846C102.708 8.6069 102.87 8.72458 103.079 8.78149Z" fill="#AAAAAA"/>
<path d="M121.821 19.2684L126.343 17.379L126.366 17.352L124.416 15.6853L124.927 15.0874L127.618 17.3871L127.095 17.9985L122.563 19.903L121.821 19.2684ZM126.175 23.1199C125.857 22.8485 125.653 22.5351 125.563 22.1799C125.475 21.8244 125.501 21.4421 125.639 21.033C125.78 20.6236 126.034 20.2036 126.402 19.7728C126.772 19.3431 127.146 19.0288 127.525 18.83C127.907 18.6309 128.279 18.5484 128.641 18.5824C129.005 18.6174 129.345 18.7702 129.661 19.0405C129.978 19.3109 130.182 19.623 130.273 19.977C130.364 20.331 130.341 20.7113 130.202 21.1181C130.065 21.526 129.813 21.9447 129.446 22.3741C129.077 22.8062 128.7 23.123 128.316 23.3247C127.935 23.5261 127.562 23.6099 127.197 23.5761C126.833 23.5435 126.492 23.3914 126.175 23.1199ZM126.691 22.5162C126.938 22.7272 127.236 22.7722 127.587 22.6512C127.94 22.5299 128.319 22.2321 128.724 21.7576C128.993 21.4439 129.185 21.1522 129.302 20.8827C129.419 20.6132 129.464 20.3734 129.436 20.1631C129.41 19.9516 129.315 19.7761 129.152 19.6365C128.906 19.4266 128.608 19.3828 128.256 19.5051C127.906 19.6262 127.529 19.9215 127.125 20.391C126.855 20.7049 126.66 20.9967 126.541 21.2664C126.423 21.5372 126.377 21.7784 126.403 21.9899C126.43 22.2001 126.526 22.3755 126.691 22.5162ZM129.798 26.2163C129.48 25.9448 129.276 25.6314 129.186 25.2762C129.098 24.9207 129.123 24.5384 129.262 24.1293C129.402 23.7199 129.657 23.2999 130.025 22.8691C130.394 22.4394 130.769 22.1252 131.148 21.9263C131.529 21.7272 131.901 21.6447 132.264 21.6787C132.628 21.7138 132.968 21.8665 133.284 22.1368C133.601 22.4072 133.804 22.7194 133.896 23.0733C133.987 23.4273 133.963 23.8077 133.825 24.2144C133.688 24.6223 133.436 25.041 133.069 25.4705C132.699 25.9025 132.323 26.2194 131.939 26.421C131.558 26.6224 131.185 26.7063 130.82 26.6725C130.456 26.6398 130.115 26.4877 129.798 26.2163ZM130.314 25.6125C130.561 25.8236 130.859 25.8685 131.21 25.7475C131.562 25.6263 131.942 25.3284 132.347 24.8539C132.615 24.5402 132.808 24.2486 132.925 23.979C133.042 23.7095 133.086 23.4697 133.059 23.2595C133.033 23.048 132.938 22.8724 132.775 22.7328C132.529 22.5229 132.231 22.4791 131.879 22.6015C131.529 22.7225 131.152 23.0178 130.748 23.4873C130.478 23.8012 130.283 24.0931 130.164 24.3628C130.046 24.6335 130 24.8747 130.026 25.0862C130.053 25.2964 130.149 25.4719 130.314 25.6125Z" fill="#AAAAAA"/>
<path d="M143.667 42.434C143.522 42.0857 143.452 41.7521 143.457 41.4332C143.462 41.1158 143.534 40.8384 143.674 40.6009C143.815 40.3643 144.016 40.1928 144.276 40.0865C144.477 40.0011 144.68 39.9678 144.886 39.9867C145.091 40.0055 145.282 40.0673 145.458 40.172C145.635 40.2776 145.779 40.4176 145.888 40.5921L145.921 40.5784C145.873 40.3089 145.915 40.0567 146.048 39.8218C146.184 39.5878 146.381 39.4176 146.641 39.3113C146.887 39.2071 147.136 39.1842 147.388 39.2426C147.639 39.301 147.871 39.4282 148.082 39.6242C148.295 39.8194 148.467 40.0725 148.596 40.3833C148.724 40.6909 148.782 40.9884 148.769 41.2757C148.759 41.5639 148.686 41.8178 148.55 42.0374C148.415 42.2585 148.224 42.4204 147.977 42.5231C147.718 42.6309 147.457 42.6488 147.195 42.5767C146.934 42.5055 146.726 42.3603 146.571 42.141L146.538 42.1546C146.585 42.355 146.582 42.5539 146.531 42.7513C146.481 42.9495 146.391 43.1283 146.259 43.2875C146.128 43.4482 145.962 43.5705 145.76 43.6543C145.501 43.7622 145.237 43.7822 144.969 43.7142C144.702 43.6456 144.455 43.5014 144.226 43.2815C143.998 43.0632 143.811 42.7807 143.667 42.434ZM144.337 42.1552C144.412 42.3348 144.507 42.4783 144.623 42.5857C144.741 42.6925 144.871 42.7592 145.014 42.7858C145.157 42.8124 145.303 42.796 145.45 42.7364C145.602 42.6712 145.721 42.5752 145.806 42.4483C145.892 42.3224 145.941 42.1784 145.953 42.0161C145.965 41.8554 145.935 41.69 145.864 41.5197C145.793 41.3479 145.696 41.2089 145.573 41.1025C145.45 40.9961 145.312 40.9286 145.161 40.8999C145.012 40.8721 144.862 40.8908 144.709 40.956C144.562 41.0156 144.447 41.1054 144.365 41.2256C144.285 41.3451 144.241 41.4843 144.234 41.643C144.227 41.8033 144.262 41.974 144.337 42.1552ZM146.523 41.2458C146.584 41.3927 146.667 41.5099 146.773 41.5977C146.88 41.687 147 41.7424 147.134 41.7638C147.267 41.7852 147.404 41.7678 147.544 41.7115C147.68 41.6527 147.787 41.5699 147.863 41.463C147.941 41.3554 147.985 41.2329 147.994 41.0955C148.004 40.9575 147.978 40.8143 147.917 40.6659C147.854 40.5144 147.769 40.3929 147.663 40.3014C147.56 40.2108 147.442 40.1552 147.311 40.1347C147.182 40.1151 147.049 40.1347 146.912 40.1935C146.772 40.2497 146.663 40.332 146.583 40.4402C146.506 40.5493 146.46 40.6736 146.447 40.8129C146.436 40.9532 146.461 41.0975 146.523 41.2458ZM145.441 46.7709C145.281 46.3852 145.241 46.0135 145.321 45.6558C145.403 45.2991 145.599 44.9695 145.907 44.6672C146.218 44.3657 146.635 44.1062 147.158 43.8885C147.682 43.6724 148.158 43.5614 148.586 43.5555C149.016 43.5505 149.385 43.6452 149.693 43.8394C150.002 44.0353 150.236 44.3253 150.396 44.7095C150.556 45.0937 150.596 45.4643 150.518 45.8213C150.439 46.1783 150.246 46.5069 149.938 46.807C149.632 47.1088 149.217 47.3681 148.696 47.5852C148.171 47.8035 147.692 47.9158 147.258 47.9221C146.827 47.9293 146.457 47.8352 146.146 47.64C145.837 47.4464 145.602 47.1567 145.441 46.7709ZM146.174 46.4659C146.299 46.7657 146.545 46.9409 146.913 46.9915C147.282 47.0429 147.755 46.9488 148.331 46.709C148.712 46.5505 149.016 46.3774 149.242 46.1899C149.468 46.0024 149.617 45.8087 149.687 45.6089C149.76 45.4084 149.755 45.209 149.672 45.0107C149.548 44.7124 149.301 44.5383 148.933 44.4884C148.565 44.4379 148.095 44.5307 147.523 44.767C147.14 44.9246 146.834 45.0967 146.606 45.2833C146.378 45.4715 146.228 45.6658 146.156 45.8663C146.085 46.0661 146.091 46.266 146.174 46.4659ZM147.272 51.171C147.111 50.7852 147.071 50.4135 147.151 50.0559C147.234 49.6991 147.429 49.3696 147.738 49.0672C148.048 48.7658 148.465 48.5062 148.988 48.2885C149.512 48.0724 149.988 47.9614 150.416 47.9555C150.847 47.9505 151.216 48.0452 151.524 48.2395C151.832 48.4354 152.067 48.7254 152.227 49.1096C152.386 49.4938 152.427 49.8644 152.348 50.2214C152.27 50.5784 152.077 50.9069 151.769 51.2071C151.462 51.5088 151.048 51.7682 150.526 51.9852C150.002 52.2035 149.523 52.3158 149.089 52.3221C148.658 52.3293 148.287 52.2353 147.977 52.0401C147.667 51.8464 147.432 51.5567 147.272 51.171ZM148.005 50.8659C148.13 51.1658 148.376 51.341 148.743 51.3915C149.113 51.443 149.586 51.3488 150.162 51.1091C150.543 50.9505 150.847 50.7775 151.073 50.59C151.299 50.4025 151.447 50.2088 151.518 50.009C151.59 49.8085 151.585 49.6091 151.503 49.4107C151.379 49.1124 151.132 48.9384 150.763 48.8885C150.396 48.8379 149.926 48.9308 149.354 49.167C148.971 49.3247 148.665 49.4968 148.436 49.6834C148.209 49.8715 148.059 50.0658 147.986 50.2663C147.916 50.4661 147.922 50.666 148.005 50.8659Z" fill="#AAAAAA"/>
<path d="M154.437 69.1109C154.448 69.3593 154.417 69.6032 154.343 69.8425C154.271 70.0834 154.143 70.3035 153.961 70.5027C153.78 70.7019 153.532 70.8656 153.217 70.9938C152.901 71.1221 152.507 71.1986 152.034 71.2233C151.588 71.2483 151.187 71.2218 150.831 71.1438C150.476 71.0675 150.174 70.947 149.923 70.7822C149.672 70.6175 149.477 70.4134 149.337 70.17C149.197 69.9266 149.119 69.6487 149.103 69.3362C149.086 69.0085 149.135 68.7146 149.25 68.4545C149.365 68.1961 149.53 67.9833 149.745 67.8163C149.96 67.6492 150.21 67.5405 150.495 67.49L150.544 68.4148C150.34 68.4729 150.181 68.5777 150.067 68.7294C149.955 68.8826 149.905 69.0707 149.916 69.2937C149.935 69.6535 150.106 69.9224 150.428 70.1003C150.751 70.2782 151.19 70.3527 151.746 70.3237L151.744 70.2882C151.591 70.2132 151.457 70.1126 151.342 69.9865C151.229 69.8603 151.139 69.7151 151.073 69.5509C151.007 69.3883 150.969 69.2141 150.959 69.0283C150.943 68.7243 151.002 68.4468 151.134 68.196C151.267 67.9468 151.456 67.7447 151.702 67.5895C151.948 67.4361 152.234 67.35 152.56 67.3313C152.898 67.3137 153.205 67.3755 153.482 67.5169C153.761 67.6599 153.985 67.8675 154.155 68.1398C154.327 68.412 154.421 68.7357 154.437 69.1109ZM153.677 69.1531C153.667 68.9707 153.614 68.8084 153.517 68.6661C153.421 68.5254 153.295 68.4168 153.139 68.3403C152.984 68.2653 152.814 68.2327 152.628 68.2424C152.444 68.2537 152.279 68.3039 152.133 68.3928C151.987 68.4834 151.874 68.602 151.793 68.7485C151.713 68.8966 151.678 69.0628 151.687 69.2469C151.694 69.3837 151.727 69.5099 151.786 69.6254C151.844 69.7409 151.922 69.8402 152.02 69.9232C152.119 70.0078 152.23 70.0714 152.352 70.1141C152.475 70.1585 152.603 70.1764 152.736 70.1678C152.914 70.1585 153.075 70.1077 153.221 70.0154C153.367 69.9248 153.482 69.8044 153.566 69.6544C153.649 69.506 153.686 69.339 153.677 69.1531ZM149.325 74.1342C149.304 73.717 149.391 73.3533 149.586 73.0433C149.783 72.7349 150.078 72.49 150.47 72.3086C150.864 72.1288 151.344 72.0241 151.909 71.9946C152.475 71.9667 152.961 72.0218 153.366 72.1598C153.773 72.2995 154.089 72.5125 154.314 72.7989C154.539 73.0869 154.663 73.4387 154.685 73.8543C154.706 74.2698 154.62 74.6326 154.426 74.9425C154.233 75.2524 153.94 75.4972 153.55 75.6768C153.16 75.8581 152.683 75.9635 152.118 75.993C151.551 76.0226 151.062 75.9677 150.651 75.8282C150.243 75.6903 149.925 75.4774 149.698 75.1895C149.472 74.9032 149.347 74.5514 149.325 74.1342ZM150.119 74.0928C150.136 74.4171 150.309 74.6647 150.638 74.8355C150.968 75.0079 151.445 75.0779 152.069 75.0453C152.481 75.0238 152.825 74.9626 153.101 74.8618C153.377 74.761 153.582 74.6284 153.715 74.4639C153.851 74.2993 153.913 74.1097 153.902 73.8952C153.885 73.5725 153.711 73.3258 153.38 73.1551C153.051 72.9843 152.577 72.9142 151.959 72.9448C151.545 72.9647 151.199 73.0242 150.922 73.1234C150.644 73.2243 150.438 73.3571 150.302 73.5217C150.168 73.6862 150.107 73.8765 150.119 74.0928ZM149.574 78.8934C149.552 78.4761 149.639 78.1125 149.835 77.8025C150.032 77.4941 150.327 77.2492 150.719 77.0678C151.112 76.888 151.592 76.7833 152.158 76.7538C152.724 76.7259 153.21 76.781 153.615 76.919C154.022 77.0587 154.338 77.2717 154.563 77.5581C154.788 77.8461 154.911 78.1979 154.933 78.6135C154.955 79.029 154.869 79.3918 154.675 79.7017C154.481 80.0116 154.189 80.2564 153.799 80.436C153.408 80.6173 152.931 80.7227 152.367 80.7522C151.799 80.7818 151.31 80.7269 150.9 80.5874C150.491 80.4495 150.174 80.2366 149.947 79.9487C149.72 79.6624 149.596 79.3106 149.574 78.8934ZM150.367 78.852C150.384 79.1763 150.557 79.4239 150.886 79.5947C151.217 79.7671 151.694 79.8371 152.317 79.8045C152.73 79.783 153.074 79.7218 153.35 79.621C153.625 79.5202 153.83 79.3876 153.964 79.2231C154.099 79.0585 154.161 78.8689 154.15 78.6544C154.133 78.3317 153.96 78.085 153.629 77.9143C153.3 77.7435 152.826 77.6733 152.208 77.704C151.794 77.7239 151.448 77.7834 151.17 77.8826C150.893 77.9835 150.686 78.1163 150.551 78.2809C150.417 78.4454 150.356 78.6357 150.367 78.852Z" fill="#AAAAAA"/>
<rect x="140.531" y="48.5859" width="1" height="6" transform="rotate(67.41 140.531 48.5859)" fill="white"/>
<rect x="17" y="49.5078" width="1" height="6" transform="rotate(-67.4143 17 49.5078)" fill="white"/>
<rect x="34.125" y="26.4219" width="1" height="6" transform="rotate(-40.52 34.125 26.4219)" fill="white"/>
<rect x="61" y="11.8516" width="1" height="6" transform="rotate(-15.2412 61 11.8516)" fill="white"/>
<rect x="96.5781" y="11.5859" width="1" height="6" transform="rotate(15.24 96.5781 11.5859)" fill="white"/>
<rect x="123.023" y="25.4766" width="1" height="6" transform="rotate(40.5244 123.023 25.4766)" fill="white"/>
</g>
<defs>
<clipPath id="clip0_5822_21734">
<rect width="156.564" height="86.6593" fill="white"/>
</clipPath>
</defs>
</svg>
