<svg width="132" height="73" viewBox="0 0 132 73" fill="none" xmlns="http://www.w3.org/2000/svg">
<g clip-path="url(#clip0_5822_21734)">
<path d="M6.01205 69.9097L5.44181 69.88L4.03766 68.2897C3.8991 68.1374 3.7756 68.0101 3.66715 67.9077C3.5587 67.8053 3.45254 67.7272 3.34866 67.6734C3.24479 67.6197 3.13256 67.5896 3.01199 67.5833C2.87439 67.5762 2.75503 67.6012 2.65389 67.6585C2.55134 67.7158 2.47026 67.7976 2.41066 67.904C2.35106 68.0104 2.31763 68.1331 2.31038 68.2722C2.3029 68.4154 2.32614 68.5425 2.3801 68.6534C2.43263 68.7643 2.51125 68.8523 2.61595 68.9175C2.72073 68.9813 2.84758 69.0171 2.99653 69.0248L2.95735 69.7759C2.68073 69.7615 2.44359 69.6858 2.2459 69.5489C2.04822 69.412 1.89912 69.23 1.7986 69.0029C1.69816 68.7743 1.65545 68.5161 1.67047 68.2281C1.68571 67.9359 1.75372 67.682 1.87449 67.4664C1.99526 67.2508 2.15387 67.087 2.35032 66.9749C2.54684 66.8614 2.76709 66.811 3.01108 66.8237C3.17421 66.8323 3.33287 66.8718 3.48707 66.9425C3.64127 67.0131 3.81002 67.1321 3.99331 67.2996C4.17667 67.4656 4.39716 67.6969 4.65479 67.9933L5.37948 68.7843L5.40927 68.7859L5.50829 66.8879L6.1679 66.9223L6.01205 69.9097ZM6.37321 64.5818C6.35493 64.9322 6.25059 65.2283 6.06017 65.4701C5.86841 65.7104 5.60092 65.8892 5.2577 66.0064C4.91314 66.1222 4.50325 66.1676 4.02805 66.1428C3.55291 66.1166 3.15215 66.0282 2.82575 65.8774C2.49801 65.7252 2.2527 65.5197 2.08983 65.2608C1.92703 65.0006 1.85473 64.696 1.87294 64.347C1.89114 63.9981 1.99474 63.7026 2.18374 63.4607C2.37273 63.2188 2.6381 63.0399 2.97982 62.9241C3.32163 62.8068 3.72942 62.7605 4.20321 62.7852C4.67983 62.8101 5.08343 62.8987 5.41401 63.051C5.74325 63.2019 5.98997 63.4075 6.15419 63.6679C6.31848 63.9268 6.39149 64.2314 6.37321 64.5818ZM5.70721 64.547C5.72142 64.2747 5.59858 64.0528 5.33869 63.8813C5.07746 63.7084 4.68513 63.6083 4.16169 63.581C3.81557 63.5629 3.52289 63.5839 3.28364 63.644C3.04439 63.7041 2.86175 63.7969 2.73571 63.9226C2.60825 64.0483 2.53982 64.2012 2.53042 64.3813C2.51629 64.6523 2.63988 64.8735 2.90118 65.045C3.16107 65.2164 3.55057 65.3164 4.06967 65.3449C4.41714 65.3645 4.71117 65.345 4.95176 65.2864C5.19243 65.2264 5.37649 65.1336 5.50395 65.008C5.62999 64.8823 5.69774 64.7286 5.70721 64.547ZM6.5817 60.5853C6.56342 60.9356 6.45908 61.2318 6.26866 61.4736C6.0769 61.7139 5.80941 61.8927 5.46619 62.0099C5.12163 62.1256 4.71174 62.1711 4.23654 62.1463C3.7614 62.1201 3.36064 62.0316 3.03424 61.8809C2.7065 61.7287 2.46119 61.5232 2.29832 61.2643C2.13552 61.0041 2.06322 60.6995 2.08143 60.3505C2.09963 60.0015 2.20323 59.7061 2.39223 59.4642C2.58122 59.2223 2.84659 59.0434 3.18831 58.9275C3.53012 58.8102 3.93791 58.764 4.4117 58.7887C4.88832 58.8135 5.29193 58.9022 5.6225 59.0545C5.95174 59.2054 6.19846 59.411 6.36268 59.6713C6.52697 59.9303 6.59998 60.2349 6.5817 60.5853ZM5.9157 60.5505C5.92991 60.2782 5.80707 60.0563 5.54719 59.8848C5.28595 59.7119 4.89362 59.6118 4.37018 59.5845C4.02406 59.5664 3.73138 59.5874 3.49213 59.6475C3.25288 59.7075 3.07024 59.8004 2.9442 59.9261C2.81674 60.0518 2.74831 60.2046 2.73892 60.3848C2.72478 60.6557 2.84837 60.877 3.10967 61.0485C3.36956 61.2199 3.75906 61.3199 4.27816 61.3484C4.62563 61.368 4.91966 61.3484 5.16025 61.2899C5.40092 61.2299 5.58498 61.1371 5.71244 61.0114C5.83848 60.8857 5.90623 60.7321 5.9157 60.5505Z" fill="#AAAAAA"/>
<path d="M11.2685 41.7163C11.1247 41.9873 10.9504 42.2036 10.7457 42.3651C10.5416 42.5254 10.3245 42.6224 10.0943 42.6562C9.86409 42.69 9.63846 42.6531 9.4174 42.5454L9.79295 41.8378C9.90042 41.8868 10.0097 41.9006 10.1208 41.8791C10.2306 41.857 10.3345 41.8052 10.4324 41.7237C10.5304 41.6422 10.6136 41.5368 10.6822 41.4076C10.7554 41.2695 10.7965 41.1346 10.8054 41.0026C10.8131 40.87 10.7896 40.7506 10.735 40.6444C10.6804 40.5383 10.5963 40.4558 10.4827 40.3972C10.3667 40.334 10.2478 40.3095 10.1261 40.3237C10.0044 40.3379 9.88748 40.39 9.77537 40.4801C9.66392 40.5689 9.56492 40.6948 9.47835 40.8579L9.29757 41.1986L8.7593 40.9129L8.94008 40.5723C9.01133 40.438 9.05038 40.3084 9.05722 40.1834C9.06473 40.0571 9.04177 39.9428 8.98833 39.8405C8.93364 39.7375 8.85013 39.657 8.7378 39.599C8.6293 39.5398 8.52159 39.514 8.41465 39.5216C8.30712 39.5272 8.2068 39.5632 8.11369 39.6296C8.02125 39.6947 7.94306 39.7875 7.87914 39.9079C7.81654 40.0259 7.77994 40.1464 7.76933 40.2694C7.75873 40.3924 7.77663 40.5056 7.82305 40.609C7.86821 40.7118 7.94375 40.7937 8.04966 40.8547L7.69308 41.5266C7.47994 41.4071 7.32343 41.2444 7.22358 41.0387C7.12314 40.831 7.08039 40.6025 7.09533 40.3531C7.10902 40.1031 7.18212 39.8532 7.31463 39.6035C7.45114 39.3463 7.61797 39.1486 7.81513 39.0104C8.0117 38.8703 8.21855 38.7911 8.43567 38.7729C8.6528 38.7546 8.85923 38.7975 9.05496 38.9013C9.27269 39.0153 9.42067 39.1758 9.49888 39.383C9.57777 39.5889 9.58452 39.8079 9.51916 40.0402L9.54927 40.0562C9.73074 39.8051 9.94132 39.6507 10.181 39.593C10.4201 39.5334 10.6598 39.5681 10.9 39.6972C11.1158 39.8117 11.2764 39.9757 11.3818 40.1893C11.4866 40.4009 11.5304 40.6396 11.5131 40.9054C11.4965 41.17 11.415 41.4403 11.2685 41.7163ZM13.1433 38.2337C12.9788 38.5436 12.7592 38.768 12.4845 38.9069C12.2092 39.0438 11.8913 39.0929 11.5306 39.0543C11.1694 39.0138 10.7786 38.882 10.3583 38.6589C9.93866 38.4346 9.61269 38.1852 9.38043 37.9108C9.14757 37.6345 9.01195 37.3446 8.97356 37.0412C8.93583 36.7365 8.99887 36.4299 9.16268 36.1212C9.32648 35.8126 9.54511 35.5885 9.81855 35.449C10.092 35.3095 10.4081 35.2593 10.7668 35.2985C11.1261 35.3364 11.5154 35.4666 11.9344 35.689C12.356 35.9128 12.6845 36.1635 12.9199 36.4411C13.1546 36.7169 13.2915 37.0074 13.3305 37.3127C13.3701 37.6168 13.3077 37.9238 13.1433 38.2337ZM12.5542 37.9211C12.682 37.6802 12.6643 37.4272 12.5011 37.162C12.3373 36.895 12.0239 36.6386 11.5609 36.3929C11.2547 36.2304 10.9805 36.1259 10.7383 36.0794C10.4961 36.0328 10.2913 36.04 10.124 36.1007C9.95537 36.1608 9.8288 36.2705 9.74424 36.4299C9.61705 36.6695 9.63571 36.9222 9.80019 37.188C9.96342 37.4531 10.2743 37.7082 10.7329 37.9532C11.0396 38.1175 11.3144 38.224 11.5572 38.2724C11.8007 38.3196 12.0068 38.3132 12.1753 38.2531C12.3427 38.1924 12.4689 38.0817 12.5542 37.9211ZM15.0193 34.6987C14.8548 35.0086 14.6352 35.233 14.3605 35.3719C14.0852 35.5088 13.7673 35.5579 13.4066 35.5193C13.0454 35.4788 12.6547 35.347 12.2343 35.1239C11.8147 34.8996 11.4887 34.6502 11.2564 34.3758C11.0236 34.0995 10.888 33.8096 10.8496 33.5062C10.8118 33.2015 10.8749 32.8949 11.0387 32.5862C11.2025 32.2776 11.4211 32.0535 11.6946 31.914C11.968 31.7745 12.2841 31.7243 12.6428 31.7635C13.0022 31.8014 13.3914 31.9316 13.8104 32.154C14.232 32.3778 14.5605 32.6285 14.7959 32.9061C15.0306 33.1819 15.1675 33.4724 15.2065 33.7777C15.2461 34.0818 15.1837 34.3888 15.0193 34.6987ZM14.4302 34.3861C14.558 34.1452 14.5403 33.8922 14.3771 33.627C14.2133 33.36 13.8999 33.1036 13.4369 32.8579C13.1307 32.6954 12.8565 32.5909 12.6143 32.5444C12.3721 32.4978 12.1673 32.505 12 32.5657C11.8314 32.6258 11.7048 32.7355 11.6202 32.8949C11.4931 33.1345 11.5117 33.3872 11.6762 33.653C11.8394 33.9181 12.1503 34.1732 12.6089 34.4182C12.9156 34.5825 13.1904 34.689 13.4332 34.7374C13.6767 34.7847 13.8828 34.7782 14.0513 34.7181C14.2187 34.6574 14.3449 34.5467 14.4302 34.3861Z" fill="#AAAAAA"/>
<path d="M26.1188 19.7775L25.7723 19.2531L25.7046 15.7916L26.142 15.5027L26.6352 16.2493L26.3686 16.4255L26.4173 18.7606L26.4361 18.789L28.5925 17.3644L28.9507 17.9066L26.1188 19.7775ZM28.3019 19.3056L27.7499 18.4701L27.602 18.2307L25.9037 15.6601L26.526 15.249L28.9313 18.8899L28.3019 19.3056ZM31.3566 17.3872C31.0639 17.5806 30.7637 17.6725 30.456 17.6629C30.1488 17.6514 29.8461 17.5424 29.5479 17.3359C29.2502 17.1274 28.9701 16.8247 28.7078 16.4276C28.4467 16.0298 28.2799 15.6548 28.2073 15.3027C28.1351 14.9486 28.1548 14.6292 28.2663 14.3445C28.3789 14.0589 28.5811 13.8198 28.8726 13.6272C29.1642 13.4346 29.4634 13.3425 29.7702 13.3509C30.0771 13.3592 30.3786 13.4665 30.6748 13.6726C30.9722 13.8779 31.2516 14.1785 31.5132 14.5743C31.7762 14.9725 31.9447 15.3499 32.0184 15.7063C32.0926 16.0608 32.0737 16.3814 31.9618 16.6682C31.8511 16.9541 31.6493 17.1938 31.3566 17.3872ZM30.989 16.8307C31.2166 16.6804 31.3221 16.4498 31.3057 16.1389C31.2897 15.826 31.1372 15.4509 30.8483 15.0136C30.6572 14.7244 30.4665 14.5014 30.2761 14.3446C30.0857 14.1878 29.9025 14.096 29.7265 14.0693C29.5497 14.0413 29.386 14.0771 29.2355 14.1765C29.0092 14.3261 28.9046 14.5569 28.9218 14.869C28.9382 15.1799 29.0891 15.5526 29.3745 15.9872C29.5651 16.2784 29.7555 16.5033 29.9455 16.6621C30.1367 16.8201 30.3207 16.913 30.4975 16.941C30.6734 16.9677 30.8373 16.931 30.989 16.8307ZM34.6957 15.1812C34.403 15.3746 34.1028 15.4666 33.7951 15.457C33.4879 15.4455 33.1852 15.3365 32.887 15.13C32.5893 14.9215 32.3092 14.6187 32.0469 14.2217C31.7858 13.8239 31.619 13.4489 31.5464 13.0968C31.4742 12.7427 31.4938 12.4233 31.6053 12.1385C31.718 11.853 31.9201 11.6139 32.2117 11.4213C32.5033 11.2287 32.8025 11.1365 33.1093 11.1449C33.4162 11.1533 33.7177 11.2605 34.0139 11.4666C34.3113 11.672 34.5907 11.9725 34.8522 12.3684C35.1153 12.7666 35.2837 13.1439 35.3575 13.5004C35.4317 13.8549 35.4128 14.1755 35.3009 14.4622C35.1902 14.7482 34.9884 14.9879 34.6957 15.1812ZM34.3281 14.6248C34.5556 14.4745 34.6612 14.2439 34.6448 13.9329C34.6287 13.6201 34.4763 13.245 34.1874 12.8076C33.9963 12.5185 33.8056 12.2955 33.6152 12.1387C33.4247 11.9818 33.2415 11.8901 33.0655 11.8633C32.8888 11.8354 32.7251 11.8712 32.5746 11.9706C32.3482 12.1202 32.2437 12.351 32.2609 12.6631C32.2773 12.974 32.4282 13.3467 32.7136 13.7813C32.9042 14.0724 33.0946 14.2974 33.2846 14.4562C33.4758 14.6142 33.6598 14.7071 33.8365 14.735C34.0125 14.7618 34.1764 14.725 34.3281 14.6248Z" fill="#AAAAAA"/>
<path d="M61.9048 6.05966C61.6207 6.05966 61.3665 6.00639 61.142 5.89986C60.9176 5.7919 60.7393 5.64418 60.6072 5.45668C60.4766 5.26918 60.407 5.05469 60.3984 4.81321H61.1655C61.1797 4.99219 61.2571 5.13849 61.3977 5.25213C61.5384 5.36435 61.7074 5.42045 61.9048 5.42045C62.0597 5.42045 62.1974 5.38494 62.3182 5.31392C62.4389 5.2429 62.5341 5.14418 62.6037 5.01776C62.6733 4.89134 62.7074 4.74716 62.706 4.58523C62.7074 4.42045 62.6726 4.27415 62.6016 4.14631C62.5305 4.01847 62.4332 3.91832 62.3097 3.84588C62.1861 3.77202 62.044 3.73509 61.8835 3.73509C61.7528 3.73366 61.6243 3.75781 61.4979 3.80753C61.3714 3.85724 61.2713 3.92259 61.1974 4.00355L60.4837 3.88636L60.7116 1.63636H63.2429V2.29688H61.3658L61.2401 3.45384H61.2656C61.3466 3.35866 61.4609 3.27983 61.6087 3.21733C61.7564 3.15341 61.9183 3.12145 62.0945 3.12145C62.3587 3.12145 62.5945 3.18395 62.8018 3.30895C63.0092 3.43253 63.1726 3.60298 63.2919 3.82031C63.4112 4.03764 63.4709 4.28622 63.4709 4.56605C63.4709 4.8544 63.4041 5.11151 63.2706 5.33736C63.1385 5.56179 62.9545 5.73864 62.7188 5.8679C62.4844 5.99574 62.2131 6.05966 61.9048 6.05966ZM65.7976 6.0831C65.4467 6.0831 65.1456 5.99432 64.8942 5.81676C64.6442 5.63778 64.4517 5.37997 64.3168 5.04332C64.1832 4.70526 64.1165 4.2983 64.1165 3.82244C64.1179 3.34659 64.1854 2.94176 64.3189 2.60795C64.4538 2.27273 64.6463 2.01705 64.8963 1.84091C65.1477 1.66477 65.4482 1.5767 65.7976 1.5767C66.147 1.5767 66.4474 1.66477 66.6989 1.84091C66.9503 2.01705 67.1428 2.27273 67.2763 2.60795C67.4112 2.94318 67.4787 3.34801 67.4787 3.82244C67.4787 4.29972 67.4112 4.70739 67.2763 5.04545C67.1428 5.3821 66.9503 5.6392 66.6989 5.81676C66.4489 5.99432 66.1484 6.0831 65.7976 6.0831ZM65.7976 5.41619C66.0703 5.41619 66.2855 5.28196 66.4432 5.01349C66.6023 4.74361 66.6818 4.34659 66.6818 3.82244C66.6818 3.47585 66.6456 3.18466 66.5732 2.94886C66.5007 2.71307 66.3984 2.53551 66.2663 2.41619C66.1342 2.29545 65.978 2.23509 65.7976 2.23509C65.5263 2.23509 65.3118 2.37003 65.1541 2.63991C64.9964 2.90838 64.9169 3.30256 64.9155 3.82244C64.9141 4.17045 64.9489 4.46307 65.0199 4.70028C65.0923 4.9375 65.1946 5.11648 65.3267 5.23722C65.4588 5.35653 65.6158 5.41619 65.7976 5.41619ZM69.7995 6.0831C69.4487 6.0831 69.1475 5.99432 68.8961 5.81676C68.6461 5.63778 68.4537 5.37997 68.3187 5.04332C68.1852 4.70526 68.1184 4.2983 68.1184 3.82244C68.1199 3.34659 68.1873 2.94176 68.3208 2.60795C68.4558 2.27273 68.6483 2.01705 68.8983 1.84091C69.1497 1.66477 69.4501 1.5767 69.7995 1.5767C70.149 1.5767 70.4494 1.66477 70.7008 1.84091C70.9522 2.01705 71.1447 2.27273 71.2782 2.60795C71.4132 2.94318 71.4806 3.34801 71.4806 3.82244C71.4806 4.29972 71.4132 4.70739 71.2782 5.04545C71.1447 5.3821 70.9522 5.6392 70.7008 5.81676C70.4508 5.99432 70.1504 6.0831 69.7995 6.0831ZM69.7995 5.41619C70.0723 5.41619 70.2875 5.28196 70.4451 5.01349C70.6042 4.74361 70.6838 4.34659 70.6838 3.82244C70.6838 3.47585 70.6475 3.18466 70.5751 2.94886C70.5027 2.71307 70.4004 2.53551 70.2683 2.41619C70.1362 2.29545 69.9799 2.23509 69.7995 2.23509C69.5282 2.23509 69.3137 2.37003 69.1561 2.63991C68.9984 2.90838 68.9189 3.30256 68.9174 3.82244C68.916 4.17045 68.9508 4.46307 69.0218 4.70028C69.0943 4.9375 69.1966 5.11648 69.3287 5.23722C69.4608 5.35653 69.6177 5.41619 69.7995 5.41619Z" fill="#AAAAAA"/>
<path d="M94.1689 12.8607C93.9922 12.7495 93.8381 12.6113 93.7064 12.4461C93.5756 12.2798 93.4852 12.0859 93.4353 11.8644C93.3862 11.6418 93.3928 11.3911 93.4554 11.1123C93.5186 10.8323 93.6564 10.5224 93.8686 10.1827C94.0655 9.8652 94.2748 9.60304 94.4966 9.39625C94.7183 9.18945 94.9458 9.03963 95.1788 8.94678C95.4126 8.85271 95.6469 8.81579 95.8817 8.83601C96.1177 8.85697 96.3468 8.93631 96.5689 9.07401C96.8019 9.21846 96.98 9.39231 97.103 9.59558C97.2272 9.79959 97.2954 10.0157 97.3077 10.2439C97.3207 10.4709 97.2788 10.6923 97.1819 10.9079L96.5209 10.4982C96.5754 10.3348 96.5763 10.1783 96.5237 10.0286C96.473 9.87856 96.3679 9.75412 96.2086 9.65533C95.9514 9.49592 95.6842 9.48486 95.4069 9.62214C95.1308 9.76017 94.8713 10.0238 94.6284 10.413L94.6537 10.4287C94.7787 10.3592 94.9119 10.3155 95.0532 10.2978C95.1945 10.2802 95.3371 10.2875 95.4808 10.3198C95.6266 10.3516 95.7658 10.4087 95.8986 10.491C96.1159 10.6257 96.2787 10.7985 96.387 11.0093C96.4965 11.2209 96.5455 11.4493 96.5339 11.6945C96.523 11.9385 96.4444 12.1772 96.298 12.4106C96.148 12.6553 95.9566 12.84 95.7239 12.9647C95.4918 13.0883 95.2412 13.1435 94.9719 13.1303C94.7027 13.1172 94.435 13.0273 94.1689 12.8607ZM94.5021 12.3152C94.6337 12.3967 94.7712 12.4377 94.9147 12.4381C95.0582 12.4385 95.1938 12.403 95.3216 12.3318C95.4493 12.2606 95.5544 12.157 95.6371 12.021C95.7206 11.8889 95.7661 11.7508 95.7735 11.6067C95.7822 11.4633 95.7547 11.3285 95.691 11.2021C95.6273 11.0757 95.5296 10.9717 95.398 10.8901C95.3002 10.8295 95.1975 10.7917 95.0898 10.7767C94.982 10.7618 94.8762 10.768 94.7723 10.7955C94.6691 10.8218 94.5724 10.8672 94.4823 10.9317C94.3942 10.9957 94.3192 11.0762 94.2574 11.1732C94.1785 11.3032 94.135 11.4408 94.1268 11.5861C94.1186 11.7315 94.1462 11.8689 94.2096 11.9985C94.273 12.128 94.3705 12.2336 94.5021 12.3152ZM97.4761 14.9383C97.1779 14.7535 96.9687 14.5194 96.8486 14.236C96.7304 13.9522 96.7026 13.6316 96.7653 13.2744C96.8299 12.9167 96.9876 12.5356 97.2383 12.1312C97.4902 11.7275 97.7609 11.419 98.0502 11.2056C98.3416 10.9918 98.6399 10.8759 98.9452 10.8579C99.2516 10.8406 99.5534 10.9241 99.8504 11.1082C100.147 11.2923 100.356 11.5254 100.477 11.8076C100.598 12.0898 100.627 12.4085 100.564 12.7638C100.502 13.1198 100.346 13.4994 100.096 13.9027C99.8445 14.3083 99.5724 14.6193 99.2796 14.8355C98.9887 15.0513 98.6897 15.1684 98.3824 15.1868C98.0764 15.206 97.7743 15.1232 97.4761 14.9383ZM97.8274 14.3715C98.0593 14.5152 98.3129 14.5145 98.5883 14.3694C98.8658 14.2238 99.1425 13.9283 99.4187 13.4828C99.6013 13.1882 99.724 12.9216 99.7866 12.6831C99.8493 12.4445 99.8559 12.2397 99.8065 12.0687C99.7578 11.8964 99.6568 11.7628 99.5035 11.6678C99.2729 11.5248 99.0195 11.5265 98.7433 11.6728C98.4678 11.8179 98.1925 12.111 97.9174 12.5522C97.7329 12.8472 97.6083 13.1142 97.5436 13.3533C97.4802 13.5931 97.4729 13.7991 97.5215 13.9713C97.5709 14.1423 97.6729 14.2757 97.8274 14.3715ZM100.877 17.0469C100.579 16.862 100.37 16.6279 100.25 16.3445C100.132 16.0607 100.104 15.7402 100.167 15.3829C100.231 15.0252 100.389 14.6442 100.64 14.2397C100.892 13.836 101.162 13.5275 101.452 13.3141C101.743 13.1003 102.041 12.9844 102.347 12.9664C102.653 12.9492 102.955 13.0326 103.252 13.2167C103.549 13.4008 103.758 13.634 103.879 13.9161C104 14.1983 104.028 14.517 103.965 14.8723C103.903 15.2283 103.747 15.608 103.497 16.0112C103.246 16.4169 102.974 16.7278 102.681 16.944C102.39 17.1598 102.091 17.2769 101.784 17.2954C101.478 17.3146 101.176 17.2317 100.877 17.0469ZM101.229 16.4801C101.461 16.6238 101.714 16.623 101.99 16.4779C102.267 16.3324 102.544 16.0368 102.82 15.5913C103.003 15.2968 103.125 15.0302 103.188 14.7916C103.251 14.553 103.257 14.3482 103.208 14.1772C103.159 14.005 103.058 13.8714 102.905 13.7763C102.674 13.6334 102.421 13.635 102.145 13.7814C101.869 13.9265 101.594 14.2196 101.319 14.6607C101.134 14.9557 101.01 15.2228 100.945 15.4618C100.882 15.7016 100.874 15.9076 100.923 16.0798C100.972 16.2509 101.074 16.3843 101.229 16.4801Z" fill="#AAAAAA"/>
<path d="M116.458 32.9827L120.569 33.1817L120.596 33.1695L119.719 31.2022L120.322 30.9332L121.532 33.6478L120.915 33.9229L116.792 33.7319L116.458 32.9827ZM118.37 37.4743C118.227 37.1539 118.185 36.8427 118.245 36.5408C118.307 36.2395 118.464 35.9588 118.716 35.6984C118.971 35.4388 119.315 35.2121 119.75 35.0183C120.185 34.8258 120.582 34.7225 120.942 34.7085C121.303 34.6953 121.615 34.7669 121.877 34.9235C122.141 35.0814 122.343 35.3199 122.486 35.6391C122.628 35.9582 122.67 36.2684 122.611 36.5698C122.553 36.8712 122.398 37.1511 122.146 37.4096C121.895 37.6693 121.552 37.8958 121.119 38.089C120.683 38.2834 120.283 38.3878 119.92 38.4022C119.558 38.4174 119.245 38.3463 118.98 38.189C118.716 38.033 118.513 37.7948 118.37 37.4743ZM118.979 37.2027C119.09 37.4518 119.3 37.5937 119.61 37.6283C119.921 37.6637 120.316 37.5747 120.795 37.3612C121.111 37.2201 121.362 37.0684 121.548 36.9062C121.734 36.744 121.855 36.5783 121.91 36.4091C121.966 36.2392 121.958 36.0719 121.884 35.9072C121.774 35.6594 121.563 35.5185 121.252 35.4844C120.943 35.4497 120.551 35.5376 120.075 35.748C119.757 35.8884 119.504 36.0394 119.316 36.2009C119.129 36.3636 119.007 36.5299 118.951 36.6998C118.895 36.869 118.905 37.0367 118.979 37.2027ZM120 41.1294C119.857 40.8089 119.815 40.4977 119.875 40.1958C119.937 39.8946 120.094 39.6138 120.346 39.3534C120.601 39.0938 120.945 38.8671 121.38 38.6733C121.815 38.4808 122.212 38.3776 122.571 38.3636C122.932 38.3503 123.244 38.4219 123.507 38.5785C123.77 38.7364 123.973 38.975 124.115 39.2941C124.258 39.6132 124.3 39.9235 124.241 40.2248C124.183 40.5262 124.028 40.8061 123.776 41.0646C123.525 41.3244 123.182 41.5509 122.749 41.7441C122.313 41.9384 121.913 42.0428 121.55 42.0573C121.188 42.0724 120.875 42.0014 120.61 41.844C120.346 41.688 120.143 41.4498 120 41.1294ZM120.609 40.8578C120.72 41.1068 120.93 41.2487 121.239 41.2834C121.551 41.3188 121.946 41.2297 122.424 41.0163C122.741 40.8751 122.992 40.7234 123.178 40.5613C123.364 40.3991 123.484 40.2333 123.54 40.0641C123.596 39.8943 123.588 39.727 123.514 39.5622C123.404 39.3144 123.193 39.1735 122.882 39.1394C122.573 39.1047 122.181 39.1926 121.705 39.4031C121.387 39.5435 121.134 39.6944 120.946 39.8559C120.759 40.0187 120.637 40.185 120.58 40.3548C120.525 40.524 120.535 40.6917 120.609 40.8578Z" fill="#AAAAAA"/>
<path d="M124.212 58.4447C124.185 58.1291 124.215 57.8444 124.3 57.5905C124.385 57.338 124.514 57.1346 124.686 56.9803C124.86 56.8273 125.065 56.7415 125.3 56.723C125.482 56.706 125.653 56.7314 125.813 56.7991C125.973 56.8668 126.109 56.965 126.223 57.0936C126.338 57.2235 126.417 57.3722 126.46 57.5397L126.489 57.5371C126.52 57.3093 126.618 57.1185 126.785 56.9646C126.953 56.8121 127.155 56.7265 127.39 56.708C127.613 56.6876 127.818 56.7329 128.004 56.844C128.19 56.955 128.343 57.116 128.462 57.3268C128.583 57.5375 128.655 57.7837 128.679 58.0654C128.703 58.3442 128.673 58.5969 128.589 58.8236C128.508 59.0515 128.384 59.2359 128.219 59.3767C128.055 59.519 127.861 59.5997 127.637 59.6187C127.402 59.6386 127.189 59.5862 126.997 59.4613C126.807 59.3377 126.678 59.1684 126.61 58.9532L126.58 58.9557C126.566 59.128 126.513 59.2864 126.421 59.4311C126.331 59.577 126.213 59.6968 126.067 59.7905C125.921 59.8855 125.757 59.9408 125.574 59.9563C125.339 59.9763 125.123 59.9248 124.926 59.8018C124.73 59.6788 124.569 59.5 124.442 59.2656C124.315 59.0326 124.239 58.759 124.212 58.4447ZM124.819 58.3932C124.833 58.5559 124.873 58.6951 124.938 58.8108C125.005 58.9262 125.092 59.0129 125.2 59.0708C125.307 59.1287 125.428 59.1527 125.561 59.1428C125.699 59.1296 125.819 59.0831 125.919 59.0033C126.021 58.9248 126.097 58.8221 126.147 58.6952C126.198 58.5698 126.217 58.4299 126.203 58.2756C126.19 58.1199 126.148 57.9838 126.077 57.8673C126.006 57.7507 125.913 57.6616 125.8 57.6C125.688 57.5396 125.562 57.5161 125.424 57.5293C125.291 57.5391 125.176 57.5817 125.08 57.6569C124.985 57.7319 124.914 57.832 124.868 57.9571C124.822 58.0836 124.805 58.229 124.819 58.3932ZM126.8 58.225C126.811 58.358 126.848 58.4732 126.911 58.5705C126.973 58.6693 127.055 58.7443 127.156 58.7956C127.258 58.8468 127.371 58.8678 127.498 58.8585C127.622 58.8466 127.728 58.8076 127.817 58.7416C127.907 58.6755 127.973 58.5887 128.015 58.481C128.059 58.3732 128.075 58.2521 128.063 58.1177C128.052 57.9804 128.015 57.8616 127.954 57.7613C127.894 57.6623 127.814 57.5878 127.715 57.5379C127.616 57.4892 127.505 57.4708 127.381 57.4828C127.255 57.4921 127.146 57.5298 127.055 57.596C126.965 57.6635 126.897 57.7513 126.85 57.8593C126.805 57.9686 126.789 58.0905 126.8 58.225ZM124.522 62.3674C124.492 62.0179 124.555 61.7103 124.711 61.4447C124.868 61.1805 125.108 60.9669 125.432 60.8039C125.758 60.6423 126.158 60.5413 126.632 60.5011C127.106 60.4622 127.515 60.4952 127.859 60.6C128.205 60.7061 128.476 60.8762 128.672 61.1104C128.869 61.346 128.982 61.6379 129.012 61.9861C129.042 62.3343 128.979 62.6411 128.825 62.9065C128.671 63.1719 128.432 63.3854 128.11 63.5468C127.787 63.7096 127.389 63.8111 126.917 63.8512C126.441 63.8916 126.029 63.8589 125.681 63.753C125.334 63.6485 125.062 63.4784 124.863 63.243C124.665 63.0089 124.551 62.717 124.522 62.3674ZM125.186 62.311C125.209 62.5828 125.361 62.7858 125.642 62.9202C125.924 63.0559 126.327 63.1016 126.849 63.0572C127.194 63.0279 127.482 62.9671 127.71 62.875C127.939 62.7829 128.107 62.6659 128.215 62.5242C128.324 62.3824 128.371 62.2216 128.356 62.0418C128.333 61.7715 128.18 61.5692 127.898 61.4349C127.617 61.3005 127.218 61.2546 126.7 61.2972C126.353 61.3252 126.064 61.3847 125.834 61.4755C125.604 61.5678 125.434 61.6848 125.325 61.8267C125.217 61.9684 125.171 62.1298 125.186 62.311ZM124.86 66.355C124.831 66.0055 124.894 65.6979 125.049 65.4323C125.206 65.1681 125.447 64.9545 125.771 64.7915C126.097 64.6299 126.496 64.5289 126.971 64.4887C127.445 64.4498 127.854 64.4828 128.198 64.5876C128.543 64.6937 128.814 64.8638 129.011 65.098C129.208 65.3336 129.321 65.6255 129.351 65.9737C129.38 66.3219 129.318 66.6287 129.164 66.8941C129.009 67.1595 128.771 67.373 128.448 67.5344C128.126 67.6972 127.728 67.7987 127.255 67.8388C126.78 67.8792 126.368 67.8465 126.019 67.7406C125.673 67.6361 125.4 67.466 125.202 67.2306C125.004 66.9965 124.89 66.7046 124.86 66.355ZM125.525 66.2986C125.548 66.5704 125.7 66.7734 125.981 66.9078C126.263 67.0435 126.665 67.0892 127.188 67.0448C127.533 67.0155 127.82 66.9547 128.049 66.8626C128.278 66.7705 128.446 66.6535 128.554 66.5118C128.663 66.37 128.71 66.2092 128.695 66.0294C128.672 65.7591 128.519 65.5568 128.237 65.4225C127.956 65.2881 127.556 65.2422 127.038 65.2848C126.691 65.3128 126.403 65.3723 126.172 65.4631C125.942 65.5554 125.772 65.6724 125.663 65.8143C125.556 65.956 125.509 66.1174 125.525 66.2986Z" fill="#AAAAAA"/>
<path d="M33.5 19L36.638 23.2172" stroke="white"/>
<path d="M66 8L66 13" stroke="white"/>
<path d="M116.912 39L112.171 41.2683" stroke="white"/>
<path d="M15.5 40.5L20.4135 42.7025" stroke="white"/>
</g>
<defs>
<clipPath id="clip0_5822_21734">
<rect width="131.474" height="72.7716" fill="white"/>
</clipPath>
</defs>
</svg>
