<svg width="130" height="108" viewBox="0 0 130 108" fill="none" xmlns="http://www.w3.org/2000/svg">
<path d="M99.241 36.6632L90.5712 38.1932C89.7745 38.3338 89.4658 39.313 90.0379 39.8851L96.9228 46.77C97.4838 47.331 98.4435 47.0465 98.6081 46.2703L100.393 37.8555C100.54 37.1621 99.9391 36.5401 99.241 36.6632Z" fill="#1D1D1D"/>
<g filter="url(#filter0_d_249_1562)">
<circle cx="66.1798" cy="68.9559" r="38.5" fill="white"/>
</g>
<path d="M34.2967 89.4559C30.4275 83.4717 28.1798 76.3302 28.1798 68.6608C28.1798 47.5608 45.193 30.4559 66.1798 30.4559C87.1666 30.4559 104.18 47.5608 104.18 68.6608C104.18 76.3302 101.932 83.4717 98.0629 89.4559" stroke="#E7E7E7"/>
<path d="M54.8929 68.6349C54.177 68.6349 53.4909 68.5198 52.8346 68.2897C52.1784 68.0553 51.5946 67.6846 51.0832 67.1775C50.5719 66.6661 50.1692 65.9971 49.8751 65.1704C49.5811 64.3394 49.4362 63.3274 49.4405 62.1342C49.4447 61.056 49.5768 60.0887 49.8368 59.2322C50.0967 58.3714 50.4674 57.6406 50.949 57.0397C51.4348 56.4389 52.0143 55.9808 52.6876 55.6654C53.3652 55.3458 54.1216 55.186 54.9568 55.186C55.873 55.186 56.6805 55.365 57.3794 55.7229C58.0825 56.0766 58.645 56.5539 59.0669 57.1548C59.4888 57.7514 59.738 58.4161 59.8147 59.1491H56.7018C56.6081 58.7357 56.4014 58.4225 56.0818 58.2095C55.7665 57.9921 55.3915 57.8835 54.9568 57.8835C54.1557 57.8835 53.5569 58.2308 53.1606 58.9254C52.7686 59.62 52.5683 60.5489 52.5598 61.7123H52.6429C52.8219 61.3202 53.0797 60.9836 53.4163 60.7024C53.753 60.4211 54.1386 60.2059 54.5733 60.0568C55.0122 59.9033 55.4767 59.8266 55.9667 59.8266C56.7508 59.8266 57.4433 60.0077 58.0442 60.37C58.645 60.7322 59.1159 61.2286 59.4568 61.8593C59.7977 62.4857 59.966 63.2038 59.9618 64.0134C59.966 64.9254 59.753 65.7308 59.3226 66.4296C58.8922 67.1242 58.2956 67.6654 57.5328 68.0532C56.7743 68.441 55.8943 68.6349 54.8929 68.6349ZM54.8737 66.2059C55.2615 66.2059 55.6088 66.1143 55.9156 65.931C56.2224 65.7478 56.4632 65.4985 56.6379 65.1832C56.8126 64.8678 56.8978 64.512 56.8936 64.1157C56.8978 63.7151 56.8126 63.3593 56.6379 63.0482C56.4674 62.7372 56.2288 62.49 55.922 62.3068C55.6194 62.1235 55.2721 62.0319 54.8801 62.0319C54.5946 62.0319 54.3282 62.0852 54.0811 62.1917C53.8339 62.2982 53.6187 62.4474 53.4355 62.6391C53.2565 62.8266 53.1159 63.0482 53.0136 63.3039C52.9113 63.5553 52.8581 63.8281 52.8538 64.1221C52.8581 64.5099 52.9476 64.8614 53.1223 65.1768C53.297 65.4921 53.5356 65.7435 53.8382 65.931C54.1407 66.1143 54.4859 66.2059 54.8737 66.2059ZM67.0042 68.6349C66.2883 68.6349 65.6022 68.5198 64.946 68.2897C64.2897 68.0553 63.7059 67.6846 63.1945 67.1775C62.6832 66.6661 62.2805 65.9971 61.9864 65.1704C61.6924 64.3394 61.5475 63.3274 61.5518 62.1342C61.556 61.056 61.6882 60.0887 61.9481 59.2322C62.208 58.3714 62.5788 57.6406 63.0603 57.0397C63.5461 56.4389 64.1257 55.9808 64.7989 55.6654C65.4765 55.3458 66.2329 55.186 67.0681 55.186C67.9843 55.186 68.7918 55.365 69.4907 55.7229C70.1938 56.0766 70.7563 56.5539 71.1782 57.1548C71.6001 57.7514 71.8494 58.4161 71.9261 59.1491H68.8132C68.7194 58.7357 68.5127 58.4225 68.1931 58.2095C67.8778 57.9921 67.5028 57.8835 67.0681 57.8835C66.267 57.8835 65.6683 58.2308 65.272 58.9254C64.8799 59.62 64.6796 60.5489 64.6711 61.7123H64.7542C64.9332 61.3202 65.191 60.9836 65.5276 60.7024C65.8643 60.4211 66.2499 60.2059 66.6846 60.0568C67.1235 59.9033 67.588 59.8266 68.0781 59.8266C68.8622 59.8266 69.5546 60.0077 70.1555 60.37C70.7563 60.7322 71.2272 61.2286 71.5681 61.8593C71.909 62.4857 72.0774 63.2038 72.0731 64.0134C72.0774 64.9254 71.8643 65.7308 71.4339 66.4296C71.0035 67.1242 70.4069 67.6654 69.6441 68.0532C68.8856 68.441 68.0056 68.6349 67.0042 68.6349ZM66.985 66.2059C67.3728 66.2059 67.7201 66.1143 68.0269 65.931C68.3337 65.7478 68.5745 65.4985 68.7492 65.1832C68.9239 64.8678 69.0092 64.512 69.0049 64.1157C69.0092 63.7151 68.9239 63.3593 68.7492 63.0482C68.5788 62.7372 68.3401 62.49 68.0333 62.3068C67.7308 62.1235 67.3835 62.0319 66.9914 62.0319C66.7059 62.0319 66.4396 62.0852 66.1924 62.1917C65.9453 62.2982 65.7301 62.4474 65.5468 62.6391C65.3678 62.8266 65.2272 63.0482 65.1249 63.3039C65.0227 63.5553 64.9694 63.8281 64.9651 64.1221C64.9694 64.5099 65.0589 64.8614 65.2336 65.1768C65.4083 65.4921 65.647 65.7435 65.9495 65.931C66.2521 66.1143 66.5972 66.2059 66.985 66.2059ZM79.2817 68.7755C78.1397 68.7755 77.1553 68.5049 76.3286 67.9637C75.5019 67.4183 74.8648 66.6363 74.4174 65.6178C73.9699 64.5951 73.7483 63.3657 73.7526 61.9296C73.7569 60.4935 73.9806 59.2748 74.4238 58.2734C74.8712 57.2677 75.5062 56.5028 76.3286 55.9786C77.1553 55.4502 78.1397 55.186 79.2817 55.186C80.4238 55.186 81.4081 55.4502 82.2348 55.9786C83.0658 56.5028 83.705 57.2677 84.1525 58.2734C84.5999 59.2791 84.8215 60.4978 84.8172 61.9296C84.8172 63.37 84.5935 64.6015 84.1461 65.6242C83.6986 66.647 83.0616 67.4289 82.2348 67.9701C81.4124 68.507 80.428 68.7755 79.2817 68.7755ZM79.2817 66.1867C79.9635 66.1867 80.5154 65.8394 80.9373 65.1448C81.3591 64.446 81.5679 63.3742 81.5637 61.9296C81.5637 60.9836 81.4678 60.2038 81.276 59.5901C81.0843 58.9722 80.8179 58.512 80.477 58.2095C80.1361 57.9069 79.7377 57.7556 79.2817 57.7556C78.6042 57.7556 78.0566 58.0987 77.639 58.7847C77.2214 59.4666 77.0104 60.5149 77.0062 61.9296C77.0019 62.8884 77.0935 63.6832 77.281 64.3139C77.4728 64.9445 77.7412 65.4154 78.0864 65.7265C78.4316 66.0333 78.83 66.1867 79.2817 66.1867Z" fill="#222428"/>
<path d="M15.1438 88.7437C12.5871 82.1666 11.1798 74.9816 11.1798 67.4559C11.1798 35.9757 35.8041 10.4559 66.1798 10.4559C96.5555 10.4559 121.18 35.9757 121.18 67.4559C121.18 74.9816 119.773 82.1666 117.216 88.7437" stroke="#E7E7E7" stroke-linecap="round" stroke-linejoin="round"/>
<path d="M15.6438 88.7437C13.0871 82.1666 11.6798 74.9816 11.6798 67.4559C11.6798 35.9757 36.3041 10.4559 66.6798 10.4559C82.4983 10.4559 96.757 17.3767 106.791 28.4559" stroke="url(#paint0_linear_249_1562)" stroke-width="5" stroke-linecap="round" stroke-linejoin="round"/>
<path d="M49.3844 79.4559V73.6377H52.8957V74.2627H50.0889V76.2286H52.7139V76.8536H50.0889V78.8309H52.9412V79.4559H49.3844ZM54.5747 75.0923L55.6201 76.8764L56.6656 75.0923H57.4383L56.0292 77.2741L57.4383 79.4559H56.6656L55.6201 77.7627L54.5747 79.4559H53.802L55.1883 77.2741L53.802 75.0923H54.5747ZM59.988 79.5468C59.579 79.5468 59.2267 79.4502 58.9312 79.257C58.6358 79.0639 58.4085 78.7978 58.2494 78.4587C58.0903 78.1197 58.0108 77.7324 58.0108 77.2968C58.0108 76.8536 58.0922 76.4625 58.2551 76.1235C58.4199 75.7826 58.649 75.5165 58.9426 75.3252C59.238 75.132 59.5827 75.0354 59.9767 75.0354C60.2835 75.0354 60.56 75.0923 60.8062 75.2059C61.0524 75.3195 61.2541 75.4786 61.4113 75.6832C61.5685 75.8877 61.6661 76.1264 61.704 76.3991H61.0335C60.9824 76.2002 60.8687 76.0241 60.6926 75.8707C60.5183 75.7154 60.2835 75.6377 59.988 75.6377C59.7267 75.6377 59.4975 75.7059 59.3005 75.8423C59.1055 75.9767 58.953 76.1671 58.8432 76.4133C58.7352 76.6576 58.6812 76.9445 58.6812 77.2741C58.6812 77.6112 58.7343 77.9048 58.8403 78.1548C58.9483 78.4048 59.0998 78.5989 59.2949 78.7372C59.4918 78.8754 59.7229 78.9445 59.988 78.9445C60.1623 78.9445 60.3204 78.9142 60.4625 78.8536C60.6045 78.793 60.7248 78.7059 60.8233 78.5923C60.9218 78.4786 60.9918 78.3423 61.0335 78.1832H61.704C61.6661 78.4408 61.5723 78.6728 61.4227 78.8792C61.275 79.0837 61.079 79.2466 60.8346 79.3678C60.5922 79.4872 60.31 79.5468 59.988 79.5468ZM64.5136 79.5468C64.0932 79.5468 63.7305 79.454 63.4255 79.2684C63.1225 79.0809 62.8886 78.8195 62.7238 78.4843C62.561 78.1472 62.4795 77.7551 62.4795 77.3082C62.4795 76.8612 62.561 76.4673 62.7238 76.1264C62.8886 75.7836 63.1178 75.5165 63.4113 75.3252C63.7068 75.132 64.0515 75.0354 64.4454 75.0354C64.6727 75.0354 64.8971 75.0733 65.1187 75.1491C65.3403 75.2248 65.542 75.3479 65.7238 75.5184C65.9057 75.687 66.0505 75.9104 66.1585 76.1889C66.2665 76.4673 66.3204 76.8101 66.3204 77.2173V77.5014H62.9568V76.9218H65.6386C65.6386 76.6756 65.5894 76.4559 65.4909 76.2627C65.3943 76.0695 65.256 75.9171 65.0761 75.8053C64.8981 75.6936 64.6879 75.6377 64.4454 75.6377C64.1784 75.6377 63.9473 75.704 63.7522 75.8366C63.5591 75.9673 63.4104 76.1377 63.3062 76.3479C63.2021 76.5582 63.15 76.7836 63.15 77.0241V77.4104C63.15 77.74 63.2068 78.0193 63.3204 78.2485C63.436 78.4758 63.596 78.6491 63.8005 78.7684C64.0051 78.8858 64.2428 78.9445 64.5136 78.9445C64.6897 78.9445 64.8488 78.9199 64.9909 78.8707C65.1348 78.8195 65.2589 78.7438 65.363 78.6434C65.4672 78.5411 65.5477 78.4142 65.6045 78.2627L66.2522 78.4445C66.1841 78.6642 66.0695 78.8574 65.9085 79.0241C65.7475 79.1889 65.5487 79.3176 65.3119 79.4104C65.0752 79.5014 64.8091 79.5468 64.5136 79.5468ZM68.0108 73.6377V79.4559H67.3403V73.6377H68.0108ZM69.9092 73.6377V79.4559H69.2388V73.6377H69.9092ZM72.9667 79.5468C72.5463 79.5468 72.1836 79.454 71.8787 79.2684C71.5756 79.0809 71.3417 78.8195 71.177 78.4843C71.0141 78.1472 70.9326 77.7551 70.9326 77.3082C70.9326 76.8612 71.0141 76.4673 71.177 76.1264C71.3417 75.7836 71.5709 75.5165 71.8645 75.3252C72.1599 75.132 72.5046 75.0354 72.8986 75.0354C73.1258 75.0354 73.3503 75.0733 73.5719 75.1491C73.7934 75.2248 73.9951 75.3479 74.177 75.5184C74.3588 75.687 74.5037 75.9104 74.6116 76.1889C74.7196 76.4673 74.7736 76.8101 74.7736 77.2173V77.5014H71.4099V76.9218H74.0917C74.0917 76.6756 74.0425 76.4559 73.944 76.2627C73.8474 76.0695 73.7092 75.9171 73.5292 75.8053C73.3512 75.6936 73.141 75.6377 72.8986 75.6377C72.6315 75.6377 72.4004 75.704 72.2054 75.8366C72.0122 75.9673 71.8635 76.1377 71.7594 76.3479C71.6552 76.5582 71.6031 76.7836 71.6031 77.0241V77.4104C71.6031 77.74 71.6599 78.0193 71.7736 78.2485C71.8891 78.4758 72.0491 78.6491 72.2537 78.7684C72.4582 78.8858 72.6959 78.9445 72.9667 78.9445C73.1429 78.9445 73.302 78.9199 73.444 78.8707C73.5879 78.8195 73.712 78.7438 73.8162 78.6434C73.9203 78.5411 74.0008 78.4142 74.0576 78.2627L74.7054 78.4445C74.6372 78.6642 74.5226 78.8574 74.3616 79.0241C74.2006 79.1889 74.0018 79.3176 73.765 79.4104C73.5283 79.5014 73.2622 79.5468 72.9667 79.5468ZM76.4639 76.8309V79.4559H75.7934V75.0923H76.4412V75.7741H76.498C76.6003 75.5525 76.7556 75.3745 76.9639 75.24C77.1722 75.1036 77.4412 75.0354 77.7707 75.0354C78.0662 75.0354 78.3247 75.0961 78.5463 75.2173C78.7679 75.3366 78.9402 75.5184 79.0633 75.7627C79.1864 76.0051 79.248 76.312 79.248 76.6832V79.4559H78.5775V76.7286C78.5775 76.3858 78.4885 76.1188 78.3105 75.9275C78.1325 75.7343 77.8881 75.6377 77.5775 75.6377C77.3635 75.6377 77.1722 75.6841 77.0037 75.7769C76.837 75.8697 76.7054 76.0051 76.6088 76.1832C76.5122 76.3612 76.4639 76.5771 76.4639 76.8309ZM82.3709 75.0923V75.6604H80.1095V75.0923H82.3709ZM80.7686 74.0468H81.439V78.2059C81.439 78.3953 81.4665 78.5373 81.5214 78.632C81.5782 78.7248 81.6502 78.7873 81.7373 78.8195C81.8263 78.8498 81.9201 78.865 82.0186 78.865C82.0924 78.865 82.1531 78.8612 82.2004 78.8536C82.2478 78.8442 82.2856 78.8366 82.314 78.8309L82.4504 79.4332C82.4049 79.4502 82.3415 79.4673 82.2601 79.4843C82.1786 79.5033 82.0754 79.5127 81.9504 79.5127C81.761 79.5127 81.5754 79.472 81.3936 79.3906C81.2137 79.3091 81.064 79.1851 80.9447 79.0184C80.8273 78.8517 80.7686 78.6415 80.7686 78.3877V74.0468Z" fill="black"/>
<path d="M9.26178 87.9741L8.70704 88.1095L6.90513 86.9899C6.72865 86.8838 6.57376 86.7973 6.44046 86.7304C6.30717 86.6635 6.18304 86.6192 6.0681 86.5976C5.95315 86.5759 5.83703 86.5794 5.71973 86.608C5.58588 86.6407 5.47875 86.699 5.39835 86.783C5.31657 86.8673 5.26243 86.9689 5.23592 87.088C5.20941 87.207 5.21266 87.3342 5.24566 87.4694C5.27967 87.6088 5.33846 87.7238 5.42201 87.8146C5.50418 87.9056 5.60478 87.9674 5.7238 87.9997C5.84248 88.0307 5.97427 88.0285 6.11917 87.9932L6.29748 88.7239C6.02839 88.7895 5.7795 88.7852 5.55082 88.7109C5.32213 88.6366 5.12701 88.5051 4.96546 88.3164C4.80357 88.1263 4.68845 87.8912 4.62009 87.6111C4.55071 87.3268 4.54289 87.0641 4.59661 86.8229C4.65033 86.5817 4.75517 86.3792 4.91112 86.2154C5.06674 86.0502 5.26322 85.9387 5.50057 85.8807C5.65927 85.842 5.82261 85.8343 5.9906 85.8576C6.1586 85.881 6.35443 85.9465 6.57811 86.0542C6.80144 86.1606 7.0791 86.3187 7.41106 86.5287L8.33249 87.078L8.36147 87.0709L7.91088 85.2245L8.55256 85.0679L9.26178 87.9741ZM8.07662 82.7672C8.1598 83.108 8.14494 83.4216 8.03206 83.708C7.91745 83.9933 7.71262 84.2414 7.41756 84.4523C7.12079 84.6622 6.74126 84.8235 6.27897 84.9363C5.81635 85.0477 5.40707 85.0782 5.05112 85.0276C4.69346 84.976 4.39944 84.8496 4.16905 84.6485C3.93833 84.446 3.78155 84.175 3.6987 83.8356C3.61586 83.4961 3.63019 83.1833 3.7417 82.8973C3.85321 82.6113 4.05597 82.3637 4.34998 82.1545C4.64366 81.944 5.02095 81.7824 5.48186 81.67C5.94552 81.5568 6.35757 81.5257 6.71799 81.5766C7.0767 81.6265 7.3721 81.7526 7.6042 81.9547C7.83597 82.1555 7.99344 82.4263 8.07662 82.7672ZM7.42873 82.9253C7.36407 82.6603 7.18264 82.4831 6.88445 82.3936C6.58454 82.303 6.17999 82.3198 5.67078 82.4441C5.33407 82.5263 5.05977 82.6305 4.84787 82.7568C4.63597 82.8831 4.48772 83.0245 4.40313 83.1811C4.31715 83.3381 4.29555 83.5042 4.33831 83.6795C4.40264 83.943 4.58458 84.1194 4.88415 84.2086C5.18235 84.2981 5.58414 84.282 6.08955 84.1601C6.42797 84.079 6.70399 83.9758 6.91761 83.8505C7.13089 83.7239 7.28051 83.5821 7.36649 83.4252C7.45109 83.2685 7.47183 83.1019 7.42873 82.9253ZM7.12783 78.8793C7.21101 79.2202 7.19616 79.5338 7.08327 79.8201C6.96867 80.1054 6.76384 80.3535 6.46878 80.5644C6.172 80.7743 5.79247 80.9356 5.33019 81.0485C4.86757 81.1599 4.45828 81.1903 4.10234 81.1397C3.74467 81.0881 3.45065 80.9618 3.22027 80.7606C2.98954 80.5581 2.83276 80.2872 2.74992 79.9477C2.66707 79.6082 2.68141 79.2955 2.79291 79.0095C2.90442 78.7235 3.10718 78.4759 3.4012 78.2667C3.69488 78.0561 4.07217 77.8946 4.53307 77.7821C4.99674 77.6689 5.40878 77.6378 5.7692 77.6888C6.12791 77.7387 6.42331 77.8647 6.65542 78.0669C6.88718 78.2677 7.04465 78.5385 7.12783 78.8793ZM6.47994 79.0374C6.41528 78.7725 6.23386 78.5952 5.93567 78.5057C5.63576 78.4151 5.2312 78.432 4.722 78.5562C4.38529 78.6384 4.11098 78.7426 3.89908 78.8689C3.68719 78.9952 3.53894 79.1367 3.45434 79.2933C3.36836 79.4502 3.34676 79.6164 3.38953 79.7916C3.45385 80.0552 3.6358 80.2316 3.93537 80.3207C4.23356 80.4103 4.63536 80.3941 5.14076 80.2722C5.47919 80.1911 5.75521 80.0879 5.96882 79.9627C6.1821 79.8361 6.33173 79.6943 6.4177 79.5373C6.5023 79.3807 6.52305 79.2141 6.47994 79.0374Z" fill="#AAAAAA"/>
<path d="M8.04134 52.9772C7.93532 53.2651 7.79175 53.5028 7.61065 53.6904C7.43004 53.8767 7.22796 54.0021 7.0044 54.0666C6.78083 54.1311 6.55228 54.1249 6.31873 54.048L6.59557 53.2962C6.70866 53.3303 6.8188 53.3292 6.92598 53.293C7.03184 53.2563 7.12779 53.191 7.21385 53.097C7.29991 53.0031 7.36822 52.8875 7.41878 52.7502C7.47277 52.6035 7.4953 52.4643 7.48637 52.3323C7.47611 52.1999 7.43677 52.0847 7.36836 51.9869C7.29995 51.889 7.20551 51.8187 7.08506 51.7758C6.96158 51.7288 6.8405 51.7206 6.72181 51.751C6.60312 51.7815 6.49429 51.8489 6.39532 51.9532C6.29685 52.0562 6.2157 52.1944 6.15189 52.3677L6.01863 52.7296L5.44679 52.519L5.58006 52.1571C5.63258 52.0145 5.65381 51.8808 5.64376 51.756C5.6342 51.6298 5.59605 51.5197 5.52933 51.4255C5.46126 51.3308 5.36767 51.2622 5.24855 51.2199C5.13307 51.1758 5.02286 51.1648 4.91792 51.1867C4.81213 51.2068 4.71758 51.256 4.63425 51.3343C4.55141 51.4112 4.48644 51.5137 4.43931 51.6417C4.39317 51.767 4.37313 51.8913 4.37918 52.0146C4.38524 52.1379 4.41823 52.2477 4.47815 52.3439C4.53674 52.4397 4.62262 52.5107 4.73578 52.5569L4.47293 53.2707C4.24563 53.1809 4.06865 53.0408 3.94199 52.8504C3.8145 52.6581 3.74137 52.4374 3.7226 52.1883C3.70249 51.9387 3.74128 51.6813 3.83896 51.416C3.93958 51.1428 4.07827 50.9244 4.25503 50.7609C4.43094 50.5956 4.62524 50.4893 4.83793 50.442C5.05062 50.3947 5.26094 50.4093 5.46888 50.4859C5.69997 50.5695 5.86822 50.7086 5.97362 50.9034C6.0795 51.0967 6.1157 51.3129 6.08221 51.5518L6.1142 51.5636C6.26021 51.2904 6.44808 51.1091 6.67781 51.0196C6.9067 50.9283 7.14886 50.9305 7.4043 51.026C7.63357 51.1105 7.81479 51.2514 7.94797 51.4487C8.08031 51.6443 8.15582 51.875 8.17453 52.1407C8.19372 52.4051 8.14932 52.6839 8.04134 52.9772ZM9.43003 49.2738C9.30879 49.6031 9.12142 49.855 8.86793 50.0295C8.61358 50.2023 8.30514 50.2938 7.9426 50.3041C7.57922 50.3126 7.17426 50.2346 6.72772 50.0702C6.28167 49.9044 5.9251 49.7012 5.65799 49.4606C5.39005 49.2181 5.21663 48.9491 5.13773 48.6537C5.05932 48.3569 5.08049 48.0445 5.20124 47.7166C5.32199 47.3887 5.50845 47.1372 5.76061 46.9621C6.01278 46.7871 6.31922 46.6948 6.67994 46.6854C7.04114 46.6746 7.44435 46.7511 7.88956 46.9151C8.33743 47.08 8.69667 47.2842 8.96728 47.5276C9.23705 47.7693 9.41181 48.0387 9.49155 48.336C9.57178 48.632 9.55127 48.9446 9.43003 49.2738ZM8.80421 49.0434C8.89845 48.7874 8.84685 48.5391 8.64941 48.2984C8.45112 48.0558 8.10605 47.844 7.61419 47.6629C7.28895 47.5431 7.00318 47.4765 6.75688 47.463C6.51057 47.4495 6.30861 47.4841 6.151 47.5668C5.99205 47.6491 5.8814 47.7748 5.81907 47.9441C5.72531 48.1987 5.77783 48.4466 5.9766 48.6878C6.17405 48.9286 6.51645 49.1394 7.00382 49.3204C7.32991 49.442 7.61652 49.5104 7.86367 49.5258C8.1113 49.5398 8.31459 49.5056 8.47354 49.4234C8.63116 49.3407 8.74138 49.214 8.80421 49.0434ZM10.8129 45.5184C10.6917 45.8476 10.5043 46.0995 10.2508 46.2741C9.99648 46.4469 9.68804 46.5384 9.3255 46.5487C8.96212 46.5572 8.55716 46.4792 8.11062 46.3148C7.66457 46.149 7.308 45.9458 7.04089 45.7051C6.77295 45.4627 6.59953 45.1937 6.52063 44.8982C6.44222 44.6014 6.46339 44.2891 6.58414 43.9612C6.70489 43.6333 6.89135 43.3818 7.14351 43.2067C7.39568 43.0316 7.70212 42.9394 8.06284 42.9299C8.42404 42.9191 8.82725 42.9957 9.27246 43.1597C9.72033 43.3246 10.0796 43.5288 10.3502 43.7722C10.62 44.0138 10.7947 44.2833 10.8744 44.5806C10.9547 44.8766 10.9342 45.1891 10.8129 45.5184ZM10.1871 45.2879C10.2814 45.032 10.2298 44.7837 10.0323 44.543C9.83402 44.3004 9.48895 44.0886 8.99709 43.9074C8.67185 43.7877 8.38608 43.721 8.13977 43.7075C7.89347 43.694 7.69151 43.7287 7.5339 43.8114C7.37495 43.8936 7.2643 44.0194 7.20196 44.1887C7.10821 44.4433 7.16073 44.6912 7.3595 44.9324C7.55695 45.1731 7.89935 45.384 8.38672 45.565C8.7128 45.6866 8.99942 45.755 9.24656 45.7703C9.4942 45.7843 9.69749 45.7502 9.85644 45.668C10.0141 45.5852 10.1243 45.4586 10.1871 45.2879Z" fill="#AAAAAA"/>
<path d="M24.04 21.6209L23.663 21.118L23.39 17.6666L23.8094 17.3522L24.3462 18.0683L24.0904 18.26L24.2776 20.588L24.2981 20.6153L26.3662 19.0652L26.7559 19.5852L24.04 21.6209ZM26.1913 21.0203L25.5907 20.219L25.4288 19.9888L23.581 17.5235L24.1777 17.0762L26.7948 20.5679L26.1913 21.0203ZM29.1267 18.9239C28.846 19.1344 28.5518 19.2439 28.2441 19.2527C27.9367 19.2594 27.6281 19.1685 27.3182 18.9801C27.0086 18.7896 26.7111 18.504 26.4257 18.1233C26.1414 17.7417 25.9526 17.3773 25.8593 17.0301C25.7662 16.6809 25.7668 16.3609 25.8613 16.07C25.9568 15.7782 26.1444 15.5276 26.424 15.318C26.7036 15.1084 26.9968 14.9987 27.3036 14.9889C27.6104 14.979 27.9178 15.0682 28.2257 15.2563C28.5347 15.4437 28.8315 15.7271 29.1161 16.1068C29.4023 16.4887 29.5928 16.8553 29.6876 17.2068C29.7827 17.5562 29.7829 17.8774 29.6882 18.1703C29.5946 18.4623 29.4075 18.7135 29.1267 18.9239ZM28.7267 18.3903C28.945 18.2267 29.0367 17.9903 29.0018 17.6809C28.9672 17.3695 28.7928 17.0041 28.4784 16.5847C28.2706 16.3074 28.0669 16.0961 27.8675 15.9508C27.6681 15.8056 27.4798 15.7249 27.3026 15.7086C27.1244 15.6912 26.9632 15.7366 26.8188 15.8448C26.6018 16.0076 26.5111 16.2442 26.5468 16.5547C26.5816 16.8641 26.7544 17.2272 27.065 17.6441C27.2726 17.9234 27.476 18.1367 27.6751 18.2839C27.8753 18.4302 28.0645 18.5121 28.2426 18.5295C28.4199 18.5458 28.5813 18.4994 28.7267 18.3903ZM32.329 16.5237C32.0483 16.7342 31.7541 16.8437 31.4464 16.8525C31.139 16.8592 30.8304 16.7683 30.5205 16.5799C30.2109 16.3894 29.9134 16.1038 29.628 15.7231C29.3437 15.3415 29.1549 14.977 29.0615 14.6299C28.9685 14.2807 28.9691 13.9607 29.0635 13.6698C29.1591 13.378 29.3467 13.1274 29.6263 12.9178C29.9059 12.7082 30.1991 12.5985 30.5059 12.5887C30.8127 12.5788 31.1201 12.668 31.428 12.8561C31.737 13.0435 32.0338 13.3269 32.3184 13.7066C32.6046 14.0885 32.7951 14.4551 32.8899 14.8066C32.985 15.156 32.9852 15.4772 32.8905 15.7701C32.7969 16.0621 32.6098 16.3133 32.329 16.5237ZM31.929 15.9901C32.1473 15.8265 32.239 15.5901 32.2041 15.2807C32.1695 14.9693 31.9951 14.6039 31.6807 14.1845C31.4728 13.9072 31.2692 13.6959 31.0698 13.5506C30.8704 13.4054 30.6821 13.3247 30.5048 13.3084C30.3267 13.291 30.1655 13.3364 30.0211 13.4446C29.804 13.6074 29.7133 13.844 29.749 14.1545C29.7839 14.4639 29.9567 14.827 30.2673 15.2439C30.4749 15.5232 30.6783 15.7365 30.8774 15.8837C31.0776 16.03 31.2668 16.1119 31.4449 16.1293C31.6222 16.1455 31.7835 16.0991 31.929 15.9901Z" fill="#AAAAAA"/>
<path d="M60.5011 6.44219C60.2172 6.45308 59.9611 6.4096 59.7327 6.31175C59.5043 6.21248 59.3205 6.07169 59.1813 5.88939C59.0436 5.70704 58.9658 5.49538 58.948 5.25441L59.7145 5.225C59.7355 5.4033 59.8185 5.54654 59.9634 5.6547C60.1082 5.76144 60.2793 5.81103 60.4766 5.80346C60.6313 5.79752 60.7676 5.75676 60.8855 5.68116C61.0035 5.60556 61.0948 5.50326 61.1595 5.37427C61.2242 5.24527 61.2527 5.09989 61.2451 4.93814C61.2402 4.77343 61.1998 4.62856 61.1239 4.50354C61.0481 4.37851 60.947 4.28218 60.8207 4.21452C60.6944 4.14545 60.5511 4.11399 60.3907 4.12014C60.26 4.12374 60.1325 4.15279 60.0081 4.20732C59.8837 4.26184 59.7861 4.33098 59.7154 4.41471L58.9976 4.32497L59.1392 2.06789L61.6686 1.97086L61.6939 2.63088L59.8182 2.70284L59.7369 3.86377L59.7624 3.86279C59.8397 3.76458 59.9509 3.68142 60.0962 3.61331C60.2413 3.54377 60.4019 3.50563 60.5779 3.49887C60.8419 3.48875 61.08 3.54216 61.292 3.65912C61.504 3.77466 61.6737 3.93873 61.8013 4.15132C61.9288 4.36392 61.998 4.61003 62.0087 4.88965C62.0198 5.17779 61.9629 5.43726 61.8381 5.66807C61.7147 5.8974 61.5377 6.08117 61.307 6.21937C61.0777 6.3561 60.8091 6.43038 60.5011 6.44219ZM64.3919 6.31639C64.0413 6.32984 63.7369 6.25267 63.4789 6.08488C63.2222 5.91562 63.02 5.66538 62.8723 5.33415C62.7259 5.00145 62.6436 4.59734 62.6253 4.12184C62.6085 3.64628 62.6604 3.23917 62.781 2.90049C62.903 2.56033 63.0856 2.29746 63.3286 2.11187C63.5731 1.92623 63.8699 1.82671 64.2191 1.81331C64.5683 1.79992 64.8719 1.8764 65.1299 2.04277C65.3878 2.20914 65.59 2.45726 65.7363 2.78712C65.8839 3.11693 65.9669 3.51887 65.9851 3.99296C66.0034 4.46988 65.9516 4.87984 65.8297 5.22283C65.7092 5.56435 65.5267 5.82864 65.2823 6.0157C65.0393 6.20271 64.7425 6.30294 64.3919 6.31639ZM64.3663 5.64998C64.6388 5.63952 64.8487 5.49714 64.996 5.22283C65.1446 4.94704 65.2089 4.54727 65.1888 4.0235C65.1755 3.67717 65.1281 3.38758 65.0467 3.15473C64.9653 2.92189 64.8563 2.74838 64.7197 2.63421C64.5831 2.51863 64.4246 2.46429 64.2444 2.47121C63.9732 2.48161 63.7641 2.62467 63.6169 2.90041C63.4696 3.17472 63.4052 3.57165 63.4237 4.09121C63.4357 4.43902 63.4817 4.73009 63.5617 4.96441C63.6432 5.19867 63.7523 5.3736 63.8889 5.48918C64.0255 5.60335 64.1846 5.65695 64.3663 5.64998ZM68.3909 6.16298C68.0403 6.17643 67.736 6.09926 67.4779 5.93147C67.2212 5.76221 67.019 5.51197 66.8713 5.18074C66.7249 4.84804 66.6426 4.44394 66.6243 3.96843C66.6075 3.49288 66.6594 3.08576 66.7801 2.74708C66.902 2.40692 67.0846 2.14405 67.3276 1.95846C67.5721 1.77282 67.869 1.6733 68.2181 1.6599C68.5673 1.64651 68.8709 1.723 69.1289 1.88936C69.3869 2.05573 69.589 2.30385 69.7353 2.63371C69.883 2.96352 69.9659 3.36547 69.9841 3.83955C70.0024 4.31647 69.9506 4.72643 69.8287 5.06942C69.7082 5.41094 69.5257 5.67523 69.2813 5.86229C69.0383 6.0493 68.7415 6.14953 68.3909 6.16298ZM68.3653 5.49657C68.6378 5.48612 68.8477 5.34373 68.995 5.06942C69.1436 4.79363 69.2079 4.39386 69.1878 3.8701C69.1745 3.52376 69.1272 3.23417 69.0457 3.00132C68.9643 2.76848 68.8553 2.59497 68.7187 2.48081C68.5821 2.36522 68.4236 2.31088 68.2434 2.3178C67.9723 2.3282 67.7631 2.47127 67.6159 2.747C67.4686 3.02131 67.4043 3.41825 67.4228 3.93781C67.4347 4.28562 67.4807 4.57668 67.5607 4.811C67.6422 5.04526 67.7513 5.22019 67.8879 5.33577C68.0245 5.44994 68.1836 5.50354 68.3653 5.49657Z" fill="#AAAAAA"/>
<path d="M99.835 15.5063C99.6681 15.3808 99.526 15.2304 99.4085 15.0549C99.2919 14.8782 99.2179 14.6775 99.1866 14.4527C99.1561 14.2267 99.1835 13.9774 99.2689 13.7048C99.3552 13.431 99.5182 13.1336 99.7579 12.8127C99.9804 12.5126 100.211 12.2687 100.449 12.081C100.687 11.8933 100.926 11.7629 101.166 11.6897C101.407 11.6154 101.643 11.598 101.876 11.6376C102.109 11.6781 102.331 11.7762 102.541 11.9318C102.761 12.0951 102.924 12.2831 103.03 12.4959C103.137 12.7095 103.187 12.9305 103.18 13.159C103.174 13.3863 103.114 13.6034 103 13.8103L102.375 13.3471C102.443 13.1888 102.457 13.0329 102.417 12.8794C102.378 12.7256 102.284 12.5929 102.134 12.4812C101.89 12.301 101.625 12.2679 101.337 12.3817C101.051 12.4963 100.77 12.7375 100.496 13.1052L100.52 13.123C100.65 13.064 100.787 13.0316 100.929 13.0257C101.071 13.0198 101.213 13.0389 101.353 13.083C101.496 13.1268 101.63 13.1953 101.755 13.2883C101.961 13.4406 102.109 13.6263 102.199 13.8454C102.291 14.0653 102.32 14.297 102.289 14.5404C102.257 14.7826 102.159 15.0139 101.994 15.2345C101.824 15.4658 101.618 15.634 101.376 15.739C101.134 15.8429 100.88 15.8771 100.613 15.8417C100.346 15.8062 100.086 15.6944 99.835 15.5063ZM100.212 14.9903C100.337 15.0825 100.47 15.1348 100.613 15.1471C100.756 15.1593 100.894 15.1353 101.028 15.0749C101.161 15.0145 101.274 14.92 101.368 14.7913C101.462 14.6667 101.519 14.5328 101.538 14.3898C101.559 14.2477 101.542 14.1109 101.489 13.9797C101.436 13.8485 101.348 13.7367 101.223 13.6445C101.131 13.576 101.032 13.5298 100.926 13.506C100.819 13.4821 100.713 13.4796 100.608 13.4984C100.503 13.516 100.402 13.5532 100.307 13.61C100.214 13.6664 100.133 13.7405 100.063 13.832C99.9737 13.955 99.9189 14.0885 99.8987 14.2327C99.8785 14.3768 99.8946 14.5161 99.947 14.6505C99.9995 14.7848 100.088 14.8981 100.212 14.9903ZM102.958 17.8512C102.677 17.6422 102.488 17.3916 102.391 17.0992C102.297 16.8065 102.296 16.4848 102.388 16.134C102.482 15.7829 102.671 15.4162 102.954 15.034C103.239 14.6526 103.534 14.3676 103.84 14.1789C104.148 13.99 104.455 13.8992 104.761 13.9066C105.068 13.9149 105.362 14.0231 105.642 14.2312C105.923 14.4393 106.112 14.689 106.209 14.9802C106.306 15.2714 106.308 15.5914 106.216 15.9403C106.125 16.2899 105.938 16.6553 105.655 17.0364C105.371 17.4198 105.074 17.7071 104.764 17.8983C104.456 18.0892 104.149 18.1811 103.841 18.174C103.534 18.1678 103.24 18.0601 102.958 17.8512ZM103.356 17.3155C103.575 17.4779 103.827 17.4982 104.114 17.3765C104.403 17.2544 104.703 16.9829 105.015 16.5618C105.221 16.2834 105.366 16.0279 105.448 15.7953C105.53 15.5628 105.554 15.3592 105.519 15.1847C105.485 15.0091 105.395 14.8675 105.25 14.7601C105.032 14.5985 104.78 14.5791 104.492 14.702C104.206 14.8238 103.907 15.0931 103.596 15.5098C103.388 15.7886 103.241 16.0443 103.157 16.2772C103.074 16.5109 103.05 16.7156 103.084 16.8912C103.119 17.0658 103.21 17.2072 103.356 17.3155ZM106.173 20.2346C105.891 20.0257 105.702 19.775 105.606 19.4826C105.512 19.19 105.511 18.8682 105.603 18.5174C105.697 18.1663 105.886 17.7997 106.169 17.4174C106.454 17.036 106.749 16.751 107.055 16.5624C107.363 16.3734 107.67 16.2827 107.976 16.2901C108.283 16.2983 108.576 16.4065 108.857 16.6146C109.138 16.8227 109.327 17.0724 109.424 17.3636C109.521 17.6549 109.523 17.9749 109.431 18.3237C109.339 18.6733 109.153 19.0387 108.87 19.4198C108.586 19.8032 108.289 20.0905 107.979 20.2817C107.671 20.4727 107.364 20.5646 107.056 20.5575C106.749 20.5512 106.455 20.4436 106.173 20.2346ZM106.57 19.6989C106.789 19.8613 107.042 19.8817 107.329 19.7599C107.617 19.6379 107.918 19.3663 108.23 18.9453C108.436 18.6668 108.581 18.4113 108.663 18.1788C108.745 17.9462 108.769 17.7427 108.734 17.5682C108.699 17.3925 108.61 17.2509 108.465 17.1435C108.247 16.9819 107.994 16.9626 107.707 17.0855C107.42 17.2072 107.122 17.4765 106.811 17.8933C106.603 18.172 106.456 18.4278 106.372 18.6606C106.289 18.8943 106.264 19.099 106.299 19.2747C106.334 19.4492 106.424 19.5906 106.57 19.6989Z" fill="#AAAAAA"/>
<path d="M118.577 42.8503L122.654 43.4112L122.682 43.4015L121.982 41.3643L122.607 41.1496L123.573 43.9605L122.934 44.18L118.844 43.626L118.577 42.8503ZM120.085 47.493C119.971 47.1613 119.957 46.8476 120.043 46.5521C120.131 46.2575 120.313 45.9917 120.587 45.7546C120.863 45.5185 121.227 45.323 121.677 45.1683C122.127 45.015 122.532 44.9472 122.891 44.9649C123.252 44.9836 123.556 45.0825 123.804 45.2616C124.052 45.4421 124.233 45.6976 124.347 46.0281C124.46 46.3585 124.475 46.6712 124.39 46.9663C124.305 47.2613 124.126 47.5264 123.852 47.7617C123.579 47.9983 123.218 48.1937 122.77 48.3479C122.318 48.5031 121.911 48.5718 121.547 48.5541C121.185 48.5373 120.88 48.4388 120.63 48.2588C120.381 48.0801 120.199 47.8248 120.085 47.493ZM120.716 47.2762C120.805 47.5342 121.001 47.694 121.307 47.7559C121.614 47.8186 122.015 47.7647 122.511 47.5943C122.838 47.4817 123.102 47.3527 123.301 47.2076C123.501 47.0624 123.635 46.908 123.705 46.7443C123.777 46.5801 123.783 46.4127 123.724 46.2421C123.636 45.9855 123.439 45.8265 123.132 45.7652C122.827 45.7034 122.428 45.7563 121.936 45.9239C121.607 46.0357 121.341 46.1638 121.14 46.308C120.939 46.4537 120.803 46.6086 120.732 46.7728C120.662 46.9365 120.657 47.1043 120.716 47.2762ZM121.386 51.2776C121.272 50.9458 121.258 50.6322 121.344 50.3367C121.432 50.0421 121.614 49.7763 121.888 49.5392C122.164 49.303 122.528 49.1076 122.978 48.9529C123.428 48.7996 123.833 48.7318 124.192 48.7495C124.553 48.7681 124.857 48.867 125.105 49.0462C125.353 49.2267 125.534 49.4822 125.648 49.8126C125.761 50.1431 125.776 50.4558 125.691 50.7508C125.606 51.0459 125.427 51.311 125.153 51.5463C124.88 51.7829 124.519 51.9783 124.071 52.1325C123.619 52.2877 123.212 52.3564 122.848 52.3387C122.486 52.3218 122.181 52.2234 121.931 52.0434C121.682 51.8647 121.5 51.6094 121.386 51.2776ZM122.017 51.0608C122.106 51.3187 122.302 51.4786 122.608 51.5404C122.915 51.6031 123.316 51.5493 123.812 51.3789C124.139 51.2662 124.403 51.1373 124.602 50.9922C124.802 50.847 124.936 50.6925 125.006 50.5288C125.078 50.3647 125.084 50.1973 125.025 50.0267C124.937 49.7701 124.74 49.6111 124.433 49.5498C124.128 49.4879 123.729 49.5408 123.237 49.7085C122.908 49.8203 122.642 49.9483 122.441 50.0926C122.24 50.2383 122.104 50.3932 122.033 50.5573C121.963 50.721 121.958 50.8889 122.017 51.0608Z" fill="#AAAAAA"/>
<path d="M122.969 78.0389C123.048 77.732 123.169 77.4726 123.333 77.2609C123.496 77.0505 123.685 76.9007 123.898 76.8114C124.113 76.7239 124.334 76.71 124.562 76.7697C124.74 76.8136 124.893 76.8938 125.022 77.0102C125.15 77.1266 125.247 77.2641 125.312 77.4229C125.378 77.5835 125.404 77.7498 125.389 77.922L125.418 77.9294C125.522 77.7242 125.678 77.5763 125.886 77.4857C126.094 77.3968 126.313 77.3821 126.541 77.4418C126.759 77.4959 126.937 77.606 127.077 77.7721C127.216 77.9381 127.308 78.1403 127.351 78.3785C127.396 78.6172 127.383 78.8734 127.313 79.1473C127.244 79.4184 127.133 79.6474 126.979 79.834C126.827 80.0224 126.65 80.1561 126.448 80.235C126.246 80.3154 126.036 80.3278 125.819 80.2723C125.59 80.214 125.406 80.0944 125.266 79.9136C125.127 79.7344 125.061 79.532 125.067 79.3064L125.038 79.299C124.968 79.4572 124.866 79.5895 124.732 79.696C124.599 79.8042 124.448 79.8786 124.279 79.9191C124.11 79.961 123.937 79.9593 123.76 79.914C123.531 79.8557 123.344 79.7361 123.198 79.5552C123.054 79.3747 122.96 79.1529 122.917 78.8898C122.874 78.6281 122.891 78.3445 122.969 78.0389ZM123.56 78.1896C123.519 78.3479 123.511 78.4923 123.535 78.623C123.56 78.7541 123.614 78.8646 123.697 78.9546C123.779 79.0445 123.885 79.1067 124.014 79.1411C124.149 79.1741 124.277 79.1694 124.398 79.1269C124.52 79.0862 124.625 79.0142 124.715 78.9109C124.804 78.809 124.868 78.6831 124.906 78.5331C124.944 78.3817 124.949 78.2392 124.92 78.1058C124.891 77.9723 124.833 77.8578 124.746 77.7623C124.66 77.6685 124.55 77.6051 124.414 77.5721C124.285 77.5377 124.163 77.5402 124.047 77.5796C123.933 77.6193 123.834 77.6907 123.749 77.7936C123.663 77.8979 123.6 78.0299 123.56 78.1896ZM125.486 78.6811C125.453 78.8105 125.45 78.9314 125.477 79.0438C125.504 79.1576 125.556 79.2554 125.635 79.3371C125.714 79.4188 125.815 79.4759 125.937 79.5086C126.058 79.5381 126.172 79.5362 126.277 79.503C126.383 79.4701 126.474 79.4097 126.549 79.3219C126.626 79.2344 126.681 79.1253 126.714 78.9945C126.748 78.861 126.753 78.7369 126.728 78.622C126.704 78.5089 126.653 78.4124 126.575 78.3324C126.499 78.2542 126.4 78.2003 126.278 78.1707C126.156 78.1381 126.041 78.1381 125.933 78.1706C125.826 78.2049 125.733 78.2654 125.653 78.3522C125.575 78.4407 125.519 78.5503 125.486 78.6811ZM121.974 81.8458C122.06 81.5058 122.221 81.236 122.455 81.0363C122.69 80.8383 122.988 80.7155 123.347 80.668C123.708 80.6222 124.119 80.6582 124.58 80.7758C125.041 80.8948 125.416 81.0603 125.707 81.2722C125.998 81.4859 126.198 81.7356 126.307 82.0214C126.416 82.3085 126.427 82.6214 126.34 82.96C126.254 83.2986 126.094 83.5679 125.861 83.7679C125.629 83.968 125.333 84.0913 124.975 84.1378C124.617 84.1857 124.208 84.1509 123.749 84.0336C123.286 83.9156 122.908 83.7495 122.614 83.5351C122.32 83.3225 122.119 83.0725 122.009 82.7849C121.899 82.4988 121.887 82.1858 121.974 81.8458ZM122.62 82.0107C122.552 82.2749 122.629 82.5166 122.85 82.7358C123.073 82.9567 123.438 83.1319 123.946 83.2615C124.281 83.3472 124.572 83.3841 124.819 83.3722C125.065 83.3603 125.263 83.3051 125.411 83.2066C125.561 83.1085 125.658 82.972 125.702 82.7972C125.769 82.5343 125.692 82.2931 125.469 82.0736C125.248 81.8545 124.886 81.6799 124.382 81.55C124.045 81.4626 123.753 81.424 123.506 81.4341C123.258 81.4457 123.059 81.5005 122.91 81.5987C122.761 81.6972 122.665 81.8345 122.62 82.0107ZM120.984 85.7235C121.071 85.3835 121.231 85.1137 121.466 84.914C121.701 84.716 121.998 84.5932 122.358 84.5457C122.718 84.4999 123.129 84.5359 123.59 84.6535C124.051 84.7725 124.427 84.938 124.717 85.1499C125.009 85.3636 125.209 85.6133 125.318 85.8991C125.426 86.1862 125.437 86.4991 125.351 86.8377C125.264 87.1763 125.105 87.4456 124.872 87.6457C124.639 87.8457 124.344 87.969 123.986 88.0155C123.628 88.0634 123.219 88.0286 122.759 87.9113C122.297 87.7933 121.918 87.6272 121.624 87.4128C121.331 87.2002 121.129 86.9502 121.019 86.6626C120.909 86.3765 120.897 86.0635 120.984 85.7235ZM121.63 85.8884C121.563 86.1526 121.64 86.3944 121.861 86.6135C122.083 86.8344 122.448 87.0096 122.956 87.1392C123.292 87.2249 123.583 87.2618 123.829 87.2499C124.076 87.238 124.273 87.1828 124.421 87.0843C124.571 86.9862 124.668 86.8497 124.713 86.6749C124.78 86.412 124.702 86.1708 124.48 85.9513C124.258 85.7322 123.896 85.5576 123.393 85.4277C123.056 85.3403 122.764 85.3017 122.516 85.3118C122.269 85.3234 122.07 85.3782 121.92 85.4764C121.772 85.5749 121.675 85.7122 121.63 85.8884Z" fill="#AAAAAA"/>
<path d="M30.861 19.9138L34.4989 24.498" stroke="white"/>
<path d="M64.4098 7.45622L64.5879 13.3059" stroke="white"/>
<path d="M100.431 18.4559L96.6872 22.9541" stroke="white"/>
<path d="M11.5853 49.1861L17.1736 50.9243" stroke="white"/>
<defs>
<filter id="filter0_d_249_1562" x="23.6798" y="22.4559" width="85" height="85" filterUnits="userSpaceOnUse" color-interpolation-filters="sRGB">
<feFlood flood-opacity="0" result="BackgroundImageFix"/>
<feColorMatrix in="SourceAlpha" type="matrix" values="0 0 0 0 0 0 0 0 0 0 0 0 0 0 0 0 0 0 127 0" result="hardAlpha"/>
<feOffset dy="-4"/>
<feGaussianBlur stdDeviation="2"/>
<feComposite in2="hardAlpha" operator="out"/>
<feColorMatrix type="matrix" values="0 0 0 0 0 0 0 0 0 0 0 0 0 0 0 0 0 0 0.07 0"/>
<feBlend mode="normal" in2="BackgroundImageFix" result="effect1_dropShadow_249_1562"/>
<feBlend mode="normal" in="SourceGraphic" in2="effect1_dropShadow_249_1562" result="shape"/>
</filter>
<linearGradient id="paint0_linear_249_1562" x1="107.18" y1="25.9559" x2="6.6798" y2="93.9559" gradientUnits="userSpaceOnUse">
<stop stop-color="#00FFC2"/>
<stop offset="1" stop-color="#0099FF"/>
</linearGradient>
</defs>
</svg>
