<svg width="176" height="140" viewBox="0 0 176 140" fill="none" xmlns="http://www.w3.org/2000/svg">
<g clip-path="url(#clip0_76_14948)">
<g opacity="0.4">
<path d="M175.658 50.2113H174.472V49.9148H175.658V50.2113ZM173.286 50.2113H172.1V49.9148H173.286V50.2113ZM170.914 50.2113H169.728V49.9148H170.914V50.2113ZM168.542 50.2113H167.357V49.9148H168.542V50.2113ZM166.171 50.2113H164.985V49.9148H166.171V50.2113ZM163.799 50.2113H162.613V49.9148H163.799V50.2113ZM161.427 50.2113H160.241V49.9148H161.427V50.2113ZM159.055 50.2113H157.869V49.9148H159.055V50.2113ZM156.683 50.2113H155.498V49.9148H156.683V50.2113ZM154.312 50.2113H153.126V49.9148H154.312V50.2113ZM151.94 50.2113H150.754V49.9148H151.94V50.2113ZM149.568 50.2113H148.382V49.9148H149.568V50.2113ZM147.196 50.2113H146.01V49.9148H147.196V50.2113ZM144.824 50.2113H143.638V49.9148H144.824V50.2113ZM142.453 50.2113H141.267V49.9148H142.453V50.2113ZM140.081 50.2113H138.895V49.9148H140.081V50.2113ZM137.709 50.2113H136.523V49.9148H137.709V50.2113ZM135.337 50.2113H134.151V49.9148H135.337V50.2113ZM132.965 50.2113H131.779V49.9148H132.965V50.2113ZM130.594 50.2113H129.408V49.9148H130.594V50.2113ZM128.222 50.2113H127.036V49.9148H128.222V50.2113ZM125.85 50.2113H124.664V49.9148H125.85V50.2113ZM123.478 50.2113H122.292V49.9148H123.478V50.2113ZM121.106 50.2113H119.92V49.9148H121.106V50.2113ZM118.734 50.2113H117.549V49.9148H118.734V50.2113ZM116.363 50.2113H115.177V49.9148H116.363V50.2113ZM113.991 50.2113H112.805V49.9148H113.991V50.2113ZM111.619 50.2113H110.433V49.9148H111.619V50.2113ZM109.247 50.2113H108.061V49.9148H109.247V50.2113ZM106.875 50.2113H105.69V49.9148H106.875V50.2113ZM104.504 50.2113H103.318V49.9148H104.504V50.2113ZM102.132 50.2113H100.946V49.9148H102.132V50.2113ZM99.76 50.2113H98.5741V49.9148H99.76V50.2113ZM97.3882 50.2113H96.2023V49.9148H97.3882V50.2113ZM95.0164 50.2113H93.8305V49.9148H95.0164V50.2113ZM92.6446 50.2113H91.4587V49.9148H92.6446V50.2113ZM90.2728 50.2113H89.0869V49.9148H90.2728V50.2113ZM87.901 50.2113H86.7151V49.9148H87.901V50.2113ZM85.5292 50.2113H84.3433V49.9148H85.5292V50.2113ZM83.1573 50.2113H81.9714V49.9148H83.1573V50.2113ZM80.7855 50.2113H79.5996V49.9148H80.7855V50.2113ZM78.4137 50.2113H77.2278V49.9148H78.4137V50.2113ZM76.0419 50.2113H74.856V49.9148H76.0419V50.2113ZM73.6701 50.2113H72.4842V49.9148H73.6701V50.2113ZM71.2983 50.2113H70.1124V49.9148H71.2983V50.2113ZM68.9265 50.2113H67.7406V49.9148H68.9265V50.2113ZM66.5547 50.2113H65.3688V49.9148H66.5547V50.2113ZM64.1829 50.2113H62.997V49.9148H64.1829V50.2113ZM61.8111 50.2113H60.6252V49.9148H61.8111V50.2113ZM59.4393 50.2113H58.2534V49.9148H59.4393V50.2113ZM57.0674 50.2113H55.8815V49.9148H57.0674V50.2113ZM54.6956 50.2113H53.5097V49.9148H54.6956V50.2113ZM52.3238 50.2113H51.1379V49.9148H52.3238V50.2113ZM49.952 50.2113H48.7661V49.9148H49.952V50.2113Z" fill="#CAA9FF"/>
<path d="M175.658 36.775H174.472V36.4785H175.658V36.775ZM173.286 36.775H172.1V36.4785H173.286V36.775ZM170.914 36.775H169.728V36.4785H170.914V36.775ZM168.542 36.775H167.357V36.4785H168.542V36.775ZM166.171 36.775H164.985V36.4785H166.171V36.775ZM163.799 36.775H162.613V36.4785H163.799V36.775ZM161.427 36.775H160.241V36.4785H161.427V36.775ZM159.055 36.775H157.869V36.4785H159.055V36.775ZM156.683 36.775H155.498V36.4785H156.683V36.775ZM154.312 36.775H153.126V36.4785H154.312V36.775ZM151.94 36.775H150.754V36.4785H151.94V36.775ZM149.568 36.775H148.382V36.4785H149.568V36.775ZM147.196 36.775H146.01V36.4785H147.196V36.775ZM144.824 36.775H143.638V36.4785H144.824V36.775ZM142.453 36.775H141.267V36.4785H142.453V36.775ZM140.081 36.775H138.895V36.4785H140.081V36.775ZM137.709 36.775H136.523V36.4785H137.709V36.775ZM135.337 36.775H134.151V36.4785H135.337V36.775ZM132.965 36.775H131.779V36.4785H132.965V36.775ZM130.594 36.775H129.408V36.4785H130.594V36.775ZM128.222 36.775H127.036V36.4785H128.222V36.775ZM125.85 36.775H124.664V36.4785H125.85V36.775ZM123.478 36.775H122.292V36.4785H123.478V36.775ZM121.106 36.775H119.92V36.4785H121.106V36.775ZM118.734 36.775H117.549V36.4785H118.734V36.775ZM116.363 36.775H115.177V36.4785H116.363V36.775ZM113.991 36.775H112.805V36.4785H113.991V36.775ZM111.619 36.775H110.433V36.4785H111.619V36.775ZM109.247 36.775H108.061V36.4785H109.247V36.775ZM106.875 36.775H105.69V36.4785H106.875V36.775ZM104.504 36.775H103.318V36.4785H104.504V36.775ZM102.132 36.775H100.946V36.4785H102.132V36.775ZM99.76 36.775H98.5741V36.4785H99.76V36.775ZM97.3882 36.775H96.2023V36.4785H97.3882V36.775ZM95.0164 36.775H93.8305V36.4785H95.0164V36.775ZM92.6446 36.775H91.4587V36.4785H92.6446V36.775ZM90.2728 36.775H89.0869V36.4785H90.2728V36.775ZM87.901 36.775H86.7151V36.4785H87.901V36.775ZM85.5292 36.775H84.3433V36.4785H85.5292V36.775ZM83.1573 36.775H81.9714V36.4785H83.1573V36.775ZM80.7855 36.775H79.5996V36.4785H80.7855V36.775ZM78.4137 36.775H77.2278V36.4785H78.4137V36.775ZM76.0419 36.775H74.856V36.4785H76.0419V36.775ZM73.6701 36.775H72.4842V36.4785H73.6701V36.775ZM71.2983 36.775H70.1124V36.4785H71.2983V36.775ZM68.9265 36.775H67.7406V36.4785H68.9265V36.775ZM66.5547 36.775H65.3688V36.4785H66.5547V36.775ZM64.1829 36.775H62.997V36.4785H64.1829V36.775ZM61.8111 36.775H60.6252V36.4785H61.8111V36.775ZM59.4393 36.775H58.2534V36.4785H59.4393V36.775ZM57.0674 36.775H55.8815V36.4785H57.0674V36.775ZM54.6956 36.775H53.5097V36.4785H54.6956V36.775ZM52.3238 36.775H51.1379V36.4785H52.3238V36.775ZM49.952 36.775H48.7661V36.4785H49.952V36.775Z" fill="#CAA9FF"/>
<path d="M175.658 63.6515H174.472V63.355H175.658V63.6515ZM173.286 63.6515H172.1V63.355H173.286V63.6515ZM170.914 63.6515H169.728V63.355H170.914V63.6515ZM168.542 63.6515H167.357V63.355H168.542V63.6515ZM166.171 63.6515H164.985V63.355H166.171V63.6515ZM163.799 63.6515H162.613V63.355H163.799V63.6515ZM161.427 63.6515H160.241V63.355H161.427V63.6515ZM159.055 63.6515H157.869V63.355H159.055V63.6515ZM156.683 63.6515H155.498V63.355H156.683V63.6515ZM154.312 63.6515H153.126V63.355H154.312V63.6515ZM151.94 63.6515H150.754V63.355H151.94V63.6515ZM149.568 63.6515H148.382V63.355H149.568V63.6515ZM147.196 63.6515H146.01V63.355H147.196V63.6515ZM144.824 63.6515H143.638V63.355H144.824V63.6515ZM142.453 63.6515H141.267V63.355H142.453V63.6515ZM140.081 63.6515H138.895V63.355H140.081V63.6515ZM137.709 63.6515H136.523V63.355H137.709V63.6515ZM135.337 63.6515H134.151V63.355H135.337V63.6515ZM132.965 63.6515H131.779V63.355H132.965V63.6515ZM130.594 63.6515H129.408V63.355H130.594V63.6515ZM128.222 63.6515H127.036V63.355H128.222V63.6515ZM125.85 63.6515H124.664V63.355H125.85V63.6515ZM123.478 63.6515H122.292V63.355H123.478V63.6515ZM121.106 63.6515H119.92V63.355H121.106V63.6515ZM118.734 63.6515H117.549V63.355H118.734V63.6515ZM116.363 63.6515H115.177V63.355H116.363V63.6515ZM113.991 63.6515H112.805V63.355H113.991V63.6515ZM111.619 63.6515H110.433V63.355H111.619V63.6515ZM109.247 63.6515H108.061V63.355H109.247V63.6515ZM106.875 63.6515H105.69V63.355H106.875V63.6515ZM104.504 63.6515H103.318V63.355H104.504V63.6515ZM102.132 63.6515H100.946V63.355H102.132V63.6515ZM99.76 63.6515H98.5741V63.355H99.76V63.6515ZM97.3882 63.6515H96.2023V63.355H97.3882V63.6515ZM95.0164 63.6515H93.8305V63.355H95.0164V63.6515ZM92.6446 63.6515H91.4587V63.355H92.6446V63.6515ZM90.2728 63.6515H89.0869V63.355H90.2728V63.6515ZM87.901 63.6515H86.7151V63.355H87.901V63.6515ZM85.5292 63.6515H84.3433V63.355H85.5292V63.6515ZM83.1573 63.6515H81.9714V63.355H83.1573V63.6515ZM80.7855 63.6515H79.5996V63.355H80.7855V63.6515ZM78.4137 63.6515H77.2278V63.355H78.4137V63.6515ZM76.0419 63.6515H74.856V63.355H76.0419V63.6515ZM73.6701 63.6515H72.4842V63.355H73.6701V63.6515ZM71.2983 63.6515H70.1124V63.355H71.2983V63.6515ZM68.9265 63.6515H67.7406V63.355H68.9265V63.6515ZM66.5547 63.6515H65.3688V63.355H66.5547V63.6515ZM64.1829 63.6515H62.997V63.355H64.1829V63.6515ZM61.8111 63.6515H60.6252V63.355H61.8111V63.6515ZM59.4393 63.6515H58.2534V63.355H59.4393V63.6515ZM57.0674 63.6515H55.8815V63.355H57.0674V63.6515ZM54.6956 63.6515H53.5097V63.355H54.6956V63.6515ZM52.3238 63.6515H51.1379V63.355H52.3238V63.6515ZM49.952 63.6515H48.7661V63.355H49.952V63.6515Z" fill="#CAA9FF"/>
<path d="M175.658 77.0916H174.472V76.7952H175.658V77.0916ZM173.286 77.0916H172.1V76.7952H173.286V77.0916ZM170.914 77.0916H169.728V76.7952H170.914V77.0916ZM168.542 77.0916H167.357V76.7952H168.542V77.0916ZM166.171 77.0916H164.985V76.7952H166.171V77.0916ZM163.799 77.0916H162.613V76.7952H163.799V77.0916ZM161.427 77.0916H160.241V76.7952H161.427V77.0916ZM159.055 77.0916H157.869V76.7952H159.055V77.0916ZM156.683 77.0916H155.498V76.7952H156.683V77.0916ZM154.312 77.0916H153.126V76.7952H154.312V77.0916ZM151.94 77.0916H150.754V76.7952H151.94V77.0916ZM149.568 77.0916H148.382V76.7952H149.568V77.0916ZM147.196 77.0916H146.01V76.7952H147.196V77.0916ZM144.824 77.0916H143.638V76.7952H144.824V77.0916ZM142.453 77.0916H141.267V76.7952H142.453V77.0916ZM140.081 77.0916H138.895V76.7952H140.081V77.0916ZM137.709 77.0916H136.523V76.7952H137.709V77.0916ZM135.337 77.0916H134.151V76.7952H135.337V77.0916ZM132.965 77.0916H131.779V76.7952H132.965V77.0916ZM130.594 77.0916H129.408V76.7952H130.594V77.0916ZM128.222 77.0916H127.036V76.7952H128.222V77.0916ZM125.85 77.0916H124.664V76.7952H125.85V77.0916ZM123.478 77.0916H122.292V76.7952H123.478V77.0916ZM121.106 77.0916H119.92V76.7952H121.106V77.0916ZM118.734 77.0916H117.549V76.7952H118.734V77.0916ZM116.363 77.0916H115.177V76.7952H116.363V77.0916ZM113.991 77.0916H112.805V76.7952H113.991V77.0916ZM111.619 77.0916H110.433V76.7952H111.619V77.0916ZM109.247 77.0916H108.061V76.7952H109.247V77.0916ZM106.875 77.0916H105.69V76.7952H106.875V77.0916ZM104.504 77.0916H103.318V76.7952H104.504V77.0916ZM102.132 77.0916H100.946V76.7952H102.132V77.0916ZM99.76 77.0916H98.5741V76.7952H99.76V77.0916ZM97.3882 77.0916H96.2023V76.7952H97.3882V77.0916ZM95.0164 77.0916H93.8305V76.7952H95.0164V77.0916ZM92.6446 77.0916H91.4587V76.7952H92.6446V77.0916ZM90.2728 77.0916H89.0869V76.7952H90.2728V77.0916ZM87.901 77.0916H86.7151V76.7952H87.901V77.0916ZM85.5292 77.0916H84.3433V76.7952H85.5292V77.0916ZM83.1573 77.0916H81.9714V76.7952H83.1573V77.0916ZM80.7855 77.0916H79.5996V76.7952H80.7855V77.0916ZM78.4137 77.0916H77.2278V76.7952H78.4137V77.0916ZM76.0419 77.0916H74.856V76.7952H76.0419V77.0916ZM73.6701 77.0916H72.4842V76.7952H73.6701V77.0916ZM71.2983 77.0916H70.1124V76.7952H71.2983V77.0916ZM68.9265 77.0916H67.7406V76.7952H68.9265V77.0916ZM66.5547 77.0916H65.3688V76.7952H66.5547V77.0916ZM64.1829 77.0916H62.997V76.7952H64.1829V77.0916ZM61.8111 77.0916H60.6252V76.7952H61.8111V77.0916ZM59.4393 77.0916H58.2534V76.7952H59.4393V77.0916ZM57.0674 77.0916H55.8815V76.7952H57.0674V77.0916ZM54.6956 77.0916H53.5097V76.7952H54.6956V77.0916ZM52.3238 77.0916H51.1379V76.7952H52.3238V77.0916ZM49.952 77.0916H48.7661V76.7952H49.952V77.0916Z" fill="#CAA9FF"/>
<path d="M175.33 104.411H174.144V104.115H175.33V104.411ZM172.958 104.411H171.772V104.115H172.958V104.411ZM170.586 104.411H169.401V104.115H170.586V104.411ZM168.215 104.411H167.029V104.115H168.215V104.411ZM165.843 104.411H164.657V104.115H165.843V104.411ZM163.471 104.411H162.285V104.115H163.471V104.411ZM161.099 104.411H159.913V104.115H161.099V104.411ZM158.727 104.411H157.541V104.115H158.727V104.411ZM156.356 104.411H155.17V104.115H156.356V104.411ZM153.984 104.411H152.798V104.115H153.984V104.411ZM151.612 104.411H150.426V104.115H151.612V104.411ZM149.24 104.411H148.054V104.115H149.24V104.411ZM146.868 104.411H145.682V104.115H146.868V104.411ZM144.497 104.411H143.311V104.115H144.497V104.411ZM142.125 104.411H140.939V104.115H142.125V104.411ZM139.753 104.411H138.567V104.115H139.753V104.411ZM137.381 104.411H136.195V104.115H137.381V104.411ZM135.009 104.411H133.823V104.115H135.009V104.411ZM132.637 104.411H131.452V104.115H132.637V104.411ZM130.266 104.411H129.08V104.115H130.266V104.411ZM127.894 104.411H126.708V104.115H127.894V104.411ZM125.522 104.411H124.336V104.115H125.522V104.411ZM123.15 104.411H121.964V104.115H123.15V104.411ZM120.778 104.411H119.593V104.115H120.778V104.411ZM118.407 104.411H117.221V104.115H118.407V104.411ZM116.035 104.411H114.849V104.115H116.035V104.411ZM113.663 104.411H112.477V104.115H113.663V104.411ZM111.291 104.411H110.105V104.115H111.291V104.411ZM108.919 104.411H107.733V104.115H108.919V104.411ZM106.548 104.411H105.362V104.115H106.548V104.411ZM104.176 104.411H102.99V104.115H104.176V104.411ZM101.804 104.411H100.618V104.115H101.804V104.411ZM99.4321 104.411H98.2462V104.115H99.4321V104.411ZM97.0603 104.411H95.8744V104.115H97.0603V104.411ZM94.6885 104.411H93.5026V104.115H94.6885V104.411ZM92.3167 104.411H91.1308V104.115H92.3167V104.411ZM89.9449 104.411H88.759V104.115H89.9449V104.411ZM87.5731 104.411H86.3872V104.115H87.5731V104.411ZM85.2013 104.411H84.0154V104.115H85.2013V104.411ZM82.8295 104.411H81.6436V104.115H82.8295V104.411ZM80.4577 104.411H79.2718V104.115H80.4577V104.411ZM78.0858 104.411H76.8999V104.115H78.0858V104.411ZM75.714 104.411H74.5281V104.115H75.714V104.411ZM73.3422 104.411H72.1563V104.115H73.3422V104.411ZM70.9704 104.411H69.7845V104.115H70.9704V104.411ZM68.5986 104.411H67.4127V104.115H68.5986V104.411ZM66.2268 104.411H65.0409V104.115H66.2268V104.411ZM63.855 104.411H62.6691V104.115H63.855V104.411ZM61.4832 104.411H60.2973V104.115H61.4832V104.411ZM59.1114 104.411H57.9255V104.115H59.1114V104.411ZM56.7396 104.411H55.5537V104.115H56.7396V104.411ZM54.3678 104.411H53.1819V104.115H54.3678V104.411ZM51.9959 104.411H50.81V104.115H51.9959V104.411ZM49.6241 104.411H48.4382V104.115H49.6241V104.411Z" fill="#CAA9FF"/>
<path d="M175.658 90.536H174.472V90.2395H175.658V90.536ZM173.286 90.536H172.1V90.2395H173.286V90.536ZM170.914 90.536H169.728V90.2395H170.914V90.536ZM168.542 90.536H167.357V90.2395H168.542V90.536ZM166.171 90.536H164.985V90.2395H166.171V90.536ZM163.799 90.536H162.613V90.2395H163.799V90.536ZM161.427 90.536H160.241V90.2395H161.427V90.536ZM159.055 90.536H157.869V90.2395H159.055V90.536ZM156.683 90.536H155.498V90.2395H156.683V90.536ZM154.312 90.536H153.126V90.2395H154.312V90.536ZM151.94 90.536H150.754V90.2395H151.94V90.536ZM149.568 90.536H148.382V90.2395H149.568V90.536ZM147.196 90.536H146.01V90.2395H147.196V90.536ZM144.824 90.536H143.638V90.2395H144.824V90.536ZM142.453 90.536H141.267V90.2395H142.453V90.536ZM140.081 90.536H138.895V90.2395H140.081V90.536ZM137.709 90.536H136.523V90.2395H137.709V90.536ZM135.337 90.536H134.151V90.2395H135.337V90.536ZM132.965 90.536H131.779V90.2395H132.965V90.536ZM130.594 90.536H129.408V90.2395H130.594V90.536ZM128.222 90.536H127.036V90.2395H128.222V90.536ZM125.85 90.536H124.664V90.2395H125.85V90.536ZM123.478 90.536H122.292V90.2395H123.478V90.536ZM121.106 90.536H119.92V90.2395H121.106V90.536ZM118.734 90.536H117.549V90.2395H118.734V90.536ZM116.363 90.536H115.177V90.2395H116.363V90.536ZM113.991 90.536H112.805V90.2395H113.991V90.536ZM111.619 90.536H110.433V90.2395H111.619V90.536ZM109.247 90.536H108.061V90.2395H109.247V90.536ZM106.875 90.536H105.69V90.2395H106.875V90.536ZM104.504 90.536H103.318V90.2395H104.504V90.536ZM102.132 90.536H100.946V90.2395H102.132V90.536ZM99.76 90.536H98.5741V90.2395H99.76V90.536ZM97.3882 90.536H96.2023V90.2395H97.3882V90.536ZM95.0164 90.536H93.8305V90.2395H95.0164V90.536ZM92.6446 90.536H91.4587V90.2395H92.6446V90.536ZM90.2728 90.536H89.0869V90.2395H90.2728V90.536ZM87.901 90.536H86.7151V90.2395H87.901V90.536ZM85.5292 90.536H84.3433V90.2395H85.5292V90.536ZM83.1573 90.536H81.9714V90.2395H83.1573V90.536ZM80.7855 90.536H79.5996V90.2395H80.7855V90.536ZM78.4137 90.536H77.2278V90.2395H78.4137V90.536ZM76.0419 90.536H74.856V90.2395H76.0419V90.536ZM73.6701 90.536H72.4842V90.2395H73.6701V90.536ZM71.2983 90.536H70.1124V90.2395H71.2983V90.536ZM68.9265 90.536H67.7406V90.2395H68.9265V90.536ZM66.5547 90.536H65.3688V90.2395H66.5547V90.536ZM64.1829 90.536H62.997V90.2395H64.1829V90.536ZM61.8111 90.536H60.6252V90.2395H61.8111V90.536ZM59.4393 90.536H58.2534V90.2395H59.4393V90.536ZM57.0674 90.536H55.8815V90.2395H57.0674V90.536ZM54.6956 90.536H53.5097V90.2395H54.6956V90.536ZM52.3238 90.536H51.1379V90.2395H52.3238V90.536ZM49.952 90.536H48.7661V90.2395H49.952V90.536Z" fill="#CAA9FF"/>
<path d="M175.658 117.409H174.472V117.112H175.658V117.409ZM173.286 117.409H172.1V117.112H173.286V117.409ZM170.914 117.409H169.728V117.112H170.914V117.409ZM168.542 117.409H167.357V117.112H168.542V117.409ZM166.171 117.409H164.985V117.112H166.171V117.409ZM163.799 117.409H162.613V117.112H163.799V117.409ZM161.427 117.409H160.241V117.112H161.427V117.409ZM159.055 117.409H157.869V117.112H159.055V117.409ZM156.683 117.409H155.498V117.112H156.683V117.409ZM154.312 117.409H153.126V117.112H154.312V117.409ZM151.94 117.409H150.754V117.112H151.94V117.409ZM149.568 117.409H148.382V117.112H149.568V117.409ZM147.196 117.409H146.01V117.112H147.196V117.409ZM144.824 117.409H143.638V117.112H144.824V117.409ZM142.453 117.409H141.267V117.112H142.453V117.409ZM140.081 117.409H138.895V117.112H140.081V117.409ZM137.709 117.409H136.523V117.112H137.709V117.409ZM135.337 117.409H134.151V117.112H135.337V117.409ZM132.965 117.409H131.779V117.112H132.965V117.409ZM130.594 117.409H129.408V117.112H130.594V117.409ZM128.222 117.409H127.036V117.112H128.222V117.409ZM125.85 117.409H124.664V117.112H125.85V117.409ZM123.478 117.409H122.292V117.112H123.478V117.409ZM121.106 117.409H119.92V117.112H121.106V117.409ZM118.734 117.409H117.549V117.112H118.734V117.409ZM116.363 117.409H115.177V117.112H116.363V117.409ZM113.991 117.409H112.805V117.112H113.991V117.409ZM111.619 117.409H110.433V117.112H111.619V117.409ZM109.247 117.409H108.061V117.112H109.247V117.409ZM106.875 117.409H105.69V117.112H106.875V117.409ZM104.504 117.409H103.318V117.112H104.504V117.409ZM102.132 117.409H100.946V117.112H102.132V117.409ZM99.76 117.409H98.5741V117.112H99.76V117.409ZM97.3882 117.409H96.2023V117.112H97.3882V117.409ZM95.0164 117.409H93.8305V117.112H95.0164V117.409ZM92.6446 117.409H91.4587V117.112H92.6446V117.409ZM90.2728 117.409H89.0869V117.112H90.2728V117.409ZM87.901 117.409H86.7151V117.112H87.901V117.409ZM85.5292 117.409H84.3433V117.112H85.5292V117.409ZM83.1573 117.409H81.9714V117.112H83.1573V117.409ZM80.7855 117.409H79.5996V117.112H80.7855V117.409ZM78.4137 117.409H77.2278V117.112H78.4137V117.409ZM76.0419 117.409H74.856V117.112H76.0419V117.409ZM73.6701 117.409H72.4842V117.112H73.6701V117.409ZM71.2983 117.409H70.1124V117.112H71.2983V117.409ZM68.9265 117.409H67.7406V117.112H68.9265V117.409ZM66.5547 117.409H65.3688V117.112H66.5547V117.409ZM64.1829 117.409H62.997V117.112H64.1829V117.409ZM61.8111 117.409H60.6252V117.112H61.8111V117.409ZM59.4393 117.409H58.2534V117.112H59.4393V117.409ZM57.0674 117.409H55.8815V117.112H57.0674V117.409ZM54.6956 117.409H53.5097V117.112H54.6956V117.409ZM52.3238 117.409H51.1379V117.112H52.3238V117.409ZM49.952 117.409H48.7661V117.112H49.952V117.409Z" fill="#CAA9FF"/>
<path d="M175.658 130.845H174.472V130.548H175.658V130.845ZM173.286 130.845H172.1V130.548H173.286V130.845ZM170.914 130.845H169.728V130.548H170.914V130.845ZM168.542 130.845H167.357V130.548H168.542V130.845ZM166.171 130.845H164.985V130.548H166.171V130.845ZM163.799 130.845H162.613V130.548H163.799V130.845ZM161.427 130.845H160.241V130.548H161.427V130.845ZM159.055 130.845H157.869V130.548H159.055V130.845ZM156.683 130.845H155.498V130.548H156.683V130.845ZM154.312 130.845H153.126V130.548H154.312V130.845ZM151.94 130.845H150.754V130.548H151.94V130.845ZM149.568 130.845H148.382V130.548H149.568V130.845ZM147.196 130.845H146.01V130.548H147.196V130.845ZM144.824 130.845H143.638V130.548H144.824V130.845ZM142.453 130.845H141.267V130.548H142.453V130.845ZM140.081 130.845H138.895V130.548H140.081V130.845ZM137.709 130.845H136.523V130.548H137.709V130.845ZM135.337 130.845H134.151V130.548H135.337V130.845ZM132.965 130.845H131.779V130.548H132.965V130.845ZM130.594 130.845H129.408V130.548H130.594V130.845ZM128.222 130.845H127.036V130.548H128.222V130.845ZM125.85 130.845H124.664V130.548H125.85V130.845ZM123.478 130.845H122.292V130.548H123.478V130.845ZM121.106 130.845H119.92V130.548H121.106V130.845ZM118.734 130.845H117.549V130.548H118.734V130.845ZM116.363 130.845H115.177V130.548H116.363V130.845ZM113.991 130.845H112.805V130.548H113.991V130.845ZM111.619 130.845H110.433V130.548H111.619V130.845ZM109.247 130.845H108.061V130.548H109.247V130.845ZM106.875 130.845H105.69V130.548H106.875V130.845ZM104.504 130.845H103.318V130.548H104.504V130.845ZM102.132 130.845H100.946V130.548H102.132V130.845ZM99.76 130.845H98.5741V130.548H99.76V130.845ZM97.3882 130.845H96.2023V130.548H97.3882V130.845ZM95.0164 130.845H93.8305V130.548H95.0164V130.845ZM92.6446 130.845H91.4587V130.548H92.6446V130.845ZM90.2728 130.845H89.0869V130.548H90.2728V130.845ZM87.901 130.845H86.7151V130.548H87.901V130.845ZM85.5292 130.845H84.3433V130.548H85.5292V130.845ZM83.1573 130.845H81.9714V130.548H83.1573V130.845ZM80.7855 130.845H79.5996V130.548H80.7855V130.845ZM78.4137 130.845H77.2278V130.548H78.4137V130.845ZM76.0419 130.845H74.856V130.548H76.0419V130.845ZM73.6701 130.845H72.4842V130.548H73.6701V130.845ZM71.2983 130.845H70.1124V130.548H71.2983V130.845ZM68.9265 130.845H67.7406V130.548H68.9265V130.845ZM66.5547 130.845H65.3688V130.548H66.5547V130.845ZM64.1829 130.845H62.997V130.548H64.1829V130.845ZM61.8111 130.845H60.6252V130.548H61.8111V130.845ZM59.4393 130.845H58.2534V130.548H59.4393V130.845ZM57.0674 130.845H55.8815V130.548H57.0674V130.845ZM54.6956 130.845H53.5097V130.548H54.6956V130.845ZM52.3238 130.845H51.1379V130.548H52.3238V130.845ZM49.952 130.845H48.7661V130.548H49.952V130.845Z" fill="#CAA9FF"/>
<path d="M58.795 140H58.4985V138.814H58.795V140ZM58.795 137.628H58.4985V136.442H58.795V137.628ZM58.795 135.256H58.4985V134.07H58.795V135.256ZM58.795 132.885H58.4985V131.699H58.795V132.885ZM58.795 130.513H58.4985V129.327H58.795V130.513ZM58.795 128.141H58.4985V126.955H58.795V128.141ZM58.795 125.769H58.4985V124.583H58.795V125.769ZM58.795 123.397H58.4985V122.211H58.795V123.397ZM58.795 121.026H58.4985V119.84H58.795V121.026ZM58.795 118.654H58.4985V117.468H58.795V118.654ZM58.795 116.282H58.4985V115.096H58.795V116.282ZM58.795 113.91H58.4985V112.724H58.795V113.91ZM58.795 111.538H58.4985V110.352H58.795V111.538ZM58.795 109.166H58.4985V107.981H58.795V109.166ZM58.795 106.795H58.4985V105.609H58.795V106.795ZM58.795 104.423H58.4985V103.237H58.795V104.423ZM58.795 102.051H58.4985V100.865H58.795V102.051ZM58.795 99.6792H58.4985V98.4933H58.795V99.6792ZM58.795 97.3074H58.4985V96.1215H58.795V97.3074ZM58.795 94.9356H58.4985V93.7497H58.795V94.9356ZM58.795 92.5638H58.4985V91.3779H58.795V92.5638ZM58.795 90.192H58.4985V89.0061H58.795V90.192ZM58.795 87.8202H58.4985V86.6343H58.795V87.8202ZM58.795 85.4484H58.4985V84.2625H58.795V85.4484ZM58.795 83.0766H58.4985V81.8907H58.795V83.0766ZM58.795 80.7048H58.4985V79.5189H58.795V80.7048ZM58.795 78.333H58.4985V77.147H58.795V78.333ZM58.795 75.9612H58.4985V74.7752H58.795V75.9612ZM58.795 73.5893H58.4985V72.4034H58.795V73.5893ZM58.795 71.2175H58.4985V70.0316H58.795V71.2175ZM58.795 68.8457H58.4985V67.6598H58.795V68.8457ZM58.795 66.4739H58.4985V65.288H58.795V66.4739ZM58.795 64.1021H58.4985V62.9162H58.795V64.1021ZM58.795 61.7303H58.4985V60.5444H58.795V61.7303ZM58.795 59.3585H58.4985V58.1726H58.795V59.3585ZM58.795 56.9867H58.4985V55.8008H58.795V56.9867ZM58.795 54.6149H58.4985V53.429H58.795V54.6149ZM58.795 52.2431H58.4985V51.0571H58.795V52.2431ZM58.795 49.8712H58.4985V48.6853H58.795V49.8712ZM58.795 47.4994H58.4985V46.3135H58.795V47.4994ZM58.795 45.1276H58.4985V43.9417H58.795V45.1276ZM58.795 42.7558H58.4985V41.5699H58.795V42.7558ZM58.795 40.384H58.4985V39.1981H58.795V40.384ZM58.795 38.0122H58.4985V36.8263H58.795V38.0122ZM58.795 35.6404H58.4985V34.4545H58.795V35.6404ZM58.795 33.2686H58.4985V32.0827H58.795V33.2686ZM58.795 30.8968H58.4985V29.7109H58.795V30.8968ZM58.795 28.525H58.4985V27.3391H58.795V28.525ZM58.795 26.1532H58.4985V24.9672H58.795V26.1532ZM58.795 23.7813H58.4985V22.5954H58.795V23.7813ZM58.795 21.4095H58.4985V20.2236H58.795V21.4095ZM58.795 19.0377H58.4985V17.8518H58.795V19.0377ZM58.795 16.6659H58.4985V15.48H58.795V16.6659ZM58.795 14.2941H58.4985V13.1082H58.795V14.2941ZM58.795 11.9223H58.4985V10.7364H58.795V11.9223ZM58.795 9.55049H58.4985V8.36458H58.795V9.55049ZM58.795 7.17868H58.4985V5.99277H58.795V7.17868ZM58.795 4.80687H58.4985V3.62096H58.795V4.80687ZM58.795 2.43506H58.4985V1.24915H58.795V2.43506ZM58.795 0.0632482H58.4985V0H58.795V0.0632482Z" fill="#CAA9FF"/>
<path d="M71.0296 140H70.7332V138.814H71.0296V140ZM71.0296 137.628H70.7332V136.442H71.0296V137.628ZM71.0296 135.256H70.7332V134.07H71.0296V135.256ZM71.0296 132.885H70.7332V131.699H71.0296V132.885ZM71.0296 130.513H70.7332V129.327H71.0296V130.513ZM71.0296 128.141H70.7332V126.955H71.0296V128.141ZM71.0296 125.769H70.7332V124.583H71.0296V125.769ZM71.0296 123.397H70.7332V122.211H71.0296V123.397ZM71.0296 121.026H70.7332V119.84H71.0296V121.026ZM71.0296 118.654H70.7332V117.468H71.0296V118.654ZM71.0296 116.282H70.7332V115.096H71.0296V116.282ZM71.0296 113.91H70.7332V112.724H71.0296V113.91ZM71.0296 111.538H70.7332V110.352H71.0296V111.538ZM71.0296 109.166H70.7332V107.981H71.0296V109.166ZM71.0296 106.795H70.7332V105.609H71.0296V106.795ZM71.0296 104.423H70.7332V103.237H71.0296V104.423ZM71.0296 102.051H70.7332V100.865H71.0296V102.051ZM71.0296 99.6792H70.7332V98.4933H71.0296V99.6792ZM71.0296 97.3074H70.7332V96.1215H71.0296V97.3074ZM71.0296 94.9356H70.7332V93.7497H71.0296V94.9356ZM71.0296 92.5638H70.7332V91.3779H71.0296V92.5638ZM71.0296 90.192H70.7332V89.0061H71.0296V90.192ZM71.0296 87.8202H70.7332V86.6343H71.0296V87.8202ZM71.0296 85.4484H70.7332V84.2625H71.0296V85.4484ZM71.0296 83.0766H70.7332V81.8907H71.0296V83.0766ZM71.0296 80.7048H70.7332V79.5189H71.0296V80.7048ZM71.0296 78.333H70.7332V77.147H71.0296V78.333ZM71.0296 75.9612H70.7332V74.7752H71.0296V75.9612ZM71.0296 73.5893H70.7332V72.4034H71.0296V73.5893ZM71.0296 71.2175H70.7332V70.0316H71.0296V71.2175ZM71.0296 68.8457H70.7332V67.6598H71.0296V68.8457ZM71.0296 66.4739H70.7332V65.288H71.0296V66.4739ZM71.0296 64.1021H70.7332V62.9162H71.0296V64.1021ZM71.0296 61.7303H70.7332V60.5444H71.0296V61.7303ZM71.0296 59.3585H70.7332V58.1726H71.0296V59.3585ZM71.0296 56.9867H70.7332V55.8008H71.0296V56.9867ZM71.0296 54.6149H70.7332V53.429H71.0296V54.6149ZM71.0296 52.2431H70.7332V51.0571H71.0296V52.2431ZM71.0296 49.8712H70.7332V48.6853H71.0296V49.8712ZM71.0296 47.4994H70.7332V46.3135H71.0296V47.4994ZM71.0296 45.1276H70.7332V43.9417H71.0296V45.1276ZM71.0296 42.7558H70.7332V41.5699H71.0296V42.7558ZM71.0296 40.384H70.7332V39.1981H71.0296V40.384ZM71.0296 38.0122H70.7332V36.8263H71.0296V38.0122ZM71.0296 35.6404H70.7332V34.4545H71.0296V35.6404ZM71.0296 33.2686H70.7332V32.0827H71.0296V33.2686ZM71.0296 30.8968H70.7332V29.7109H71.0296V30.8968ZM71.0296 28.525H70.7332V27.3391H71.0296V28.525ZM71.0296 26.1532H70.7332V24.9672H71.0296V26.1532ZM71.0296 23.7813H70.7332V22.5954H71.0296V23.7813ZM71.0296 21.4095H70.7332V20.2236H71.0296V21.4095ZM71.0296 19.0377H70.7332V17.8518H71.0296V19.0377ZM71.0296 16.6659H70.7332V15.48H71.0296V16.6659ZM71.0296 14.2941H70.7332V13.1082H71.0296V14.2941ZM71.0296 11.9223H70.7332V10.7364H71.0296V11.9223ZM71.0296 9.55049H70.7332V8.36458H71.0296V9.55049ZM71.0296 7.17868H70.7332V5.99277H71.0296V7.17868ZM71.0296 4.80687H70.7332V3.62096H71.0296V4.80687ZM71.0296 2.43506H70.7332V1.24915H71.0296V2.43506ZM71.0296 0.0632482H70.7332V0H71.0296V0.0632482Z" fill="#CAA9FF"/>
<path d="M82.9994 140H82.7029V138.814H82.9994V140ZM82.9994 137.628H82.7029V136.442H82.9994V137.628ZM82.9994 135.256H82.7029V134.07H82.9994V135.256ZM82.9994 132.885H82.7029V131.699H82.9994V132.885ZM82.9994 130.513H82.7029V129.327H82.9994V130.513ZM82.9994 128.141H82.7029V126.955H82.9994V128.141ZM82.9994 125.769H82.7029V124.583H82.9994V125.769ZM82.9994 123.397H82.7029V122.211H82.9994V123.397ZM82.9994 121.026H82.7029V119.84H82.9994V121.026ZM82.9994 118.654H82.7029V117.468H82.9994V118.654ZM82.9994 116.282H82.7029V115.096H82.9994V116.282ZM82.9994 113.91H82.7029V112.724H82.9994V113.91ZM82.9994 111.538H82.7029V110.352H82.9994V111.538ZM82.9994 109.166H82.7029V107.981H82.9994V109.166ZM82.9994 106.795H82.7029V105.609H82.9994V106.795ZM82.9994 104.423H82.7029V103.237H82.9994V104.423ZM82.9994 102.051H82.7029V100.865H82.9994V102.051ZM82.9994 99.6792H82.7029V98.4933H82.9994V99.6792ZM82.9994 97.3074H82.7029V96.1215H82.9994V97.3074ZM82.9994 94.9356H82.7029V93.7497H82.9994V94.9356ZM82.9994 92.5638H82.7029V91.3779H82.9994V92.5638ZM82.9994 90.192H82.7029V89.0061H82.9994V90.192ZM82.9994 87.8202H82.7029V86.6343H82.9994V87.8202ZM82.9994 85.4484H82.7029V84.2625H82.9994V85.4484ZM82.9994 83.0766H82.7029V81.8907H82.9994V83.0766ZM82.9994 80.7048H82.7029V79.5189H82.9994V80.7048ZM82.9994 78.333H82.7029V77.147H82.9994V78.333ZM82.9994 75.9612H82.7029V74.7752H82.9994V75.9612ZM82.9994 73.5893H82.7029V72.4034H82.9994V73.5893ZM82.9994 71.2175H82.7029V70.0316H82.9994V71.2175ZM82.9994 68.8457H82.7029V67.6598H82.9994V68.8457ZM82.9994 66.4739H82.7029V65.288H82.9994V66.4739ZM82.9994 64.1021H82.7029V62.9162H82.9994V64.1021ZM82.9994 61.7303H82.7029V60.5444H82.9994V61.7303ZM82.9994 59.3585H82.7029V58.1726H82.9994V59.3585ZM82.9994 56.9867H82.7029V55.8008H82.9994V56.9867ZM82.9994 54.6149H82.7029V53.429H82.9994V54.6149ZM82.9994 52.2431H82.7029V51.0571H82.9994V52.2431ZM82.9994 49.8712H82.7029V48.6853H82.9994V49.8712ZM82.9994 47.4994H82.7029V46.3135H82.9994V47.4994ZM82.9994 45.1276H82.7029V43.9417H82.9994V45.1276ZM82.9994 42.7558H82.7029V41.5699H82.9994V42.7558ZM82.9994 40.384H82.7029V39.1981H82.9994V40.384ZM82.9994 38.0122H82.7029V36.8263H82.9994V38.0122ZM82.9994 35.6404H82.7029V34.4545H82.9994V35.6404ZM82.9994 33.2686H82.7029V32.0827H82.9994V33.2686ZM82.9994 30.8968H82.7029V29.7109H82.9994V30.8968ZM82.9994 28.525H82.7029V27.3391H82.9994V28.525ZM82.9994 26.1532H82.7029V24.9672H82.9994V26.1532ZM82.9994 23.7813H82.7029V22.5954H82.9994V23.7813ZM82.9994 21.4095H82.7029V20.2236H82.9994V21.4095ZM82.9994 19.0377H82.7029V17.8518H82.9994V19.0377ZM82.9994 16.6659H82.7029V15.48H82.9994V16.6659ZM82.9994 14.2941H82.7029V13.1082H82.9994V14.2941ZM82.9994 11.9223H82.7029V10.7364H82.9994V11.9223ZM82.9994 9.55049H82.7029V8.36458H82.9994V9.55049ZM82.9994 7.17868H82.7029V5.99277H82.9994V7.17868ZM82.9994 4.80687H82.7029V3.62096H82.9994V4.80687ZM82.9994 2.43506H82.7029V1.24915H82.9994V2.43506ZM82.9994 0.0632482H82.7029V0H82.9994V0.0632482Z" fill="#CAA9FF"/>
<path d="M94.9652 140H94.6687V138.814H94.9652V140ZM94.9652 137.628H94.6687V136.442H94.9652V137.628ZM94.9652 135.256H94.6687V134.07H94.9652V135.256ZM94.9652 132.885H94.6687V131.699H94.9652V132.885ZM94.9652 130.513H94.6687V129.327H94.9652V130.513ZM94.9652 128.141H94.6687V126.955H94.9652V128.141ZM94.9652 125.769H94.6687V124.583H94.9652V125.769ZM94.9652 123.397H94.6687V122.211H94.9652V123.397ZM94.9652 121.026H94.6687V119.84H94.9652V121.026ZM94.9652 118.654H94.6687V117.468H94.9652V118.654ZM94.9652 116.282H94.6687V115.096H94.9652V116.282ZM94.9652 113.91H94.6687V112.724H94.9652V113.91ZM94.9652 111.538H94.6687V110.352H94.9652V111.538ZM94.9652 109.166H94.6687V107.981H94.9652V109.166ZM94.9652 106.795H94.6687V105.609H94.9652V106.795ZM94.9652 104.423H94.6687V103.237H94.9652V104.423ZM94.9652 102.051H94.6687V100.865H94.9652V102.051ZM94.9652 99.6792H94.6687V98.4933H94.9652V99.6792ZM94.9652 97.3074H94.6687V96.1215H94.9652V97.3074ZM94.9652 94.9356H94.6687V93.7497H94.9652V94.9356ZM94.9652 92.5638H94.6687V91.3779H94.9652V92.5638ZM94.9652 90.192H94.6687V89.0061H94.9652V90.192ZM94.9652 87.8202H94.6687V86.6343H94.9652V87.8202ZM94.9652 85.4484H94.6687V84.2625H94.9652V85.4484ZM94.9652 83.0766H94.6687V81.8907H94.9652V83.0766ZM94.9652 80.7048H94.6687V79.5189H94.9652V80.7048ZM94.9652 78.333H94.6687V77.147H94.9652V78.333ZM94.9652 75.9612H94.6687V74.7752H94.9652V75.9612ZM94.9652 73.5893H94.6687V72.4034H94.9652V73.5893ZM94.9652 71.2175H94.6687V70.0316H94.9652V71.2175ZM94.9652 68.8457H94.6687V67.6598H94.9652V68.8457ZM94.9652 66.4739H94.6687V65.288H94.9652V66.4739ZM94.9652 64.1021H94.6687V62.9162H94.9652V64.1021ZM94.9652 61.7303H94.6687V60.5444H94.9652V61.7303ZM94.9652 59.3585H94.6687V58.1726H94.9652V59.3585ZM94.9652 56.9867H94.6687V55.8008H94.9652V56.9867ZM94.9652 54.6149H94.6687V53.429H94.9652V54.6149ZM94.9652 52.2431H94.6687V51.0571H94.9652V52.2431ZM94.9652 49.8712H94.6687V48.6853H94.9652V49.8712ZM94.9652 47.4994H94.6687V46.3135H94.9652V47.4994ZM94.9652 45.1276H94.6687V43.9417H94.9652V45.1276ZM94.9652 42.7558H94.6687V41.5699H94.9652V42.7558ZM94.9652 40.384H94.6687V39.1981H94.9652V40.384ZM94.9652 38.0122H94.6687V36.8263H94.9652V38.0122ZM94.9652 35.6404H94.6687V34.4545H94.9652V35.6404ZM94.9652 33.2686H94.6687V32.0827H94.9652V33.2686ZM94.9652 30.8968H94.6687V29.7109H94.9652V30.8968ZM94.9652 28.525H94.6687V27.3391H94.9652V28.525ZM94.9652 26.1532H94.6687V24.9672H94.9652V26.1532ZM94.9652 23.7813H94.6687V22.5954H94.9652V23.7813ZM94.9652 21.4095H94.6687V20.2236H94.9652V21.4095ZM94.9652 19.0377H94.6687V17.8518H94.9652V19.0377ZM94.9652 16.6659H94.6687V15.48H94.9652V16.6659ZM94.9652 14.2941H94.6687V13.1082H94.9652V14.2941ZM94.9652 11.9223H94.6687V10.7364H94.9652V11.9223ZM94.9652 9.55049H94.6687V8.36458H94.9652V9.55049ZM94.9652 7.17868H94.6687V5.99277H94.9652V7.17868ZM94.9652 4.80687H94.6687V3.62096H94.9652V4.80687ZM94.9652 2.43506H94.6687V1.24915H94.9652V2.43506ZM94.9652 0.0632482H94.6687V0H94.9652V0.0632482Z" fill="#CAA9FF"/>
<path d="M107.2 140H106.903V138.814H107.2V140ZM107.2 137.628H106.903V136.442H107.2V137.628ZM107.2 135.256H106.903V134.07H107.2V135.256ZM107.2 132.885H106.903V131.699H107.2V132.885ZM107.2 130.513H106.903V129.327H107.2V130.513ZM107.2 128.141H106.903V126.955H107.2V128.141ZM107.2 125.769H106.903V124.583H107.2V125.769ZM107.2 123.397H106.903V122.211H107.2V123.397ZM107.2 121.026H106.903V119.84H107.2V121.026ZM107.2 118.654H106.903V117.468H107.2V118.654ZM107.2 116.282H106.903V115.096H107.2V116.282ZM107.2 113.91H106.903V112.724H107.2V113.91ZM107.2 111.538H106.903V110.352H107.2V111.538ZM107.2 109.166H106.903V107.981H107.2V109.166ZM107.2 106.795H106.903V105.609H107.2V106.795ZM107.2 104.423H106.903V103.237H107.2V104.423ZM107.2 102.051H106.903V100.865H107.2V102.051ZM107.2 99.6792H106.903V98.4933H107.2V99.6792ZM107.2 97.3074H106.903V96.1215H107.2V97.3074ZM107.2 94.9356H106.903V93.7497H107.2V94.9356ZM107.2 92.5638H106.903V91.3779H107.2V92.5638ZM107.2 90.192H106.903V89.0061H107.2V90.192ZM107.2 87.8202H106.903V86.6343H107.2V87.8202ZM107.2 85.4484H106.903V84.2625H107.2V85.4484ZM107.2 83.0766H106.903V81.8907H107.2V83.0766ZM107.2 80.7048H106.903V79.5189H107.2V80.7048ZM107.2 78.333H106.903V77.147H107.2V78.333ZM107.2 75.9612H106.903V74.7752H107.2V75.9612ZM107.2 73.5893H106.903V72.4034H107.2V73.5893ZM107.2 71.2175H106.903V70.0316H107.2V71.2175ZM107.2 68.8457H106.903V67.6598H107.2V68.8457ZM107.2 66.4739H106.903V65.288H107.2V66.4739ZM107.2 64.1021H106.903V62.9162H107.2V64.1021ZM107.2 61.7303H106.903V60.5444H107.2V61.7303ZM107.2 59.3585H106.903V58.1726H107.2V59.3585ZM107.2 56.9867H106.903V55.8008H107.2V56.9867ZM107.2 54.6149H106.903V53.429H107.2V54.6149ZM107.2 52.2431H106.903V51.0571H107.2V52.2431ZM107.2 49.8712H106.903V48.6853H107.2V49.8712ZM107.2 47.4994H106.903V46.3135H107.2V47.4994ZM107.2 45.1276H106.903V43.9417H107.2V45.1276ZM107.2 42.7558H106.903V41.5699H107.2V42.7558ZM107.2 40.384H106.903V39.1981H107.2V40.384ZM107.2 38.0122H106.903V36.8263H107.2V38.0122ZM107.2 35.6404H106.903V34.4545H107.2V35.6404ZM107.2 33.2686H106.903V32.0827H107.2V33.2686ZM107.2 30.8968H106.903V29.7109H107.2V30.8968ZM107.2 28.525H106.903V27.3391H107.2V28.525ZM107.2 26.1532H106.903V24.9672H107.2V26.1532ZM107.2 23.7813H106.903V22.5954H107.2V23.7813ZM107.2 21.4095H106.903V20.2236H107.2V21.4095ZM107.2 19.0377H106.903V17.8518H107.2V19.0377ZM107.2 16.6659H106.903V15.48H107.2V16.6659ZM107.2 14.2941H106.903V13.1082H107.2V14.2941ZM107.2 11.9223H106.903V10.7364H107.2V11.9223ZM107.2 9.55049H106.903V8.36458H107.2V9.55049ZM107.2 7.17868H106.903V5.99277H107.2V7.17868ZM107.2 4.80687H106.903V3.62096H107.2V4.80687ZM107.2 2.43506H106.903V1.24915H107.2V2.43506ZM107.2 0.0632482H106.903V0H107.2V0.0632482Z" fill="#CAA9FF"/>
<path d="M119.17 140H118.873V138.814H119.17V140ZM119.17 137.628H118.873V136.442H119.17V137.628ZM119.17 135.256H118.873V134.07H119.17V135.256ZM119.17 132.885H118.873V131.699H119.17V132.885ZM119.17 130.513H118.873V129.327H119.17V130.513ZM119.17 128.141H118.873V126.955H119.17V128.141ZM119.17 125.769H118.873V124.583H119.17V125.769ZM119.17 123.397H118.873V122.211H119.17V123.397ZM119.17 121.026H118.873V119.84H119.17V121.026ZM119.17 118.654H118.873V117.468H119.17V118.654ZM119.17 116.282H118.873V115.096H119.17V116.282ZM119.17 113.91H118.873V112.724H119.17V113.91ZM119.17 111.538H118.873V110.352H119.17V111.538ZM119.17 109.166H118.873V107.981H119.17V109.166ZM119.17 106.795H118.873V105.609H119.17V106.795ZM119.17 104.423H118.873V103.237H119.17V104.423ZM119.17 102.051H118.873V100.865H119.17V102.051ZM119.17 99.6792H118.873V98.4933H119.17V99.6792ZM119.17 97.3074H118.873V96.1215H119.17V97.3074ZM119.17 94.9356H118.873V93.7497H119.17V94.9356ZM119.17 92.5638H118.873V91.3779H119.17V92.5638ZM119.17 90.192H118.873V89.0061H119.17V90.192ZM119.17 87.8202H118.873V86.6343H119.17V87.8202ZM119.17 85.4484H118.873V84.2625H119.17V85.4484ZM119.17 83.0766H118.873V81.8907H119.17V83.0766ZM119.17 80.7048H118.873V79.5189H119.17V80.7048ZM119.17 78.333H118.873V77.147H119.17V78.333ZM119.17 75.9612H118.873V74.7752H119.17V75.9612ZM119.17 73.5893H118.873V72.4034H119.17V73.5893ZM119.17 71.2175H118.873V70.0316H119.17V71.2175ZM119.17 68.8457H118.873V67.6598H119.17V68.8457ZM119.17 66.4739H118.873V65.288H119.17V66.4739ZM119.17 64.1021H118.873V62.9162H119.17V64.1021ZM119.17 61.7303H118.873V60.5444H119.17V61.7303ZM119.17 59.3585H118.873V58.1726H119.17V59.3585ZM119.17 56.9867H118.873V55.8008H119.17V56.9867ZM119.17 54.6149H118.873V53.429H119.17V54.6149ZM119.17 52.2431H118.873V51.0571H119.17V52.2431ZM119.17 49.8712H118.873V48.6853H119.17V49.8712ZM119.17 47.4994H118.873V46.3135H119.17V47.4994ZM119.17 45.1276H118.873V43.9417H119.17V45.1276ZM119.17 42.7558H118.873V41.5699H119.17V42.7558ZM119.17 40.384H118.873V39.1981H119.17V40.384ZM119.17 38.0122H118.873V36.8263H119.17V38.0122ZM119.17 35.6404H118.873V34.4545H119.17V35.6404ZM119.17 33.2686H118.873V32.0827H119.17V33.2686ZM119.17 30.8968H118.873V29.7109H119.17V30.8968ZM119.17 28.525H118.873V27.3391H119.17V28.525ZM119.17 26.1532H118.873V24.9672H119.17V26.1532ZM119.17 23.7813H118.873V22.5954H119.17V23.7813ZM119.17 21.4095H118.873V20.2236H119.17V21.4095ZM119.17 19.0377H118.873V17.8518H119.17V19.0377ZM119.17 16.6659H118.873V15.48H119.17V16.6659ZM119.17 14.2941H118.873V13.1082H119.17V14.2941ZM119.17 11.9223H118.873V10.7364H119.17V11.9223ZM119.17 9.55049H118.873V8.36458H119.17V9.55049ZM119.17 7.17868H118.873V5.99277H119.17V7.17868ZM119.17 4.80687H118.873V3.62096H119.17V4.80687ZM119.17 2.43506H118.873V1.24915H119.17V2.43506ZM119.17 0.0632482H118.873V0H119.17V0.0632482Z" fill="#CAA9FF"/>
<path d="M131.139 140H130.843V138.814H131.139V140ZM131.139 137.628H130.843V136.442H131.139V137.628ZM131.139 135.256H130.843V134.07H131.139V135.256ZM131.139 132.885H130.843V131.699H131.139V132.885ZM131.139 130.513H130.843V129.327H131.139V130.513ZM131.139 128.141H130.843V126.955H131.139V128.141ZM131.139 125.769H130.843V124.583H131.139V125.769ZM131.139 123.397H130.843V122.211H131.139V123.397ZM131.139 121.026H130.843V119.84H131.139V121.026ZM131.139 118.654H130.843V117.468H131.139V118.654ZM131.139 116.282H130.843V115.096H131.139V116.282ZM131.139 113.91H130.843V112.724H131.139V113.91ZM131.139 111.538H130.843V110.352H131.139V111.538ZM131.139 109.166H130.843V107.981H131.139V109.166ZM131.139 106.795H130.843V105.609H131.139V106.795ZM131.139 104.423H130.843V103.237H131.139V104.423ZM131.139 102.051H130.843V100.865H131.139V102.051ZM131.139 99.6792H130.843V98.4933H131.139V99.6792ZM131.139 97.3074H130.843V96.1215H131.139V97.3074ZM131.139 94.9356H130.843V93.7497H131.139V94.9356ZM131.139 92.5638H130.843V91.3779H131.139V92.5638ZM131.139 90.192H130.843V89.0061H131.139V90.192ZM131.139 87.8202H130.843V86.6343H131.139V87.8202ZM131.139 85.4484H130.843V84.2625H131.139V85.4484ZM131.139 83.0766H130.843V81.8907H131.139V83.0766ZM131.139 80.7048H130.843V79.5189H131.139V80.7048ZM131.139 78.333H130.843V77.147H131.139V78.333ZM131.139 75.9612H130.843V74.7752H131.139V75.9612ZM131.139 73.5893H130.843V72.4034H131.139V73.5893ZM131.139 71.2175H130.843V70.0316H131.139V71.2175ZM131.139 68.8457H130.843V67.6598H131.139V68.8457ZM131.139 66.4739H130.843V65.288H131.139V66.4739ZM131.139 64.1021H130.843V62.9162H131.139V64.1021ZM131.139 61.7303H130.843V60.5444H131.139V61.7303ZM131.139 59.3585H130.843V58.1726H131.139V59.3585ZM131.139 56.9867H130.843V55.8008H131.139V56.9867ZM131.139 54.6149H130.843V53.429H131.139V54.6149ZM131.139 52.2431H130.843V51.0571H131.139V52.2431ZM131.139 49.8712H130.843V48.6853H131.139V49.8712ZM131.139 47.4994H130.843V46.3135H131.139V47.4994ZM131.139 45.1276H130.843V43.9417H131.139V45.1276ZM131.139 42.7558H130.843V41.5699H131.139V42.7558ZM131.139 40.384H130.843V39.1981H131.139V40.384ZM131.139 38.0122H130.843V36.8263H131.139V38.0122ZM131.139 35.6404H130.843V34.4545H131.139V35.6404ZM131.139 33.2686H130.843V32.0827H131.139V33.2686ZM131.139 30.8968H130.843V29.7109H131.139V30.8968ZM131.139 28.525H130.843V27.3391H131.139V28.525ZM131.139 26.1532H130.843V24.9672H131.139V26.1532ZM131.139 23.7813H130.843V22.5954H131.139V23.7813ZM131.139 21.4095H130.843V20.2236H131.139V21.4095ZM131.139 19.0377H130.843V17.8518H131.139V19.0377ZM131.139 16.6659H130.843V15.48H131.139V16.6659ZM131.139 14.2941H130.843V13.1082H131.139V14.2941ZM131.139 11.9223H130.843V10.7364H131.139V11.9223ZM131.139 9.55049H130.843V8.36458H131.139V9.55049ZM131.139 7.17868H130.843V5.99277H131.139V7.17868ZM131.139 4.80687H130.843V3.62096H131.139V4.80687ZM131.139 2.43506H130.843V1.24915H131.139V2.43506ZM131.139 0.0632482H130.843V0H131.139V0.0632482Z" fill="#CAA9FF"/>
<path d="M143.374 140H143.077V138.814H143.374V140ZM143.374 137.628H143.077V136.442H143.374V137.628ZM143.374 135.256H143.077V134.07H143.374V135.256ZM143.374 132.885H143.077V131.699H143.374V132.885ZM143.374 130.513H143.077V129.327H143.374V130.513ZM143.374 128.141H143.077V126.955H143.374V128.141ZM143.374 125.769H143.077V124.583H143.374V125.769ZM143.374 123.397H143.077V122.211H143.374V123.397ZM143.374 121.026H143.077V119.84H143.374V121.026ZM143.374 118.654H143.077V117.468H143.374V118.654ZM143.374 116.282H143.077V115.096H143.374V116.282ZM143.374 113.91H143.077V112.724H143.374V113.91ZM143.374 111.538H143.077V110.352H143.374V111.538ZM143.374 109.166H143.077V107.981H143.374V109.166ZM143.374 106.795H143.077V105.609H143.374V106.795ZM143.374 104.423H143.077V103.237H143.374V104.423ZM143.374 102.051H143.077V100.865H143.374V102.051ZM143.374 99.6792H143.077V98.4933H143.374V99.6792ZM143.374 97.3074H143.077V96.1215H143.374V97.3074ZM143.374 94.9356H143.077V93.7497H143.374V94.9356ZM143.374 92.5638H143.077V91.3779H143.374V92.5638ZM143.374 90.192H143.077V89.0061H143.374V90.192ZM143.374 87.8202H143.077V86.6343H143.374V87.8202ZM143.374 85.4484H143.077V84.2625H143.374V85.4484ZM143.374 83.0766H143.077V81.8907H143.374V83.0766ZM143.374 80.7048H143.077V79.5189H143.374V80.7048ZM143.374 78.333H143.077V77.147H143.374V78.333ZM143.374 75.9612H143.077V74.7752H143.374V75.9612ZM143.374 73.5893H143.077V72.4034H143.374V73.5893ZM143.374 71.2175H143.077V70.0316H143.374V71.2175ZM143.374 68.8457H143.077V67.6598H143.374V68.8457ZM143.374 66.4739H143.077V65.288H143.374V66.4739ZM143.374 64.1021H143.077V62.9162H143.374V64.1021ZM143.374 61.7303H143.077V60.5444H143.374V61.7303ZM143.374 59.3585H143.077V58.1726H143.374V59.3585ZM143.374 56.9867H143.077V55.8008H143.374V56.9867ZM143.374 54.6149H143.077V53.429H143.374V54.6149ZM143.374 52.2431H143.077V51.0571H143.374V52.2431ZM143.374 49.8712H143.077V48.6853H143.374V49.8712ZM143.374 47.4994H143.077V46.3135H143.374V47.4994ZM143.374 45.1276H143.077V43.9417H143.374V45.1276ZM143.374 42.7558H143.077V41.5699H143.374V42.7558ZM143.374 40.384H143.077V39.1981H143.374V40.384ZM143.374 38.0122H143.077V36.8263H143.374V38.0122ZM143.374 35.6404H143.077V34.4545H143.374V35.6404ZM143.374 33.2686H143.077V32.0827H143.374V33.2686ZM143.374 30.8968H143.077V29.7109H143.374V30.8968ZM143.374 28.525H143.077V27.3391H143.374V28.525ZM143.374 26.1532H143.077V24.9672H143.374V26.1532ZM143.077 23.7813V22.5954H143.374V23.7813H143.077ZM143.374 21.4095H143.077V20.2236H143.374V21.4095ZM143.374 19.0377H143.077V17.8518H143.374V19.0377ZM143.374 16.6659H143.077V15.48H143.374V16.6659ZM143.374 14.2941H143.077V13.1082H143.374V14.2941ZM143.374 11.9223H143.077V10.7364H143.374V11.9223ZM143.374 9.55049H143.077V8.36458H143.374V9.55049ZM143.374 7.17868H143.077V5.99277H143.374V7.17868ZM143.374 4.80687H143.077V3.62096H143.374V4.80687ZM143.374 2.43506H143.077V1.24915H143.374V2.43506ZM143.374 0.0632482H143.077V0H143.374V0.0632482Z" fill="#CAA9FF"/>
<path d="M155.344 140H155.047V138.814H155.344V140ZM155.344 137.628H155.047V136.442H155.344V137.628ZM155.344 135.256H155.047V134.07H155.344V135.256ZM155.344 132.885H155.047V131.699H155.344V132.885ZM155.344 130.513H155.047V129.327H155.344V130.513ZM155.344 128.141H155.047V126.955H155.344V128.141ZM155.344 125.769H155.047V124.583H155.344V125.769ZM155.344 123.397H155.047V122.211H155.344V123.397ZM155.344 121.026H155.047V119.84H155.344V121.026ZM155.344 118.654H155.047V117.468H155.344V118.654ZM155.344 116.282H155.047V115.096H155.344V116.282ZM155.344 113.91H155.047V112.724H155.344V113.91ZM155.344 111.538H155.047V110.352H155.344V111.538ZM155.344 109.166H155.047V107.981H155.344V109.166ZM155.344 106.795H155.047V105.609H155.344V106.795ZM155.344 104.423H155.047V103.237H155.344V104.423ZM155.344 102.051H155.047V100.865H155.344V102.051ZM155.344 99.6792H155.047V98.4933H155.344V99.6792ZM155.344 97.3074H155.047V96.1215H155.344V97.3074ZM155.344 94.9356H155.047V93.7497H155.344V94.9356ZM155.344 92.5638H155.047V91.3779H155.344V92.5638ZM155.344 90.192H155.047V89.0061H155.344V90.192ZM155.344 87.8202H155.047V86.6343H155.344V87.8202ZM155.344 85.4484H155.047V84.2625H155.344V85.4484ZM155.344 83.0766H155.047V81.8907H155.344V83.0766ZM155.344 80.7048H155.047V79.5189H155.344V80.7048ZM155.344 78.333H155.047V77.147H155.344V78.333ZM155.344 75.9612H155.047V74.7752H155.344V75.9612ZM155.344 73.5893H155.047V72.4034H155.344V73.5893ZM155.344 71.2175H155.047V70.0316H155.344V71.2175ZM155.344 68.8457H155.047V67.6598H155.344V68.8457ZM155.344 66.4739H155.047V65.288H155.344V66.4739ZM155.344 64.1021H155.047V62.9162H155.344V64.1021ZM155.344 61.7303H155.047V60.5444H155.344V61.7303ZM155.344 59.3585H155.047V58.1726H155.344V59.3585ZM155.344 56.9867H155.047V55.8008H155.344V56.9867ZM155.344 54.6149H155.047V53.429H155.344V54.6149ZM155.344 52.2431H155.047V51.0571H155.344V52.2431ZM155.344 49.8712H155.047V48.6853H155.344V49.8712ZM155.344 47.4994H155.047V46.3135H155.344V47.4994ZM155.344 45.1276H155.047V43.9417H155.344V45.1276ZM155.344 42.7558H155.047V41.5699H155.344V42.7558ZM155.344 40.384H155.047V39.1981H155.344V40.384ZM155.344 38.0122H155.047V36.8263H155.344V38.0122ZM155.344 35.6404H155.047V34.4545H155.344V35.6404ZM155.344 33.2686H155.047V32.0827H155.344V33.2686ZM155.344 30.8968H155.047V29.7109H155.344V30.8968ZM155.344 28.525H155.047V27.3391H155.344V28.525ZM155.344 26.1532H155.047V24.9672H155.344V26.1532ZM155.344 23.7813H155.047V22.5954H155.344V23.7813ZM155.344 21.4095H155.047V20.2236H155.344V21.4095ZM155.344 19.0377H155.047V17.8518H155.344V19.0377ZM155.344 16.6659H155.047V15.48H155.344V16.6659ZM155.344 14.2941H155.047V13.1082H155.344V14.2941ZM155.344 11.9223H155.047V10.7364H155.344V11.9223ZM155.344 9.55049H155.047V8.36458H155.344V9.55049ZM155.344 7.17868H155.047V5.99277H155.344V7.17868ZM155.344 4.80687H155.047V3.62096H155.344V4.80687ZM155.344 2.43506H155.047V1.24915H155.344V2.43506ZM155.344 0.0632482H155.047V0H155.344V0.0632482Z" fill="#CAA9FF"/>
<path d="M167.313 140H167.017V138.814H167.313V140ZM167.313 137.628H167.017V136.442H167.313V137.628ZM167.313 135.256H167.017V134.07H167.313V135.256ZM167.313 132.885H167.017V131.699H167.313V132.885ZM167.313 130.513H167.017V129.327H167.313V130.513ZM167.313 128.141H167.017V126.955H167.313V128.141ZM167.313 125.769H167.017V124.583H167.313V125.769ZM167.313 123.397H167.017V122.211H167.313V123.397ZM167.313 121.026H167.017V119.84H167.313V121.026ZM167.313 118.654H167.017V117.468H167.313V118.654ZM167.313 116.282H167.017V115.096H167.313V116.282ZM167.313 113.91H167.017V112.724H167.313V113.91ZM167.313 111.538H167.017V110.352H167.313V111.538ZM167.313 109.166H167.017V107.981H167.313V109.166ZM167.313 106.795H167.017V105.609H167.313V106.795ZM167.313 104.423H167.017V103.237H167.313V104.423ZM167.313 102.051H167.017V100.865H167.313V102.051ZM167.313 99.6792H167.017V98.4933H167.313V99.6792ZM167.313 97.3074H167.017V96.1215H167.313V97.3074ZM167.313 94.9356H167.017V93.7497H167.313V94.9356ZM167.313 92.5638H167.017V91.3779H167.313V92.5638ZM167.313 90.192H167.017V89.0061H167.313V90.192ZM167.313 87.8202H167.017V86.6343H167.313V87.8202ZM167.313 85.4484H167.017V84.2625H167.313V85.4484ZM167.313 83.0766H167.017V81.8907H167.313V83.0766ZM167.313 80.7048H167.017V79.5189H167.313V80.7048ZM167.313 78.333H167.017V77.147H167.313V78.333ZM167.313 75.9612H167.017V74.7752H167.313V75.9612ZM167.313 73.5893H167.017V72.4034H167.313V73.5893ZM167.313 71.2175H167.017V70.0316H167.313V71.2175ZM167.313 68.8457H167.017V67.6598H167.313V68.8457ZM167.313 66.4739H167.017V65.288H167.313V66.4739ZM167.313 64.1021H167.017V62.9162H167.313V64.1021ZM167.313 61.7303H167.017V60.5444H167.313V61.7303ZM167.313 59.3585H167.017V58.1726H167.313V59.3585ZM167.313 56.9867H167.017V55.8008H167.313V56.9867ZM167.313 54.6149H167.017V53.429H167.313V54.6149ZM167.313 52.2431H167.017V51.0571H167.313V52.2431ZM167.313 49.8712H167.017V48.6853H167.313V49.8712ZM167.313 47.4994H167.017V46.3135H167.313V47.4994ZM167.313 45.1276H167.017V43.9417H167.313V45.1276ZM167.313 42.7558H167.017V41.5699H167.313V42.7558ZM167.313 40.384H167.017V39.1981H167.313V40.384ZM167.313 38.0122H167.017V36.8263H167.313V38.0122ZM167.313 35.6404H167.017V34.4545H167.313V35.6404ZM167.313 33.2686H167.017V32.0827H167.313V33.2686ZM167.313 30.8968H167.017V29.7109H167.313V30.8968ZM167.313 28.525H167.017V27.3391H167.313V28.525ZM167.313 26.1532H167.017V24.9672H167.313V26.1532ZM167.313 23.7813H167.017V22.5954H167.313V23.7813ZM167.313 21.4095H167.017V20.2236H167.313V21.4095ZM167.313 19.0377H167.017V17.8518H167.313V19.0377ZM167.313 16.6659H167.017V15.48H167.313V16.6659ZM167.313 14.2941H167.017V13.1082H167.313V14.2941ZM167.313 11.9223H167.017V10.7364H167.313V11.9223ZM167.313 9.55049H167.017V8.36458H167.313V9.55049ZM167.313 7.17868H167.017V5.99277H167.313V7.17868ZM167.313 4.80687H167.017V3.62096H167.313V4.80687ZM167.313 2.43506H167.017V1.24915H167.313V2.43506ZM167.313 0.0632482H167.017V0H167.313V0.0632482Z" fill="#CAA9FF"/>
<path d="M54.0356 50.2113H52.8497V49.9148H54.0356V50.2113ZM51.6638 50.2113H50.4779V49.9148H51.6638V50.2113ZM49.292 50.2113H48.1061V49.9148H49.292V50.2113ZM46.9202 50.2113H45.7343V49.9148H46.9202V50.2113ZM44.5484 50.2113H43.3625V49.9148H44.5484V50.2113ZM42.1766 50.2113H40.9907V49.9148H42.1766V50.2113ZM39.8048 50.2113H38.6189V49.9148H39.8048V50.2113ZM37.433 50.2113H36.2471V49.9148H37.433V50.2113ZM35.0612 50.2113H33.8753V49.9148H35.0612V50.2113ZM32.6893 50.2113H31.5034V49.9148H32.6893V50.2113ZM30.3175 50.2113H29.1316V49.9148H30.3175V50.2113ZM27.9457 50.2113H26.7598V49.9148H27.9457V50.2113ZM25.5739 50.2113H24.388V49.9148H25.5739V50.2113ZM23.2021 50.2113H22.0162V49.9148H23.2021V50.2113ZM20.8303 50.2113H19.6444V49.9148H20.8303V50.2113ZM18.4585 50.2113H17.2726V49.9148H18.4585V50.2113ZM16.0867 50.2113H14.9008V49.9148H16.0867V50.2113ZM13.7149 50.2113H12.529V49.9148H13.7149V50.2113ZM11.3431 50.2113H10.1572V49.9148H11.3431V50.2113ZM8.97125 50.2113H7.78535V49.9148H8.97125V50.2113ZM6.59945 50.2113H5.41354V49.9148H6.59945V50.2113ZM4.22764 50.2113H3.04173V49.9148H4.22764V50.2113ZM1.85583 50.2113H0.669922V49.9148H1.85583V50.2113Z" fill="#CAA9FF"/>
<path d="M54.0356 36.775H52.8497V36.4785H54.0356V36.775ZM51.6638 36.775H50.4779V36.4785H51.6638V36.775ZM49.292 36.775H48.1061V36.4785H49.292V36.775ZM46.9202 36.775H45.7343V36.4785H46.9202V36.775ZM44.5484 36.775H43.3625V36.4785H44.5484V36.775ZM42.1766 36.775H40.9907V36.4785H42.1766V36.775ZM39.8048 36.775H38.6189V36.4785H39.8048V36.775ZM37.433 36.775H36.2471V36.4785H37.433V36.775ZM35.0612 36.775H33.8753V36.4785H35.0612V36.775ZM32.6893 36.775H31.5034V36.4785H32.6893V36.775ZM30.3175 36.775H29.1316V36.4785H30.3175V36.775ZM27.9457 36.775H26.7598V36.4785H27.9457V36.775ZM25.5739 36.775H24.388V36.4785H25.5739V36.775ZM23.2021 36.775H22.0162V36.4785H23.2021V36.775ZM20.8303 36.775H19.6444V36.4785H20.8303V36.775ZM18.4585 36.775H17.2726V36.4785H18.4585V36.775ZM16.0867 36.775H14.9008V36.4785H16.0867V36.775ZM13.7149 36.775H12.529V36.4785H13.7149V36.775ZM11.3431 36.775H10.1572V36.4785H11.3431V36.775ZM8.97125 36.775H7.78535V36.4785H8.97125V36.775ZM6.59945 36.775H5.41354V36.4785H6.59945V36.775ZM4.22764 36.775H3.04173V36.4785H4.22764V36.775ZM1.85583 36.775H0.669922V36.4785H1.85583V36.775Z" fill="#CAA9FF"/>
<path d="M54.0356 63.6515H52.8497V63.355H54.0356V63.6515ZM51.6638 63.6515H50.4779V63.355H51.6638V63.6515ZM49.292 63.6515H48.1061V63.355H49.292V63.6515ZM46.9202 63.6515H45.7343V63.355H46.9202V63.6515ZM44.5484 63.6515H43.3625V63.355H44.5484V63.6515ZM42.1766 63.6515H40.9907V63.355H42.1766V63.6515ZM39.8048 63.6515H38.6189V63.355H39.8048V63.6515ZM37.433 63.6515H36.2471V63.355H37.433V63.6515ZM35.0612 63.6515H33.8753V63.355H35.0612V63.6515ZM32.6893 63.6515H31.5034V63.355H32.6893V63.6515ZM30.3175 63.6515H29.1316V63.355H30.3175V63.6515ZM27.9457 63.6515H26.7598V63.355H27.9457V63.6515ZM25.5739 63.6515H24.388V63.355H25.5739V63.6515ZM23.2021 63.6515H22.0162V63.355H23.2021V63.6515ZM20.8303 63.6515H19.6444V63.355H20.8303V63.6515ZM18.4585 63.6515H17.2726V63.355H18.4585V63.6515ZM16.0867 63.6515H14.9008V63.355H16.0867V63.6515ZM13.7149 63.6515H12.529V63.355H13.7149V63.6515ZM11.3431 63.6515H10.1572V63.355H11.3431V63.6515ZM8.97125 63.6515H7.78535V63.355H8.97125V63.6515ZM6.59945 63.6515H5.41354V63.355H6.59945V63.6515ZM4.22764 63.6515H3.04173V63.355H4.22764V63.6515ZM1.85583 63.6515H0.669922V63.355H1.85583V63.6515Z" fill="#CAA9FF"/>
<path d="M175.658 10.4835H174.472V10.187H175.658V10.4835ZM173.286 10.4835H172.1V10.187H173.286V10.4835ZM170.914 10.4835H169.728V10.187H170.914V10.4835ZM168.542 10.4835H167.357V10.187H168.542V10.4835ZM166.171 10.4835H164.985V10.187H166.171V10.4835ZM163.799 10.4835H162.613V10.187H163.799V10.4835ZM161.427 10.4835H160.241V10.187H161.427V10.4835ZM159.055 10.4835H157.869V10.187H159.055V10.4835ZM156.683 10.4835H155.498V10.187H156.683V10.4835ZM154.312 10.4835H153.126V10.187H154.312V10.4835ZM151.94 10.4835H150.754V10.187H151.94V10.4835ZM149.568 10.4835H148.382V10.187H149.568V10.4835ZM147.196 10.4835H146.01V10.187H147.196V10.4835ZM144.824 10.4835H143.638V10.187H144.824V10.4835ZM142.453 10.4835H141.267V10.187H142.453V10.4835ZM140.081 10.4835H138.895V10.187H140.081V10.4835ZM137.709 10.4835H136.523V10.187H137.709V10.4835ZM135.337 10.4835H134.151V10.187H135.337V10.4835ZM132.965 10.4835H131.779V10.187H132.965V10.4835ZM130.594 10.4835H129.408V10.187H130.594V10.4835ZM128.222 10.4835H127.036V10.187H128.222V10.4835ZM125.85 10.4835H124.664V10.187H125.85V10.4835ZM123.478 10.4835H122.292V10.187H123.478V10.4835ZM121.106 10.4835H119.92V10.187H121.106V10.4835ZM118.734 10.4835H117.549V10.187H118.734V10.4835ZM116.363 10.4835H115.177V10.187H116.363V10.4835ZM113.991 10.4835H112.805V10.187H113.991V10.4835ZM111.619 10.4835H110.433V10.187H111.619V10.4835ZM109.247 10.4835H108.061V10.187H109.247V10.4835ZM106.875 10.4835H105.69V10.187H106.875V10.4835ZM104.504 10.4835H103.318V10.187H104.504V10.4835ZM102.132 10.4835H100.946V10.187H102.132V10.4835ZM99.76 10.4835H98.5741V10.187H99.76V10.4835ZM97.3882 10.4835H96.2023V10.187H97.3882V10.4835ZM95.0164 10.4835H93.8305V10.187H95.0164V10.4835ZM92.6446 10.4835H91.4587V10.187H92.6446V10.4835ZM90.2728 10.4835H89.0869V10.187H90.2728V10.4835ZM87.901 10.4835H86.7151V10.187H87.901V10.4835ZM85.5292 10.4835H84.3433V10.187H85.5292V10.4835ZM83.1573 10.4835H81.9714V10.187H83.1573V10.4835ZM80.7855 10.4835H79.5996V10.187H80.7855V10.4835ZM78.4137 10.4835H77.2278V10.187H78.4137V10.4835ZM76.0419 10.4835H74.856V10.187H76.0419V10.4835ZM73.6701 10.4835H72.4842V10.187H73.6701V10.4835ZM71.2983 10.4835H70.1124V10.187H71.2983V10.4835ZM68.9265 10.4835H67.7406V10.187H68.9265V10.4835ZM66.5547 10.4835H65.3688V10.187H66.5547V10.4835ZM64.1829 10.4835H62.997V10.187H64.1829V10.4835ZM61.8111 10.4835H60.6252V10.187H61.8111V10.4835ZM59.4393 10.4835H58.2534V10.187H59.4393V10.4835ZM57.0674 10.4835H55.8815V10.187H57.0674V10.4835ZM54.6956 10.4835H53.5097V10.187H54.6956V10.4835ZM52.3238 10.4835H51.1379V10.187H52.3238V10.4835ZM49.952 10.4835H48.7661V10.187H49.952V10.4835Z" fill="#CAA9FF"/>
<path d="M175.658 23.9237H174.472V23.6272H175.658V23.9237ZM173.286 23.9237H172.1V23.6272H173.286V23.9237ZM170.914 23.9237H169.728V23.6272H170.914V23.9237ZM168.542 23.9237H167.357V23.6272H168.542V23.9237ZM166.171 23.9237H164.985V23.6272H166.171V23.9237ZM163.799 23.9237H162.613V23.6272H163.799V23.9237ZM161.427 23.9237H160.241V23.6272H161.427V23.9237ZM159.055 23.9237H157.869V23.6272H159.055V23.9237ZM156.683 23.9237H155.498V23.6272H156.683V23.9237ZM154.312 23.9237H153.126V23.6272H154.312V23.9237ZM151.94 23.9237H150.754V23.6272H151.94V23.9237ZM149.568 23.9237H148.382V23.6272H149.568V23.9237ZM147.196 23.9237H146.01V23.6272H147.196V23.9237ZM144.824 23.9237H143.638V23.6272H144.824V23.9237ZM142.453 23.9237H141.267V23.6272H142.453V23.9237ZM140.081 23.9237H138.895V23.6272H140.081V23.9237ZM137.709 23.9237H136.523V23.6272H137.709V23.9237ZM135.337 23.9237H134.151V23.6272H135.337V23.9237ZM132.965 23.9237H131.779V23.6272H132.965V23.9237ZM130.594 23.9237H129.408V23.6272H130.594V23.9237ZM128.222 23.9237H127.036V23.6272H128.222V23.9237ZM125.85 23.9237H124.664V23.6272H125.85V23.9237ZM123.478 23.9237H122.292V23.6272H123.478V23.9237ZM121.106 23.9237H119.92V23.6272H121.106V23.9237ZM118.734 23.9237H117.549V23.6272H118.734V23.9237ZM116.363 23.9237H115.177V23.6272H116.363V23.9237ZM113.991 23.9237H112.805V23.6272H113.991V23.9237ZM111.619 23.9237H110.433V23.6272H111.619V23.9237ZM109.247 23.9237H108.061V23.6272H109.247V23.9237ZM106.875 23.9237H105.69V23.6272H106.875V23.9237ZM104.504 23.9237H103.318V23.6272H104.504V23.9237ZM102.132 23.9237H100.946V23.6272H102.132V23.9237ZM99.76 23.9237H98.5741V23.6272H99.76V23.9237ZM97.3882 23.9237H96.2023V23.6272H97.3882V23.9237ZM95.0164 23.9237H93.8305V23.6272H95.0164V23.9237ZM92.6446 23.9237H91.4587V23.6272H92.6446V23.9237ZM90.2728 23.9237H89.0869V23.6272H90.2728V23.9237ZM87.901 23.9237H86.7151V23.6272H87.901V23.9237ZM85.5292 23.9237H84.3433V23.6272H85.5292V23.9237ZM83.1573 23.9237H81.9714V23.6272H83.1573V23.9237ZM80.7855 23.9237H79.5996V23.6272H80.7855V23.9237ZM78.4137 23.9237H77.2278V23.6272H78.4137V23.9237ZM76.0419 23.9237H74.856V23.6272H76.0419V23.9237ZM73.6701 23.9237H72.4842V23.6272H73.6701V23.9237ZM71.2983 23.9237H70.1124V23.6272H71.2983V23.9237ZM68.9265 23.9237H67.7406V23.6272H68.9265V23.9237ZM66.5547 23.9237H65.3688V23.6272H66.5547V23.9237ZM64.1829 23.9237H62.997V23.6272H64.1829V23.9237ZM61.8111 23.9237H60.6252V23.6272H61.8111V23.9237ZM59.4393 23.9237H58.2534V23.6272H59.4393V23.9237ZM57.0674 23.9237H55.8815V23.6272H57.0674V23.9237ZM54.6956 23.9237H53.5097V23.6272H54.6956V23.9237ZM52.3238 23.9237H51.1379V23.6272H52.3238V23.9237ZM49.952 23.9237H48.7661V23.6272H49.952V23.9237Z" fill="#CAA9FF"/>
<path d="M54.0356 10.4835H52.8497V10.187H54.0356V10.4835ZM51.6638 10.4835H50.4779V10.187H51.6638V10.4835ZM49.292 10.4835H48.1061V10.187H49.292V10.4835ZM46.9202 10.4835H45.7343V10.187H46.9202V10.4835ZM44.5484 10.4835H43.3625V10.187H44.5484V10.4835ZM42.1766 10.4835H40.9907V10.187H42.1766V10.4835ZM39.8048 10.4835H38.6189V10.187H39.8048V10.4835ZM37.433 10.4835H36.2471V10.187H37.433V10.4835ZM35.0612 10.4835H33.8753V10.187H35.0612V10.4835ZM32.6893 10.4835H31.5034V10.187H32.6893V10.4835ZM30.3175 10.4835H29.1316V10.187H30.3175V10.4835ZM27.9457 10.4835H26.7598V10.187H27.9457V10.4835ZM25.5739 10.4835H24.388V10.187H25.5739V10.4835ZM23.2021 10.4835H22.0162V10.187H23.2021V10.4835ZM20.8303 10.4835H19.6444V10.187H20.8303V10.4835ZM18.4585 10.4835H17.2726V10.187H18.4585V10.4835ZM16.0867 10.4835H14.9008V10.187H16.0867V10.4835ZM13.7149 10.4835H12.529V10.187H13.7149V10.4835ZM11.3431 10.4835H10.1572V10.187H11.3431V10.4835ZM8.97125 10.4835H7.78535V10.187H8.97125V10.4835ZM6.59945 10.4835H5.41354V10.187H6.59945V10.4835ZM4.22764 10.4835H3.04173V10.187H4.22764V10.4835ZM1.85583 10.4835H0.669922V10.187H1.85583V10.4835Z" fill="#CAA9FF"/>
<path d="M54.0356 23.9237H52.8497V23.6272H54.0356V23.9237ZM51.6638 23.9237H50.4779V23.6272H51.6638V23.9237ZM49.292 23.9237H48.1061V23.6272H49.292V23.9237ZM46.9202 23.9237H45.7343V23.6272H46.9202V23.9237ZM44.5484 23.9237H43.3625V23.6272H44.5484V23.9237ZM42.1766 23.9237H40.9907V23.6272H42.1766V23.9237ZM39.8048 23.9237H38.6189V23.6272H39.8048V23.9237ZM37.433 23.9237H36.2471V23.6272H37.433V23.9237ZM35.0612 23.9237H33.8753V23.6272H35.0612V23.9237ZM32.6893 23.9237H31.5034V23.6272H32.6893V23.9237ZM30.3175 23.9237H29.1316V23.6272H30.3175V23.9237ZM27.9457 23.9237H26.7598V23.6272H27.9457V23.9237ZM25.5739 23.9237H24.388V23.6272H25.5739V23.9237ZM23.2021 23.9237H22.0162V23.6272H23.2021V23.9237ZM20.8303 23.9237H19.6444V23.6272H20.8303V23.9237ZM18.4585 23.9237H17.2726V23.6272H18.4585V23.9237ZM16.0867 23.9237H14.9008V23.6272H16.0867V23.9237ZM13.7149 23.9237H12.529V23.6272H13.7149V23.9237ZM11.3431 23.9237H10.1572V23.6272H11.3431V23.9237ZM8.97125 23.9237H7.78535V23.6272H8.97125V23.9237ZM6.59945 23.9237H5.41354V23.6272H6.59945V23.9237ZM4.22764 23.9237H3.04173V23.6272H4.22764V23.9237ZM1.85583 23.9237H0.669922V23.6272H1.85583V23.9237Z" fill="#CAA9FF"/>
<path d="M54.0356 77.0916H52.8497V76.7952H54.0356V77.0916ZM51.6638 77.0916H50.4779V76.7952H51.6638V77.0916ZM49.292 77.0916H48.1061V76.7952H49.292V77.0916ZM46.9202 77.0916H45.7343V76.7952H46.9202V77.0916ZM44.5484 77.0916H43.3625V76.7952H44.5484V77.0916ZM42.1766 77.0916H40.9907V76.7952H42.1766V77.0916ZM39.8048 77.0916H38.6189V76.7952H39.8048V77.0916ZM37.433 77.0916H36.2471V76.7952H37.433V77.0916ZM35.0612 77.0916H33.8753V76.7952H35.0612V77.0916ZM32.6893 77.0916H31.5034V76.7952H32.6893V77.0916ZM30.3175 77.0916H29.1316V76.7952H30.3175V77.0916ZM27.9457 77.0916H26.7598V76.7952H27.9457V77.0916ZM25.5739 77.0916H24.388V76.7952H25.5739V77.0916ZM23.2021 77.0916H22.0162V76.7952H23.2021V77.0916ZM20.8303 77.0916H19.6444V76.7952H20.8303V77.0916ZM18.4585 77.0916H17.2726V76.7952H18.4585V77.0916ZM16.0867 77.0916H14.9008V76.7952H16.0867V77.0916ZM13.7149 77.0916H12.529V76.7952H13.7149V77.0916ZM11.3431 77.0916H10.1572V76.7952H11.3431V77.0916ZM8.97125 77.0916H7.78535V76.7952H8.97125V77.0916ZM6.59945 77.0916H5.41354V76.7952H6.59945V77.0916ZM4.22764 77.0916H3.04173V76.7952H4.22764V77.0916ZM1.85583 77.0916H0.669922V76.7952H1.85583V77.0916Z" fill="#CAA9FF"/>
<path d="M53.7075 104.411H52.5216V104.115H53.7075V104.411ZM51.3357 104.411H50.1498V104.115H51.3357V104.411ZM48.9639 104.411H47.778V104.115H48.9639V104.411ZM46.5921 104.411H45.4062V104.115H46.5921V104.411ZM44.2203 104.411H43.0344V104.115H44.2203V104.411ZM41.8485 104.411H40.6626V104.115H41.8485V104.411ZM39.4767 104.411H38.2907V104.115H39.4767V104.411ZM37.1048 104.411H35.9189V104.115H37.1048V104.411ZM34.733 104.411H33.5471V104.115H34.733V104.411ZM32.3612 104.411H31.1753V104.115H32.3612V104.411ZM29.9894 104.411H28.8035V104.115H29.9894V104.411ZM27.6176 104.411H26.4317V104.115H27.6176V104.411ZM25.2458 104.411H24.0599V104.115H25.2458V104.411ZM22.874 104.411H21.6881V104.115H22.874V104.411ZM20.5022 104.411H19.3163V104.115H20.5022V104.411ZM18.1304 104.411H16.9445V104.115H18.1304V104.411ZM15.7586 104.411H14.5727V104.115H15.7586V104.411ZM13.3867 104.411H12.2008V104.115H13.3867V104.411ZM11.0149 104.411H9.82903V104.115H11.0149V104.411ZM8.64313 104.411H7.45722V104.115H8.64313V104.411ZM6.27132 104.411H5.08542V104.115H6.27132V104.411ZM3.89951 104.411H2.71361V104.115H3.89951V104.411ZM1.5277 104.411H0.341797V104.115H1.5277V104.411Z" fill="#CAA9FF"/>
<path d="M54.0356 90.536H52.8497V90.2395H54.0356V90.536ZM51.6638 90.536H50.4779V90.2395H51.6638V90.536ZM49.292 90.536H48.1061V90.2395H49.292V90.536ZM46.9202 90.536H45.7343V90.2395H46.9202V90.536ZM44.5484 90.536H43.3625V90.2395H44.5484V90.536ZM42.1766 90.536H40.9907V90.2395H42.1766V90.536ZM39.8048 90.536H38.6189V90.2395H39.8048V90.536ZM37.433 90.536H36.2471V90.2395H37.433V90.536ZM35.0612 90.536H33.8753V90.2395H35.0612V90.536ZM32.6893 90.536H31.5034V90.2395H32.6893V90.536ZM30.3175 90.536H29.1316V90.2395H30.3175V90.536ZM27.9457 90.536H26.7598V90.2395H27.9457V90.536ZM25.5739 90.536H24.388V90.2395H25.5739V90.536ZM23.2021 90.536H22.0162V90.2395H23.2021V90.536ZM20.8303 90.536H19.6444V90.2395H20.8303V90.536ZM18.4585 90.536H17.2726V90.2395H18.4585V90.536ZM16.0867 90.536H14.9008V90.2395H16.0867V90.536ZM13.7149 90.536H12.529V90.2395H13.7149V90.536ZM11.3431 90.536H10.1572V90.2395H11.3431V90.536ZM8.97125 90.536H7.78535V90.2395H8.97125V90.536ZM6.59945 90.536H5.41354V90.2395H6.59945V90.536ZM4.22764 90.536H3.04173V90.2395H4.22764V90.536ZM1.85583 90.536H0.669922V90.2395H1.85583V90.536Z" fill="#CAA9FF"/>
<path d="M54.0356 117.409H52.8497V117.112H54.0356V117.409ZM51.6638 117.409H50.4779V117.112H51.6638V117.409ZM49.292 117.409H48.1061V117.112H49.292V117.409ZM46.9202 117.409H45.7343V117.112H46.9202V117.409ZM44.5484 117.409H43.3625V117.112H44.5484V117.409ZM42.1766 117.409H40.9907V117.112H42.1766V117.409ZM39.8048 117.409H38.6189V117.112H39.8048V117.409ZM37.433 117.409H36.2471V117.112H37.433V117.409ZM35.0612 117.409H33.8753V117.112H35.0612V117.409ZM32.6893 117.409H31.5034V117.112H32.6893V117.409ZM30.3175 117.409H29.1316V117.112H30.3175V117.409ZM27.9457 117.409H26.7598V117.112H27.9457V117.409ZM25.5739 117.409H24.388V117.112H25.5739V117.409ZM23.2021 117.409H22.0162V117.112H23.2021V117.409ZM20.8303 117.409H19.6444V117.112H20.8303V117.409ZM18.4585 117.409H17.2726V117.112H18.4585V117.409ZM16.0867 117.409H14.9008V117.112H16.0867V117.409ZM13.7149 117.409H12.529V117.112H13.7149V117.409ZM11.3431 117.409H10.1572V117.112H11.3431V117.409ZM8.97125 117.409H7.78535V117.112H8.97125V117.409ZM6.59945 117.409H5.41354V117.112H6.59945V117.409ZM4.22764 117.409H3.04173V117.112H4.22764V117.409ZM1.85583 117.409H0.669922V117.112H1.85583V117.409Z" fill="#CAA9FF"/>
<path d="M54.0356 130.845H52.8497V130.548H54.0356V130.845ZM51.6638 130.845H50.4779V130.548H51.6638V130.845ZM49.292 130.845H48.1061V130.548H49.292V130.845ZM46.9202 130.845H45.7343V130.548H46.9202V130.845ZM44.5484 130.845H43.3625V130.548H44.5484V130.845ZM42.1766 130.845H40.9907V130.548H42.1766V130.845ZM39.8048 130.845H38.6189V130.548H39.8048V130.845ZM37.433 130.845H36.2471V130.548H37.433V130.845ZM35.0612 130.845H33.8753V130.548H35.0612V130.845ZM32.6893 130.845H31.5034V130.548H32.6893V130.845ZM30.3175 130.845H29.1316V130.548H30.3175V130.845ZM27.9457 130.845H26.7598V130.548H27.9457V130.845ZM25.5739 130.845H24.388V130.548H25.5739V130.845ZM23.2021 130.845H22.0162V130.548H23.2021V130.845ZM20.8303 130.845H19.6444V130.548H20.8303V130.845ZM18.4585 130.845H17.2726V130.548H18.4585V130.845ZM16.0867 130.845H14.9008V130.548H16.0867V130.845ZM13.7149 130.845H12.529V130.548H13.7149V130.845ZM11.3431 130.845H10.1572V130.548H11.3431V130.845ZM8.97125 130.845H7.78535V130.548H8.97125V130.845ZM6.59945 130.845H5.41354V130.548H6.59945V130.845ZM4.22764 130.845H3.04173V130.548H4.22764V130.845ZM1.85583 130.845H0.669922V130.548H1.85583V130.845Z" fill="#CAA9FF"/>
<path d="M10.5721 140H10.2756V138.814H10.5721V140ZM10.5721 137.628H10.2756V136.442H10.5721V137.628ZM10.5721 135.256H10.2756V134.07H10.5721V135.256ZM10.5721 132.885H10.2756V131.699H10.5721V132.885ZM10.5721 130.513H10.2756V129.327H10.5721V130.513ZM10.5721 128.141H10.2756V126.955H10.5721V128.141ZM10.5721 125.769H10.2756V124.583H10.5721V125.769ZM10.5721 123.397H10.2756V122.211H10.5721V123.397ZM10.5721 121.026H10.2756V119.84H10.5721V121.026ZM10.5721 118.654H10.2756V117.468H10.5721V118.654ZM10.5721 116.282H10.2756V115.096H10.5721V116.282ZM10.5721 113.91H10.2756V112.724H10.5721V113.91ZM10.5721 111.538H10.2756V110.352H10.5721V111.538ZM10.5721 109.166H10.2756V107.981H10.5721V109.166ZM10.5721 106.795H10.2756V105.609H10.5721V106.795ZM10.5721 104.423H10.2756V103.237H10.5721V104.423ZM10.5721 102.051H10.2756V100.865H10.5721V102.051ZM10.5721 99.6792H10.2756V98.4933H10.5721V99.6792ZM10.5721 97.3074H10.2756V96.1215H10.5721V97.3074ZM10.5721 94.9356H10.2756V93.7497H10.5721V94.9356ZM10.5721 92.5638H10.2756V91.3779H10.5721V92.5638ZM10.5721 90.192H10.2756V89.0061H10.5721V90.192ZM10.5721 87.8202H10.2756V86.6343H10.5721V87.8202ZM10.5721 85.4484H10.2756V84.2625H10.5721V85.4484ZM10.5721 83.0766H10.2756V81.8907H10.5721V83.0766ZM10.5721 80.7048H10.2756V79.5189H10.5721V80.7048ZM10.5721 78.333H10.2756V77.147H10.5721V78.333ZM10.5721 75.9612H10.2756V74.7752H10.5721V75.9612ZM10.5721 73.5893H10.2756V72.4034H10.5721V73.5893ZM10.5721 71.2175H10.2756V70.0316H10.5721V71.2175ZM10.5721 68.8457H10.2756V67.6598H10.5721V68.8457ZM10.5721 66.4739H10.2756V65.288H10.5721V66.4739ZM10.5721 64.1021H10.2756V62.9162H10.5721V64.1021ZM10.5721 61.7303H10.2756V60.5444H10.5721V61.7303ZM10.5721 59.3585H10.2756V58.1726H10.5721V59.3585ZM10.5721 56.9867H10.2756V55.8008H10.5721V56.9867ZM10.5721 54.6149H10.2756V53.429H10.5721V54.6149ZM10.5721 52.2431H10.2756V51.0571H10.5721V52.2431ZM10.5721 49.8712H10.2756V48.6853H10.5721V49.8712ZM10.5721 47.4994H10.2756V46.3135H10.5721V47.4994ZM10.5721 45.1276H10.2756V43.9417H10.5721V45.1276ZM10.5721 42.7558H10.2756V41.5699H10.5721V42.7558ZM10.5721 40.384H10.2756V39.1981H10.5721V40.384ZM10.5721 38.0122H10.2756V36.8263H10.5721V38.0122ZM10.5721 35.6404H10.2756V34.4545H10.5721V35.6404ZM10.5721 33.2686H10.2756V32.0827H10.5721V33.2686ZM10.5721 30.8968H10.2756V29.7109H10.5721V30.8968ZM10.5721 28.525H10.2756V27.3391H10.5721V28.525ZM10.5721 26.1532H10.2756V24.9672H10.5721V26.1532ZM10.2756 23.7813V22.5954H10.5721V23.7813H10.2756ZM10.5721 21.4095H10.2756V20.2236H10.5721V21.4095ZM10.5721 19.0377H10.2756V17.8518H10.5721V19.0377ZM10.5721 16.6659H10.2756V15.48H10.5721V16.6659ZM10.5721 14.2941H10.2756V13.1082H10.5721V14.2941ZM10.5721 11.9223H10.2756V10.7364H10.5721V11.9223ZM10.5721 9.55049H10.2756V8.36458H10.5721V9.55049ZM10.5721 7.17868H10.2756V5.99277H10.5721V7.17868ZM10.5721 4.80687H10.2756V3.62096H10.5721V4.80687ZM10.5721 2.43506H10.2756V1.24915H10.5721V2.43506ZM10.5721 0.0632482H10.2756V0H10.5721V0.0632482Z" fill="#CAA9FF"/>
<path d="M22.5418 140H22.2454V138.814H22.5418V140ZM22.5418 137.628H22.2454V136.442H22.5418V137.628ZM22.5418 135.256H22.2454V134.07H22.5418V135.256ZM22.5418 132.885H22.2454V131.699H22.5418V132.885ZM22.5418 130.513H22.2454V129.327H22.5418V130.513ZM22.5418 128.141H22.2454V126.955H22.5418V128.141ZM22.5418 125.769H22.2454V124.583H22.5418V125.769ZM22.5418 123.397H22.2454V122.211H22.5418V123.397ZM22.5418 121.026H22.2454V119.84H22.5418V121.026ZM22.5418 118.654H22.2454V117.468H22.5418V118.654ZM22.5418 116.282H22.2454V115.096H22.5418V116.282ZM22.5418 113.91H22.2454V112.724H22.5418V113.91ZM22.5418 111.538H22.2454V110.352H22.5418V111.538ZM22.5418 109.166H22.2454V107.981H22.5418V109.166ZM22.5418 106.795H22.2454V105.609H22.5418V106.795ZM22.5418 104.423H22.2454V103.237H22.5418V104.423ZM22.5418 102.051H22.2454V100.865H22.5418V102.051ZM22.5418 99.6792H22.2454V98.4933H22.5418V99.6792ZM22.5418 97.3074H22.2454V96.1215H22.5418V97.3074ZM22.5418 94.9356H22.2454V93.7497H22.5418V94.9356ZM22.5418 92.5638H22.2454V91.3779H22.5418V92.5638ZM22.5418 90.192H22.2454V89.0061H22.5418V90.192ZM22.5418 87.8202H22.2454V86.6343H22.5418V87.8202ZM22.5418 85.4484H22.2454V84.2625H22.5418V85.4484ZM22.5418 83.0766H22.2454V81.8907H22.5418V83.0766ZM22.5418 80.7048H22.2454V79.5189H22.5418V80.7048ZM22.5418 78.333H22.2454V77.147H22.5418V78.333ZM22.5418 75.9612H22.2454V74.7752H22.5418V75.9612ZM22.5418 73.5893H22.2454V72.4034H22.5418V73.5893ZM22.5418 71.2175H22.2454V70.0316H22.5418V71.2175ZM22.5418 68.8457H22.2454V67.6598H22.5418V68.8457ZM22.5418 66.4739H22.2454V65.288H22.5418V66.4739ZM22.5418 64.1021H22.2454V62.9162H22.5418V64.1021ZM22.5418 61.7303H22.2454V60.5444H22.5418V61.7303ZM22.5418 59.3585H22.2454V58.1726H22.5418V59.3585ZM22.5418 56.9867H22.2454V55.8008H22.5418V56.9867ZM22.5418 54.6149H22.2454V53.429H22.5418V54.6149ZM22.5418 52.2431H22.2454V51.0571H22.5418V52.2431ZM22.5418 49.8712H22.2454V48.6853H22.5418V49.8712ZM22.5418 47.4994H22.2454V46.3135H22.5418V47.4994ZM22.5418 45.1276H22.2454V43.9417H22.5418V45.1276ZM22.5418 42.7558H22.2454V41.5699H22.5418V42.7558ZM22.5418 40.384H22.2454V39.1981H22.5418V40.384ZM22.5418 38.0122H22.2454V36.8263H22.5418V38.0122ZM22.5418 35.6404H22.2454V34.4545H22.5418V35.6404ZM22.5418 33.2686H22.2454V32.0827H22.5418V33.2686ZM22.5418 30.8968H22.2454V29.7109H22.5418V30.8968ZM22.5418 28.525H22.2454V27.3391H22.5418V28.525ZM22.5418 26.1532H22.2454V24.9672H22.5418V26.1532ZM22.5418 23.7813H22.2454V22.5954H22.5418V23.7813ZM22.5418 21.4095H22.2454V20.2236H22.5418V21.4095ZM22.5418 19.0377H22.2454V17.8518H22.5418V19.0377ZM22.5418 16.6659H22.2454V15.48H22.5418V16.6659ZM22.5418 14.2941H22.2454V13.1082H22.5418V14.2941ZM22.5418 11.9223H22.2454V10.7364H22.5418V11.9223ZM22.5418 9.55049H22.2454V8.36458H22.5418V9.55049ZM22.5418 7.17868H22.2454V5.99277H22.5418V7.17868ZM22.5418 4.80687H22.2454V3.62096H22.5418V4.80687ZM22.5418 2.43506H22.2454V1.24915H22.5418V2.43506ZM22.5418 0.0632482H22.2454V0H22.5418V0.0632482Z" fill="#CAA9FF"/>
<path d="M34.5116 140H34.2151V138.814H34.5116V140ZM34.5116 137.628H34.2151V136.442H34.5116V137.628ZM34.5116 135.256H34.2151V134.07H34.5116V135.256ZM34.5116 132.885H34.2151V131.699H34.5116V132.885ZM34.5116 130.513H34.2151V129.327H34.5116V130.513ZM34.5116 128.141H34.2151V126.955H34.5116V128.141ZM34.5116 125.769H34.2151V124.583H34.5116V125.769ZM34.5116 123.397H34.2151V122.211H34.5116V123.397ZM34.5116 121.026H34.2151V119.84H34.5116V121.026ZM34.5116 118.654H34.2151V117.468H34.5116V118.654ZM34.5116 116.282H34.2151V115.096H34.5116V116.282ZM34.5116 113.91H34.2151V112.724H34.5116V113.91ZM34.5116 111.538H34.2151V110.352H34.5116V111.538ZM34.5116 109.166H34.2151V107.981H34.5116V109.166ZM34.5116 106.795H34.2151V105.609H34.5116V106.795ZM34.5116 104.423H34.2151V103.237H34.5116V104.423ZM34.5116 102.051H34.2151V100.865H34.5116V102.051ZM34.5116 99.6792H34.2151V98.4933H34.5116V99.6792ZM34.5116 97.3074H34.2151V96.1215H34.5116V97.3074ZM34.5116 94.9356H34.2151V93.7497H34.5116V94.9356ZM34.5116 92.5638H34.2151V91.3779H34.5116V92.5638ZM34.5116 90.192H34.2151V89.0061H34.5116V90.192ZM34.5116 87.8202H34.2151V86.6343H34.5116V87.8202ZM34.5116 85.4484H34.2151V84.2625H34.5116V85.4484ZM34.5116 83.0766H34.2151V81.8907H34.5116V83.0766ZM34.5116 80.7048H34.2151V79.5189H34.5116V80.7048ZM34.5116 78.333H34.2151V77.147H34.5116V78.333ZM34.5116 75.9612H34.2151V74.7752H34.5116V75.9612ZM34.5116 73.5893H34.2151V72.4034H34.5116V73.5893ZM34.5116 71.2175H34.2151V70.0316H34.5116V71.2175ZM34.5116 68.8457H34.2151V67.6598H34.5116V68.8457ZM34.5116 66.4739H34.2151V65.288H34.5116V66.4739ZM34.5116 64.1021H34.2151V62.9162H34.5116V64.1021ZM34.5116 61.7303H34.2151V60.5444H34.5116V61.7303ZM34.5116 59.3585H34.2151V58.1726H34.5116V59.3585ZM34.5116 56.9867H34.2151V55.8008H34.5116V56.9867ZM34.5116 54.6149H34.2151V53.429H34.5116V54.6149ZM34.5116 52.2431H34.2151V51.0571H34.5116V52.2431ZM34.5116 49.8712H34.2151V48.6853H34.5116V49.8712ZM34.5116 47.4994H34.2151V46.3135H34.5116V47.4994ZM34.5116 45.1276H34.2151V43.9417H34.5116V45.1276ZM34.5116 42.7558H34.2151V41.5699H34.5116V42.7558ZM34.5116 40.384H34.2151V39.1981H34.5116V40.384ZM34.5116 38.0122H34.2151V36.8263H34.5116V38.0122ZM34.5116 35.6404H34.2151V34.4545H34.5116V35.6404ZM34.5116 33.2686H34.2151V32.0827H34.5116V33.2686ZM34.5116 30.8968H34.2151V29.7109H34.5116V30.8968ZM34.5116 28.525H34.2151V27.3391H34.5116V28.525ZM34.5116 26.1532H34.2151V24.9672H34.5116V26.1532ZM34.5116 23.7813H34.2151V22.5954H34.5116V23.7813ZM34.5116 21.4095H34.2151V20.2236H34.5116V21.4095ZM34.5116 19.0377H34.2151V17.8518H34.5116V19.0377ZM34.5116 16.6659H34.2151V15.48H34.5116V16.6659ZM34.5116 14.2941H34.2151V13.1082H34.5116V14.2941ZM34.5116 11.9223H34.2151V10.7364H34.5116V11.9223ZM34.5116 9.55049H34.2151V8.36458H34.5116V9.55049ZM34.5116 7.17868H34.2151V5.99277H34.5116V7.17868ZM34.5116 4.80687H34.2151V3.62096H34.5116V4.80687ZM34.5116 2.43506H34.2151V1.24915H34.5116V2.43506ZM34.5116 0.0632482H34.2151V0H34.5116V0.0632482Z" fill="#CAA9FF"/>
<path d="M46.7462 140H46.4497V138.814H46.7462V140ZM46.7462 137.628H46.4497V136.442H46.7462V137.628ZM46.7462 135.256H46.4497V134.07H46.7462V135.256ZM46.7462 132.885H46.4497V131.699H46.7462V132.885ZM46.7462 130.513H46.4497V129.327H46.7462V130.513ZM46.7462 128.141H46.4497V126.955H46.7462V128.141ZM46.7462 125.769H46.4497V124.583H46.7462V125.769ZM46.7462 123.397H46.4497V122.211H46.7462V123.397ZM46.7462 121.026H46.4497V119.84H46.7462V121.026ZM46.7462 118.654H46.4497V117.468H46.7462V118.654ZM46.7462 116.282H46.4497V115.096H46.7462V116.282ZM46.7462 113.91H46.4497V112.724H46.7462V113.91ZM46.7462 111.538H46.4497V110.352H46.7462V111.538ZM46.7462 109.166H46.4497V107.981H46.7462V109.166ZM46.7462 106.795H46.4497V105.609H46.7462V106.795ZM46.7462 104.423H46.4497V103.237H46.7462V104.423ZM46.7462 102.051H46.4497V100.865H46.7462V102.051ZM46.7462 99.6792H46.4497V98.4933H46.7462V99.6792ZM46.7462 97.3074H46.4497V96.1215H46.7462V97.3074ZM46.7462 94.9356H46.4497V93.7497H46.7462V94.9356ZM46.7462 92.5638H46.4497V91.3779H46.7462V92.5638ZM46.7462 90.192H46.4497V89.0061H46.7462V90.192ZM46.7462 87.8202H46.4497V86.6343H46.7462V87.8202ZM46.7462 85.4484H46.4497V84.2625H46.7462V85.4484ZM46.7462 83.0766H46.4497V81.8907H46.7462V83.0766ZM46.7462 80.7048H46.4497V79.5189H46.7462V80.7048ZM46.7462 78.333H46.4497V77.147H46.7462V78.333ZM46.7462 75.9612H46.4497V74.7752H46.7462V75.9612ZM46.7462 73.5893H46.4497V72.4034H46.7462V73.5893ZM46.7462 71.2175H46.4497V70.0316H46.7462V71.2175ZM46.7462 68.8457H46.4497V67.6598H46.7462V68.8457ZM46.7462 66.4739H46.4497V65.288H46.7462V66.4739ZM46.7462 64.1021H46.4497V62.9162H46.7462V64.1021ZM46.7462 61.7303H46.4497V60.5444H46.7462V61.7303ZM46.7462 59.3585H46.4497V58.1726H46.7462V59.3585ZM46.7462 56.9867H46.4497V55.8008H46.7462V56.9867ZM46.7462 54.6149H46.4497V53.429H46.7462V54.6149ZM46.7462 52.2431H46.4497V51.0571H46.7462V52.2431ZM46.7462 49.8712H46.4497V48.6853H46.7462V49.8712ZM46.7462 47.4994H46.4497V46.3135H46.7462V47.4994ZM46.7462 45.1276H46.4497V43.9417H46.7462V45.1276ZM46.7462 42.7558H46.4497V41.5699H46.7462V42.7558ZM46.7462 40.384H46.4497V39.1981H46.7462V40.384ZM46.7462 38.0122H46.4497V36.8263H46.7462V38.0122ZM46.7462 35.6404H46.4497V34.4545H46.7462V35.6404ZM46.7462 33.2686H46.4497V32.0827H46.7462V33.2686ZM46.7462 30.8968H46.4497V29.7109H46.7462V30.8968ZM46.7462 28.525H46.4497V27.3391H46.7462V28.525ZM46.7462 26.1532H46.4497V24.9672H46.7462V26.1532ZM46.7462 23.7813H46.4497V22.5954H46.7462V23.7813ZM46.7462 21.4095H46.4497V20.2236H46.7462V21.4095ZM46.7462 19.0377H46.4497V17.8518H46.7462V19.0377ZM46.7462 16.6659H46.4497V15.48H46.7462V16.6659ZM46.7462 14.2941H46.4497V13.1082H46.7462V14.2941ZM46.7462 11.9223H46.4497V10.7364H46.7462V11.9223ZM46.7462 9.55049H46.4497V8.36458H46.7462V9.55049ZM46.7462 7.17868H46.4497V5.99277H46.7462V7.17868ZM46.7462 4.80687H46.4497V3.62096H46.7462V4.80687ZM46.7462 2.43506H46.4497V1.24915H46.7462V2.43506ZM46.7462 0.0632482H46.4497V0H46.7462V0.0632482Z" fill="#CAA9FF"/>
</g>
<path d="M62.4634 126.338L110.093 128.916C115.129 128.916 117.588 127.445 117.588 122.864L117.604 19.0101C117.604 12.4323 114.691 10.0368 109.718 10.0368L61.7163 9.91821C57.7593 9.91821 54.8064 12.5272 54.8064 17.6503L56.8185 120.698C56.8185 123.816 59.3445 126.342 62.4634 126.342V126.338Z" fill="#603DB8"/>
<path d="M109.338 12.875H60.0481C57.151 12.875 54.8025 15.2236 54.8025 18.1207V123.67C54.8025 126.567 57.151 128.916 60.0481 128.916H109.338C112.235 128.916 114.584 126.567 114.584 123.67V18.1207C114.584 15.2236 112.235 12.875 109.338 12.875Z" fill="#AF69FF"/>
<path d="M108.204 124.595H61.487C59.9493 124.595 58.7041 123.322 58.7041 121.749V19.5083C58.7041 17.935 59.9493 16.6621 61.487 16.6621H74.2948C75.2435 16.6621 75.5914 17.3223 75.7258 17.9113C75.8602 18.5003 76.3543 19.4371 77.5798 19.4371L93.0519 19.3857C94.9849 19.3857 95.4158 18.3777 95.5343 17.8757C95.7043 17.1483 96.238 16.6621 96.823 16.6621H108.204C109.741 16.6621 110.987 17.935 110.987 19.5083V121.749C110.987 123.322 109.741 124.595 108.204 124.595Z" fill="#F2F0FF"/>
<path d="M108.204 124.793H61.4869C59.8425 124.793 58.5063 123.429 58.5063 121.749V19.5082C58.5063 17.8321 59.8425 16.4644 61.4869 16.4644H74.2947C75.1446 16.4644 75.7099 16.9506 75.9194 17.8677C75.9708 18.097 76.2989 19.2433 77.5796 19.2433L93.0518 19.1919C94.3444 19.1919 95.135 18.7215 95.3405 17.8321C95.5263 17.0296 96.1391 16.4683 96.8229 16.4683H108.204C109.848 16.4683 111.184 17.8321 111.184 19.5121V121.749C111.184 123.425 109.848 124.793 108.204 124.793ZM61.4869 16.8597C60.0599 16.8597 58.9016 18.0456 58.9016 19.5082V121.749C58.9016 123.208 60.0599 124.397 61.4869 124.397H108.204C109.631 124.397 110.789 123.212 110.789 121.749V19.5082C110.789 18.0495 109.631 16.8597 108.204 16.8597H96.8229C96.3209 16.8597 95.8702 17.2945 95.724 17.9191C95.5777 18.5397 95.0401 19.5833 93.0478 19.5833L77.5757 19.6347C76.3503 19.6347 75.7099 18.7294 75.528 17.9546C75.3581 17.2154 74.9548 16.8597 74.2907 16.8597H61.483H61.4869Z" fill="#11366D"/>
<path d="M92.6725 16.7529H78.3902C78.2361 16.7529 78.1135 16.6303 78.1135 16.4762C78.1135 16.322 78.2361 16.1995 78.3902 16.1995H92.6725C92.8266 16.1995 92.9492 16.322 92.9492 16.4762C92.9492 16.6303 92.8266 16.7529 92.6725 16.7529Z" fill="#11366D"/>
<g opacity="0.71">
<mask id="mask0_76_14948" style="mask-type:luminance" maskUnits="userSpaceOnUse" x="91" y="16" width="20" height="109">
<path d="M103.938 16.8638L91.1465 124.425H107.548C109.287 124.425 110.825 123.382 110.825 121.638V19.7534C110.825 18.0022 109.544 16.8638 108.334 16.8638H103.938Z" fill="white"/>
</mask>
<g mask="url(#mask0_76_14948)">
<path d="M97.5662 16.8638L91.1465 34.7986V16.8638H97.5662Z" fill="white"/>
<path d="M91.1465 34.7986L97.5662 16.8638H110.825V124.425H91.1465V34.7986Z" fill="white"/>
</g>
</g>
<g opacity="0.38">
<mask id="mask1_76_14948" style="mask-type:luminance" maskUnits="userSpaceOnUse" x="84" y="16" width="16" height="109">
<path d="M97.5228 16.9902L84.7031 124.445H87.8537L99.859 16.9902H97.5228Z" fill="white"/>
</mask>
<g mask="url(#mask1_76_14948)">
<path d="M94.9256 16.9902L84.7031 46.8474V16.9902H94.9256Z" fill="white"/>
<path d="M99.859 103.237L92.5973 124.445H84.7031V46.8474L94.9256 16.9902H99.859V103.237Z" fill="white"/>
<path d="M92.5974 124.445L99.8591 103.237V124.445H92.5974Z" fill="white"/>
</g>
</g>
<path d="M96.0759 36.8186H74.9866C74.1548 36.8186 73.4805 37.4929 73.4805 38.3247V63.1378C73.4805 63.9696 74.1548 64.6439 74.9866 64.6439H96.0759C96.9077 64.6439 97.582 63.9696 97.582 63.1378V38.3247C97.582 37.4929 96.9077 36.8186 96.0759 36.8186Z" fill="white"/>
<path d="M96.0758 64.8414H74.9826C74.0457 64.8414 73.2788 64.0785 73.2788 63.1377V38.3246C73.2788 37.3838 74.0417 36.6208 74.9826 36.6208H96.0758C97.0127 36.6208 97.7796 37.3838 97.7796 38.3246V63.1377C97.7796 64.0745 97.0167 64.8414 96.0758 64.8414ZM74.9826 37.0162C74.2631 37.0162 73.6741 37.6012 73.6741 38.3246V63.1377C73.6741 63.8571 74.2592 64.4461 74.9826 64.4461H96.0758C96.7953 64.4461 97.3843 63.8611 97.3843 63.1377V38.3246C97.3843 37.6051 96.7992 37.0162 96.0758 37.0162H74.9826Z" fill="#603DB8"/>
<path d="M85.5292 49.8436C87.8631 49.8436 89.755 47.9517 89.755 45.6179C89.755 43.284 87.8631 41.3921 85.5292 41.3921C83.1954 41.3921 81.3035 43.284 81.3035 45.6179C81.3035 47.9517 83.1954 49.8436 85.5292 49.8436Z" fill="#AF69FF"/>
<path d="M83.0548 51.0059H88.0039C90.9805 51.0059 93.3998 53.4251 93.3998 56.4017V60.3824C93.3998 60.841 93.0282 61.2125 92.5697 61.2125H78.493C78.0344 61.2125 77.6628 60.841 77.6628 60.3824V56.4017C77.6628 53.4251 80.0821 51.0059 83.0587 51.0059H83.0548Z" fill="#AF69FF"/>
<path d="M103.29 90.3857L43.8368 88.7176C42.4058 88.7176 41.2437 87.5554 41.2437 86.1244L41.0776 77.914C41.0776 76.483 42.4058 75.052 43.8368 75.052H103.78C104.943 75.052 105.883 75.9928 105.883 77.155V88.2788C105.883 89.7098 104.721 90.3857 103.29 90.3857Z" fill="#A39814"/>
<path d="M103.357 76.55H42.4137C41.7675 76.55 41.2437 77.0739 41.2437 77.7201V89.0455C41.2437 89.6918 41.7675 90.2156 42.4137 90.2156H103.357C104.004 90.2156 104.527 89.6918 104.527 89.0455V77.7201C104.527 77.0739 104.004 76.55 103.357 76.55Z" fill="#D8D20F"/>
<path d="M103.354 90.3619H42.4138C41.6865 90.3619 41.0935 89.769 41.0935 89.0416V77.7202C41.0935 76.9929 41.6865 76.3999 42.4138 76.3999H103.354C104.081 76.3999 104.674 76.9929 104.674 77.7202V89.0416C104.674 89.769 104.081 90.3619 103.354 90.3619ZM42.4138 76.6964C41.8485 76.6964 41.39 77.1549 41.39 77.7202V89.0416C41.39 89.6069 41.8485 90.0655 42.4138 90.0655H103.354C103.919 90.0655 104.377 89.6069 104.377 89.0416V77.7202C104.377 77.1549 103.919 76.6964 103.354 76.6964H42.4138Z" fill="#1C116B"/>
<path d="M88.0197 95.157H41.2437V95.4535H88.0197V95.157Z" fill="#1C116B"/>
<path d="M88.0197 100.237H41.2437V100.533H88.0197V100.237Z" fill="#1C116B"/>
<g opacity="0.42">
<path d="M101.254 78.9417H44.4852C43.8215 78.9417 43.2834 79.4797 43.2834 80.1434V86.824C43.2834 87.4877 43.8215 88.0257 44.4852 88.0257H101.254C101.918 88.0257 102.456 87.4877 102.456 86.824V80.1434C102.456 79.4797 101.918 78.9417 101.254 78.9417Z" fill="#A39814"/>
</g>
<path d="M47.1732 85.9782C47.0626 85.9782 46.9756 85.8912 46.9756 85.7805V80.9816C46.9756 80.8709 47.0626 80.7839 47.1732 80.7839C47.2839 80.7839 47.3709 80.8709 47.3709 80.9816V85.7805C47.3709 85.8912 47.2839 85.9782 47.1732 85.9782Z" fill="#1C116B"/>
</g>
<defs>
<clipPath id="clip0_76_14948">
<rect width="175.316" height="140" fill="white" transform="translate(0.341797)"/>
</clipPath>
</defs>
</svg>
