<svg width="37" height="19" viewBox="0 0 37 19" fill="none" xmlns="http://www.w3.org/2000/svg">
<path d="M2.7786 18.0255L2.62227 18.0544L2.11268 17.8258C2.06278 17.8041 2.01899 17.7865 1.98131 17.7729C1.94363 17.7593 1.90857 17.7503 1.87611 17.746C1.84366 17.7417 1.81091 17.7426 1.77786 17.7487C1.74013 17.7557 1.70998 17.7679 1.6874 17.7854C1.66442 17.8029 1.64927 17.824 1.64192 17.8487C1.63458 17.8733 1.63564 17.8996 1.64511 17.9275C1.65486 17.9562 1.67158 17.9799 1.69525 17.9986C1.71853 18.0172 1.74698 18.0298 1.78059 18.0364C1.81411 18.0426 1.85128 18.0419 1.89212 18.0344L1.94325 18.1851C1.86742 18.1991 1.7972 18.1986 1.73261 18.1836C1.66801 18.1686 1.61282 18.1417 1.56703 18.103C1.52115 18.064 1.4884 18.0155 1.4688 17.9577C1.44891 17.8991 1.4464 17.8448 1.46128 17.7949C1.47616 17.7449 1.5055 17.7029 1.5493 17.6688C1.59301 17.6344 1.64831 17.6111 1.7152 17.5987C1.75992 17.5905 1.80599 17.5886 1.85341 17.5932C1.90083 17.5977 1.95614 17.611 2.01936 17.6329C2.08249 17.6545 2.16099 17.6868 2.25488 17.7297L2.51543 17.8418L2.5236 17.8403L2.39438 17.4593L2.57522 17.426L2.7786 18.0255Z" fill="#AAAAAA"/>
<path d="M2.43833 16.9512C2.46218 17.0215 2.45835 17.0863 2.42683 17.1457C2.39483 17.2048 2.33733 17.2564 2.25434 17.3005C2.17086 17.3443 2.06398 17.3783 1.9337 17.4023C1.80333 17.4261 1.68791 17.433 1.58744 17.4231C1.48649 17.413 1.4034 17.3873 1.33818 17.3461C1.27287 17.3046 1.22833 17.2488 1.20457 17.1788C1.18082 17.1088 1.1845 17.0441 1.21563 16.9848C1.24676 16.9255 1.30367 16.874 1.38637 16.8303C1.46898 16.7864 1.57522 16.7524 1.70511 16.7284C1.83578 16.7043 1.95198 16.6972 2.05371 16.7072C2.15495 16.717 2.23843 16.7426 2.30413 16.784C2.36974 16.8251 2.41447 16.8808 2.43833 16.9512ZM2.25574 16.9849C2.2372 16.9302 2.18582 16.8938 2.1016 16.8758C2.01689 16.8575 1.90279 16.8617 1.75929 16.8881C1.6644 16.9056 1.58714 16.9276 1.52751 16.954C1.46788 16.9805 1.42622 17.0099 1.40254 17.0425C1.37846 17.075 1.37256 17.1094 1.38482 17.1456C1.40327 17.1999 1.4548 17.2361 1.53941 17.2541C1.62363 17.2721 1.73695 17.2681 1.87938 17.2422C1.97476 17.2249 2.0525 17.2031 2.11262 17.1769C2.17264 17.1504 2.21468 17.1208 2.23876 17.0883C2.26244 17.0558 2.26811 17.0213 2.25574 16.9849Z" fill="#AAAAAA"/>
<path d="M2.16624 16.1491C2.1901 16.2194 2.18626 16.2842 2.15475 16.3436C2.12274 16.4027 2.06525 16.4543 1.98225 16.4984C1.89878 16.5422 1.7919 16.5762 1.66162 16.6002C1.53124 16.624 1.41582 16.6309 1.31536 16.621C1.2144 16.6109 1.13132 16.5852 1.0661 16.544C1.00078 16.5025 0.956244 16.4467 0.932487 16.3767C0.908729 16.3067 0.912415 16.242 0.943544 16.1827C0.974673 16.1234 1.03159 16.0719 1.11429 16.0282C1.19689 15.9843 1.30314 15.9503 1.43303 15.9263C1.56369 15.9022 1.67989 15.8951 1.78162 15.9051C1.88287 15.9149 1.96634 15.9404 2.03205 15.9819C2.09766 16.023 2.14239 16.0787 2.16624 16.1491ZM1.98366 16.1827C1.96512 16.1281 1.91373 16.0917 1.82951 16.0737C1.74481 16.0554 1.63071 16.0596 1.48721 16.086C1.39232 16.1035 1.31506 16.1255 1.25543 16.1519C1.19579 16.1784 1.15414 16.2078 1.13045 16.2403C1.10638 16.2729 1.10047 16.3073 1.11274 16.3434C1.13118 16.3978 1.18271 16.434 1.26732 16.452C1.35154 16.47 1.46486 16.466 1.6073 16.4401C1.70267 16.4228 1.78042 16.401 1.84053 16.3748C1.90055 16.3483 1.9426 16.3187 1.96667 16.2862C1.99036 16.2537 1.99602 16.2192 1.98366 16.1827Z" fill="#AAAAAA"/>
<path d="M2.39415 10.7943C2.36457 10.854 2.32434 10.9034 2.27347 10.9424C2.22273 10.9812 2.16587 11.0074 2.10288 11.0211C2.03989 11.0348 1.97541 11.0339 1.90944 11.0183L1.98667 10.8625C2.01861 10.8694 2.04968 10.869 2.07987 10.8613C2.10969 10.8536 2.13669 10.8399 2.16086 10.8204C2.18503 10.8008 2.20416 10.7768 2.21827 10.7484C2.23333 10.718 2.23953 10.6892 2.23686 10.6619C2.23381 10.6345 2.22258 10.6108 2.20317 10.5907C2.18376 10.5706 2.15704 10.5562 2.12301 10.5475C2.08813 10.538 2.05396 10.5365 2.02052 10.5429C1.98707 10.5494 1.95645 10.5635 1.92865 10.5852C1.90099 10.6067 1.87825 10.6354 1.86045 10.6713L1.82327 10.7463L1.66172 10.7037L1.6989 10.6287C1.71355 10.5991 1.71939 10.5714 1.71641 10.5456C1.71357 10.5196 1.70269 10.4969 1.68375 10.4775C1.66445 10.458 1.63797 10.444 1.60431 10.4355C1.57169 10.4265 1.54059 10.4244 1.51101 10.4291C1.48119 10.4334 1.45457 10.4437 1.43116 10.4601C1.40788 10.4761 1.38966 10.4974 1.37652 10.5239C1.36364 10.5499 1.35813 10.5756 1.35998 10.6011C1.36183 10.6266 1.37126 10.6492 1.38827 10.669C1.40491 10.6887 1.42922 10.7032 1.46119 10.7126L1.38786 10.8605C1.32364 10.8423 1.27355 10.8137 1.23761 10.7745C1.20142 10.735 1.18054 10.6895 1.17496 10.638C1.16901 10.5864 1.17965 10.5332 1.2069 10.4782C1.23498 10.4216 1.27385 10.3762 1.32353 10.3421C1.37296 10.3077 1.42765 10.2854 1.48759 10.2753C1.54754 10.2652 1.60688 10.2679 1.66563 10.2834C1.73091 10.3003 1.77853 10.3288 1.80849 10.3689C1.83858 10.4087 1.84904 10.4533 1.83986 10.5028L1.8489 10.5052C1.88978 10.4485 1.94257 10.4107 2.00727 10.3918C2.07173 10.3726 2.14005 10.3727 2.21221 10.392C2.27698 10.4091 2.32827 10.438 2.36606 10.4786C2.40362 10.5188 2.42518 10.5663 2.43076 10.6212C2.43648 10.6758 2.42427 10.7335 2.39415 10.7943Z" fill="#AAAAAA"/>
<path d="M2.78166 10.0267C2.74783 10.0949 2.69526 10.1473 2.62395 10.1838C2.5524 10.2199 2.4655 10.2393 2.36324 10.242C2.26074 10.2443 2.14642 10.2288 2.02026 10.1955C1.89425 10.162 1.79343 10.1205 1.71781 10.0712C1.64194 10.0215 1.59272 9.96616 1.57012 9.90522C1.54767 9.84399 1.55328 9.7794 1.58697 9.71144C1.62066 9.64347 1.67297 9.5912 1.7439 9.55462C1.81484 9.51805 1.90117 9.4985 2.00292 9.49598C2.1048 9.49319 2.21863 9.50839 2.34441 9.54158C2.47094 9.57497 2.57251 9.61661 2.64912 9.66651C2.7255 9.71603 2.7751 9.77145 2.79794 9.83278C2.82091 9.89382 2.81548 9.95847 2.78166 10.0267ZM2.60485 9.98005C2.63115 9.927 2.61631 9.87576 2.56033 9.82631C2.50412 9.77649 2.40654 9.73324 2.26758 9.69657C2.1757 9.67232 2.09501 9.65899 2.02551 9.65659C1.95602 9.65418 1.89908 9.66165 1.85472 9.679C1.80997 9.69624 1.7789 9.72241 1.76151 9.7575C1.73536 9.81027 1.75045 9.86142 1.8068 9.91097C1.86277 9.96042 1.9596 10.0035 2.09729 10.0401C2.18942 10.0647 2.27035 10.0784 2.34008 10.0812C2.40996 10.0837 2.46726 10.0764 2.51201 10.0591C2.55638 10.0418 2.58733 10.0154 2.60485 9.98005Z" fill="#AAAAAA"/>
<path d="M3.16747 9.24834C3.13365 9.31658 3.08108 9.36894 3.00977 9.40542C2.93822 9.44152 2.85131 9.46092 2.74906 9.46361C2.64656 9.46593 2.53223 9.45044 2.40608 9.41715C2.28006 9.38359 2.17925 9.34214 2.10362 9.29282C2.02776 9.24312 1.97853 9.1878 1.95594 9.12685C1.93348 9.06563 1.9391 9.00103 1.97278 8.93307C2.00647 8.86511 2.05878 8.81284 2.12972 8.77626C2.20065 8.73968 2.28699 8.72013 2.38873 8.71762C2.49062 8.71482 2.60444 8.73002 2.73022 8.76321C2.85675 8.7966 2.95832 8.83825 3.03494 8.88814C3.11132 8.93767 3.16092 8.99309 3.18375 9.05441C3.20672 9.11546 3.2013 9.1801 3.16747 9.24834ZM2.99067 9.20168C3.01696 9.14864 3.00212 9.09739 2.94615 9.04794C2.88994 8.99812 2.79235 8.95487 2.6534 8.9182C2.56151 8.89395 2.48082 8.88063 2.41133 8.87822C2.34183 8.87582 2.2849 8.88328 2.24053 8.90063C2.19579 8.91788 2.16472 8.94404 2.14733 8.97913C2.12117 9.0319 2.13627 9.08306 2.19262 9.1326C2.24859 9.18205 2.34542 9.2251 2.48311 9.26175C2.57523 9.28637 2.65616 9.30007 2.7259 9.30286C2.79577 9.30536 2.85308 9.29799 2.89782 9.28075C2.94219 9.2634 2.97314 9.23705 2.99067 9.20168Z" fill="#AAAAAA"/>
<path d="M6.87142 4.28858L6.76451 4.18522L6.68356 3.47228L6.80152 3.40665L6.95374 3.55382L6.88182 3.59383L6.93729 4.07473L6.94309 4.08033L7.52471 3.75672L7.63525 3.86359L6.87142 4.28858ZM7.47761 4.16109L7.30727 3.9964L7.26134 3.94908L6.73727 3.4424L6.90509 3.34902L7.64735 4.06664L7.47761 4.16109Z" fill="#AAAAAA"/>
<path d="M8.30328 3.72322C8.22432 3.76715 8.14145 3.79025 8.05467 3.79253C7.96797 3.7944 7.8808 3.7761 7.79317 3.73764C7.70561 3.69876 7.62136 3.64019 7.54042 3.56193C7.4598 3.4835 7.40612 3.40848 7.37939 3.33686C7.35273 3.26484 7.35255 3.19869 7.37885 3.13842C7.40547 3.07797 7.4581 3.02587 7.53674 2.98212C7.61537 2.93836 7.69796 2.91523 7.7845 2.91272C7.87104 2.9102 7.95785 2.92815 8.04492 2.96656C8.13231 3.0048 8.21635 3.06292 8.29705 3.14095C8.37824 3.21944 8.4324 3.29493 8.45954 3.36742C8.48675 3.4395 8.48717 3.50588 8.4608 3.56657C8.43474 3.62707 8.38223 3.67929 8.30328 3.72322ZM8.18984 3.61354C8.25121 3.57939 8.27681 3.53037 8.26662 3.46648C8.25652 3.40217 8.20688 3.32692 8.11773 3.24072C8.05877 3.18373 8.00109 3.14037 7.94468 3.11067C7.88826 3.08096 7.83505 3.06456 7.78502 3.06148C7.73475 3.05817 7.68932 3.0678 7.64873 3.09039C7.58767 3.12436 7.56236 3.17341 7.57278 3.23754C7.58297 3.30143 7.63212 3.37621 7.72023 3.46189C7.77911 3.5193 7.83671 3.56306 7.89305 3.59318C7.9497 3.62312 8.00316 3.63975 8.05343 3.64307C8.10345 3.64615 8.14892 3.63631 8.18984 3.61354Z" fill="#AAAAAA"/>
<path d="M9.20388 3.22213C9.12492 3.26606 9.04205 3.28916 8.95527 3.29144C8.86857 3.29331 8.7814 3.27501 8.69377 3.23655C8.60621 3.19767 8.52196 3.1391 8.44102 3.06084C8.3604 2.98241 8.30672 2.90739 8.27999 2.83577C8.25333 2.76374 8.25315 2.6976 8.27945 2.63733C8.30607 2.57688 8.3587 2.52478 8.43733 2.48103C8.51597 2.43727 8.59856 2.41414 8.6851 2.41163C8.77164 2.40911 8.85845 2.42706 8.94552 2.46547C9.03291 2.5037 9.11695 2.56183 9.19765 2.63986C9.27884 2.71834 9.333 2.79384 9.36014 2.86633C9.38735 2.93841 9.38777 3.00479 9.3614 3.06547C9.33534 3.12598 9.28283 3.17819 9.20388 3.22213ZM9.09044 3.11245C9.15181 3.0783 9.17741 3.02928 9.16722 2.96539C9.15712 2.90108 9.10748 2.82583 9.01833 2.73963C8.95937 2.68263 8.90169 2.63928 8.84527 2.60957C8.78886 2.57987 8.73564 2.56347 8.68562 2.56039C8.63535 2.55708 8.58992 2.56671 8.54933 2.5893C8.48827 2.62327 8.46296 2.67232 8.47338 2.73645C8.48357 2.80034 8.53272 2.87512 8.62083 2.9608C8.67971 3.01821 8.73731 3.06197 8.79365 3.09209C8.8503 3.12203 8.90376 3.13866 8.95402 3.14198C9.00405 3.14506 9.04952 3.13522 9.09044 3.11245Z" fill="#AAAAAA"/>
<path d="M17.1395 1.09397C17.0594 1.09666 16.9871 1.08807 16.9226 1.06821C16.858 1.04804 16.806 1.01923 16.7666 0.981768C16.7275 0.944292 16.7053 0.900665 16.7 0.850885L16.9162 0.843613C16.9223 0.880434 16.9459 0.909909 16.9869 0.932039C17.0279 0.953876 17.0762 0.963859 17.1318 0.961987C17.1755 0.960519 17.2139 0.95188 17.2471 0.936071C17.2802 0.920261 17.3059 0.898975 17.324 0.872212C17.3421 0.845449 17.35 0.815356 17.3476 0.781934C17.3461 0.747899 17.3345 0.71802 17.313 0.692297C17.2914 0.666573 17.2628 0.646819 17.2271 0.633032C17.1914 0.618953 17.1509 0.612674 17.1057 0.614196C17.0688 0.615141 17.0329 0.621346 16.9979 0.63281C16.9628 0.644274 16.9354 0.658715 16.9155 0.676133L16.713 0.658703L16.7503 0.191964L17.4637 0.167966L17.4716 0.304348L16.9426 0.322144L16.921 0.562224L16.9282 0.561982C16.9499 0.541563 16.9811 0.524201 17.022 0.509896C17.0629 0.495297 17.1082 0.487163 17.1578 0.485493C17.2323 0.482988 17.2995 0.493657 17.3594 0.517501C17.4193 0.541051 17.4674 0.574698 17.5036 0.618441C17.5399 0.662183 17.5597 0.712944 17.563 0.770723C17.5664 0.830262 17.5507 0.883981 17.5158 0.93188C17.4812 0.979473 17.4315 1.01773 17.3666 1.04666C17.3021 1.07528 17.2264 1.09105 17.1395 1.09397Z" fill="#AAAAAA"/>
<path d="M18.2369 1.0619C18.138 1.06523 18.0521 1.04975 17.9791 1.01547C17.9065 0.980889 17.8492 0.929481 17.8071 0.86125C17.7654 0.792712 17.7418 0.709316 17.7361 0.611063C17.7308 0.512796 17.745 0.428568 17.7786 0.358378C17.8126 0.287881 17.8638 0.233263 17.9322 0.194525C18.0009 0.155773 18.0845 0.13474 18.183 0.131427C18.2815 0.128114 18.3672 0.14345 18.4402 0.177435C18.5132 0.21142 18.5705 0.262388 18.6121 0.330339C18.6542 0.398277 18.678 0.481226 18.6837 0.579186C18.6894 0.677733 18.6752 0.762548 18.6413 0.833631C18.6076 0.904408 18.5565 0.959319 18.4877 0.998364C18.4194 1.0374 18.3358 1.05858 18.2369 1.0619ZM18.2289 0.9242C18.3058 0.921614 18.3648 0.891858 18.4061 0.834931C18.4477 0.777696 18.4654 0.694967 18.4591 0.586741C18.4549 0.515178 18.4413 0.455396 18.418 0.407396C18.3948 0.359396 18.3638 0.323704 18.3252 0.30032C18.2865 0.276642 18.2417 0.265658 18.1909 0.267369C18.1144 0.269941 18.0556 0.299837 18.0144 0.357058C17.9732 0.413985 17.9554 0.496129 17.9613 0.603488C17.965 0.675358 17.9783 0.735447 18.0012 0.783753C18.0244 0.832047 18.0554 0.868032 18.0941 0.891709C18.1327 0.915094 18.1777 0.925924 18.2289 0.9242Z" fill="#AAAAAA"/>
<path d="M19.3648 1.02396C19.2659 1.02729 19.18 1.01181 19.107 0.977532C19.0344 0.942947 18.9771 0.891539 18.935 0.823308C18.8934 0.75477 18.8697 0.671374 18.864 0.573121C18.8587 0.474854 18.8729 0.390626 18.9065 0.320436C18.9405 0.249939 18.9917 0.195321 19.0601 0.156583C19.1288 0.117831 19.2125 0.0967981 19.3109 0.0934852C19.4094 0.0901723 19.4952 0.105508 19.5681 0.139493C19.6411 0.173478 19.6984 0.224446 19.74 0.292397C19.7821 0.360335 19.8059 0.443284 19.8116 0.541244C19.8173 0.639791 19.8032 0.724606 19.7692 0.795689C19.7356 0.866466 19.6844 0.921377 19.6156 0.960422C19.5473 0.999454 19.4637 1.02063 19.3648 1.02396ZM19.3568 0.886258C19.4337 0.883673 19.4928 0.853916 19.534 0.796989C19.5756 0.739755 19.5933 0.657025 19.587 0.548799C19.5829 0.477236 19.5692 0.417454 19.5459 0.369454C19.5227 0.321454 19.4917 0.285762 19.4531 0.262378C19.4144 0.2387 19.3697 0.227717 19.3188 0.229427C19.2423 0.231999 19.1835 0.261895 19.1423 0.319116C19.1011 0.376044 19.0834 0.458187 19.0892 0.565546C19.0929 0.637416 19.1062 0.697505 19.1291 0.745811C19.1524 0.794105 19.1833 0.83009 19.222 0.853768C19.2606 0.877152 19.3056 0.887982 19.3568 0.886258Z" fill="#AAAAAA"/>
<path d="M28.2454 2.90536C28.1981 2.87968 28.1579 2.8488 28.1245 2.81271C28.0914 2.77638 28.0703 2.73501 28.0612 2.68859C28.0524 2.64193 28.0598 2.59036 28.0836 2.53387C28.1076 2.47715 28.1533 2.41544 28.2205 2.34873C28.2829 2.28635 28.3476 2.23558 28.4146 2.19642C28.4816 2.15726 28.5489 2.12992 28.6165 2.11442C28.6843 2.09868 28.751 2.09472 28.8166 2.10255C28.8825 2.11055 28.9452 2.13047 29.0046 2.16232C29.0669 2.19572 29.1131 2.23433 29.1431 2.27814C29.1735 2.32213 29.1879 2.36774 29.1863 2.41497C29.1849 2.46196 29.1682 2.50692 29.1361 2.54986L28.9593 2.4551C28.9783 2.42227 28.9821 2.39003 28.9706 2.35837C28.9597 2.32665 28.9329 2.29936 28.8903 2.27651C28.8215 2.23965 28.7466 2.2332 28.6656 2.25717C28.5849 2.28132 28.506 2.33161 28.429 2.40804L28.4358 2.41167C28.4725 2.39928 28.511 2.39237 28.5511 2.39093C28.5912 2.38948 28.6311 2.39321 28.6708 2.40211C28.7111 2.41094 28.749 2.42488 28.7845 2.44392C28.8426 2.47507 28.8846 2.51322 28.9103 2.55837C28.9364 2.60369 28.9451 2.65152 28.9364 2.70187C28.9279 2.75199 28.9005 2.79996 28.8541 2.8458C28.8065 2.89388 28.7485 2.92896 28.6803 2.95105C28.6123 2.9729 28.5406 2.98037 28.4652 2.97346C28.3897 2.96655 28.3165 2.94385 28.2454 2.90536ZM28.3512 2.79812C28.3864 2.81698 28.4241 2.82757 28.4645 2.82989C28.5048 2.8322 28.5438 2.82701 28.5813 2.81432C28.6188 2.80163 28.6506 2.78192 28.6769 2.75518C28.7033 2.72927 28.7192 2.70152 28.7245 2.67193C28.7301 2.64251 28.7254 2.61428 28.7103 2.58724C28.6952 2.56019 28.6701 2.53724 28.6349 2.51837C28.6087 2.50435 28.5807 2.49496 28.5507 2.4902C28.5207 2.48544 28.4908 2.48508 28.461 2.48912C28.4314 2.49293 28.4032 2.50077 28.3764 2.51266C28.3502 2.52448 28.3273 2.5399 28.3078 2.55894C28.2827 2.58449 28.2674 2.61218 28.2619 2.64201C28.2563 2.67183 28.261 2.70059 28.276 2.72828C28.2909 2.75597 28.316 2.77925 28.3512 2.79812Z" fill="#AAAAAA"/>
<path d="M29.1291 3.38515C29.0494 3.3424 28.9958 3.29088 28.9683 3.2306C28.9414 3.17026 28.9407 3.10376 28.9663 3.03111C28.9924 2.9584 29.0452 2.88231 29.1248 2.80286C29.2046 2.72359 29.2876 2.66422 29.3737 2.62475C29.4604 2.58522 29.5468 2.56598 29.6331 2.56704C29.7197 2.56826 29.8027 2.59017 29.8821 2.63274C29.9615 2.67532 30.0151 2.72663 30.0428 2.78667C30.0705 2.84672 30.0715 2.91286 30.0459 2.9851C30.0205 3.05751 29.9682 3.13332 29.8889 3.21254C29.8092 3.29222 29.7257 3.35207 29.6386 3.39207C29.552 3.43201 29.4653 3.45148 29.3785 3.4505C29.292 3.44968 29.2089 3.4279 29.1291 3.38515ZM29.2405 3.2738C29.3025 3.30703 29.3739 3.31084 29.4546 3.28523C29.5358 3.25955 29.6202 3.20295 29.7078 3.11544C29.7657 3.05757 29.8062 3.00454 29.8291 2.95634C29.852 2.90815 29.8584 2.86604 29.8484 2.83002C29.8385 2.79377 29.8131 2.76465 29.7721 2.74267C29.7104 2.70961 29.6391 2.70601 29.5582 2.73186C29.4775 2.75747 29.3935 2.81359 29.3064 2.90022C29.2479 2.95815 29.2069 3.01125 29.1834 3.05951C29.1602 3.10794 29.1536 3.15029 29.1634 3.18654C29.1735 3.22256 29.1992 3.25164 29.2405 3.2738Z" fill="#AAAAAA"/>
<path d="M30.0387 3.87277C29.959 3.83002 29.9054 3.7785 29.8779 3.71822C29.851 3.65788 29.8503 3.59138 29.8759 3.51873C29.902 3.44602 29.9548 3.36994 30.0343 3.29049C30.1142 3.21121 30.1971 3.15184 30.2833 3.11237C30.37 3.07284 30.4564 3.05361 30.5427 3.05466C30.6292 3.05589 30.7122 3.07779 30.7917 3.12036C30.8711 3.16294 30.9247 3.21425 30.9524 3.27429C30.9801 3.33434 30.9811 3.40048 30.9554 3.47272C30.9301 3.54513 30.8778 3.62095 30.7985 3.70016C30.7188 3.77985 30.6353 3.83969 30.5482 3.87969C30.4616 3.91963 30.3749 3.93911 30.2881 3.93812C30.2016 3.9373 30.1184 3.91552 30.0387 3.87277ZM30.1501 3.76142C30.2121 3.79465 30.2835 3.79846 30.3642 3.77285C30.4454 3.74717 30.5298 3.69058 30.6174 3.60306C30.6753 3.54519 30.7157 3.49216 30.7387 3.44397C30.7616 3.39577 30.768 3.35366 30.7579 3.31764C30.7481 3.28139 30.7227 3.25227 30.6817 3.23029C30.62 3.19723 30.5487 3.19363 30.4678 3.21948C30.3871 3.24509 30.3031 3.30121 30.2159 3.38784C30.1575 3.44577 30.1165 3.49887 30.093 3.54713C30.0698 3.59556 30.0632 3.63791 30.073 3.67416C30.0831 3.71018 30.1088 3.73927 30.1501 3.76142Z" fill="#AAAAAA"/>
<path d="M33.5636 8.52864L34.7144 8.63821L34.7223 8.63616L34.5225 8.2162L34.6984 8.17085L34.9742 8.75032L34.7943 8.7967L33.6398 8.68857L33.5636 8.52864Z" fill="#AAAAAA"/>
<path d="M33.9944 9.4859C33.9618 9.4175 33.9575 9.3527 33.9815 9.29149C34.006 9.23046 34.0568 9.17523 34.134 9.12581C34.2116 9.07656 34.3139 9.0356 34.4406 9.00293C34.5675 8.97053 34.6816 8.95588 34.783 8.95899C34.8848 8.96228 34.9707 8.98225 35.0409 9.01889C35.1111 9.05581 35.1625 9.10834 35.1949 9.17646C35.2273 9.24459 35.2317 9.3092 35.2081 9.37031C35.1845 9.43143 35.1343 9.48651 35.0574 9.53556C34.9806 9.58488 34.879 9.62584 34.7526 9.65841C34.6255 9.69119 34.5106 9.70603 34.408 9.70293C34.3059 9.70002 34.2196 9.68015 34.149 9.64333C34.0785 9.60678 34.0269 9.55431 33.9944 9.4859ZM34.172 9.44011C34.1973 9.49328 34.2531 9.52602 34.3392 9.53832C34.4259 9.5508 34.539 9.53905 34.6787 9.50306C34.771 9.47926 34.8452 9.4522 34.9013 9.42189C34.9574 9.39157 34.9952 9.35944 35.0147 9.32549C35.0346 9.29145 35.0362 9.25684 35.0195 9.22167C34.9943 9.16878 34.9385 9.13623 34.8519 9.12402C34.7658 9.11172 34.6534 9.12328 34.5148 9.1587C34.4219 9.18232 34.3472 9.2092 34.2906 9.23933C34.2341 9.26974 34.1959 9.30197 34.176 9.33602C34.1565 9.36997 34.1552 9.40466 34.172 9.44011Z" fill="#AAAAAA"/>
<path d="M34.3657 10.2661C34.3332 10.1977 34.3289 10.1329 34.3528 10.0717C34.3773 10.0107 34.4281 9.95544 34.5053 9.90602C34.583 9.85677 34.6852 9.81581 34.812 9.78314C34.9389 9.75074 35.053 9.73609 35.1543 9.7392C35.2561 9.74249 35.3421 9.76246 35.4122 9.7991C35.4824 9.83602 35.5338 9.88855 35.5662 9.95667C35.5986 10.0248 35.603 10.0894 35.5794 10.1505C35.5558 10.2116 35.5056 10.2667 35.4287 10.3158C35.3519 10.3651 35.2503 10.406 35.1239 10.4386C34.9968 10.4714 34.8819 10.4862 34.7793 10.4831C34.6773 10.4802 34.5909 10.4604 34.5203 10.4235C34.4498 10.387 34.3983 10.3345 34.3657 10.2661ZM34.5434 10.2203C34.5687 10.2735 34.6244 10.3062 34.7105 10.3185C34.7972 10.331 34.9104 10.3193 35.05 10.2833C35.1423 10.2595 35.2165 10.2324 35.2726 10.2021C35.3287 10.1718 35.3665 10.1396 35.3861 10.1057C35.406 10.0717 35.4075 10.037 35.3908 10.0019C35.3656 9.94899 35.3098 9.91644 35.2233 9.90423C35.1371 9.89193 35.0247 9.90348 34.8861 9.93891C34.7933 9.96253 34.7185 9.9894 34.6619 10.0195C34.6055 10.05 34.5673 10.0822 34.5474 10.1162C34.5278 10.1502 34.5265 10.1849 34.5434 10.2203Z" fill="#AAAAAA"/>
<path d="M34.8431 15.7943C34.8649 15.7307 34.8987 15.677 34.9448 15.6329C34.9907 15.5892 35.0437 15.5579 35.1038 15.5392C35.1641 15.5207 35.2265 15.5175 35.291 15.5295C35.3412 15.5383 35.3845 15.5546 35.4209 15.5785C35.4573 15.6023 35.4848 15.6306 35.5033 15.6633C35.5222 15.6964 35.5296 15.7308 35.5257 15.7664L35.5338 15.7679C35.5628 15.7253 35.6066 15.6945 35.6651 15.6754C35.724 15.6567 35.7856 15.6534 35.85 15.6653C35.9115 15.6762 35.962 15.6986 36.0015 15.7328C36.041 15.7669 36.067 15.8085 36.0795 15.8577C36.0924 15.9069 36.0891 15.9599 36.0697 16.0166C36.0505 16.0728 36.0194 16.1203 35.9764 16.1591C35.9337 16.1983 35.8839 16.2262 35.8271 16.2428C35.7701 16.2597 35.7109 16.2626 35.6495 16.2515C35.585 16.2398 35.5329 16.2154 35.4932 16.1782C35.4537 16.1414 35.4348 16.0997 35.4363 16.053L35.4281 16.0515C35.4087 16.0843 35.3801 16.1118 35.3423 16.1341C35.3049 16.1566 35.2624 16.1722 35.2149 16.1809C35.1672 16.1898 35.1183 16.1897 35.0682 16.1806C35.0037 16.1689 34.9508 16.1445 34.9094 16.1074C34.8684 16.0703 34.8418 16.0246 34.8294 15.9703C34.8169 15.9162 34.8215 15.8576 34.8431 15.7943ZM35.0099 15.8245C34.9986 15.8573 34.9965 15.8872 35.0033 15.9142C35.0106 15.9412 35.0259 15.964 35.0493 15.9824C35.0727 16.0009 35.1027 16.0136 35.1391 16.0205C35.1773 16.0271 35.2134 16.0259 35.2474 16.017C35.2817 16.0084 35.3114 15.9933 35.3365 15.9718C35.3615 15.9506 35.3793 15.9245 35.39 15.8934C35.4007 15.8621 35.4019 15.8326 35.3936 15.8051C35.3852 15.7775 35.3687 15.754 35.3441 15.7344C35.3197 15.7151 35.2884 15.7022 35.2502 15.6956C35.2138 15.6887 35.1793 15.6894 35.1467 15.6977C35.1146 15.7061 35.0866 15.721 35.0627 15.7424C35.0388 15.7641 35.0212 15.7915 35.0099 15.8245ZM35.5538 15.9231C35.5446 15.9499 35.5439 15.9749 35.5517 15.9981C35.5593 16.0216 35.5743 16.0417 35.5966 16.0585C35.619 16.0752 35.6474 16.0869 35.6819 16.0934C35.7162 16.0994 35.7482 16.0988 35.7778 16.0918C35.8078 16.0848 35.8334 16.0722 35.8545 16.0539C35.876 16.0357 35.8914 16.0131 35.9007 15.986C35.9101 15.9583 35.9113 15.9327 35.9041 15.909C35.8972 15.8856 35.8828 15.8658 35.8607 15.8493C35.839 15.8333 35.811 15.8223 35.7767 15.8164C35.7422 15.8098 35.7097 15.81 35.6793 15.8169C35.6491 15.8242 35.6229 15.8368 35.6007 15.8549C35.5787 15.8733 35.563 15.896 35.5538 15.9231Z" fill="#AAAAAA"/>
<path d="M34.5666 16.5827C34.5907 16.5123 34.6357 16.4563 34.7015 16.4146C34.7676 16.3734 34.8514 16.3475 34.9528 16.3371C35.0544 16.3271 35.1704 16.3339 35.3006 16.3575C35.4307 16.3814 35.5368 16.415 35.619 16.4583C35.7014 16.502 35.7582 16.5533 35.7892 16.6122C35.8202 16.6714 35.8236 16.7361 35.7996 16.8062C35.7757 16.8763 35.7309 16.9322 35.6655 16.9739C35.6 17.0157 35.5169 17.0416 35.416 17.0518C35.315 17.0622 35.1996 17.0557 35.0698 17.0321C34.9392 17.0085 34.8323 16.9747 34.749 16.9309C34.6661 16.8874 34.609 16.836 34.5776 16.7768C34.5462 16.7178 34.5425 16.6531 34.5666 16.5827ZM34.7491 16.6158C34.7304 16.6705 34.7523 16.7203 34.815 16.7653C34.8779 16.8106 34.9811 16.8463 35.1245 16.8722C35.2193 16.8894 35.3015 16.8966 35.371 16.8938C35.4405 16.8909 35.4961 16.8792 35.5378 16.8586C35.5799 16.8381 35.6071 16.8097 35.6195 16.7735C35.6381 16.7191 35.6159 16.6694 35.5529 16.6243C35.4903 16.5794 35.3879 16.5439 35.2457 16.5178C35.1506 16.5003 35.0681 16.4927 34.9984 16.4952C34.9285 16.498 34.8725 16.5097 34.8304 16.5302C34.7887 16.5508 34.7616 16.5793 34.7491 16.6158Z" fill="#AAAAAA"/>
<path d="M34.2919 17.3857C34.316 17.3153 34.361 17.2593 34.4268 17.2177C34.4929 17.1764 34.5767 17.1505 34.6781 17.1402C34.7797 17.1301 34.8957 17.1369 35.0259 17.1605C35.156 17.1844 35.2621 17.218 35.3443 17.2614C35.4267 17.3051 35.4835 17.3564 35.5145 17.4153C35.5455 17.4745 35.5489 17.5391 35.525 17.6092C35.501 17.6793 35.4563 17.7353 35.3908 17.777C35.3254 17.8187 35.2422 17.8446 35.1413 17.8548C35.0403 17.8652 34.9249 17.8587 34.7951 17.8352C34.6645 17.8115 34.5576 17.7777 34.4744 17.7339C34.3914 17.6904 34.3343 17.639 34.3029 17.5798C34.2715 17.5208 34.2679 17.4561 34.2919 17.3857ZM34.4744 17.4188C34.4557 17.4735 34.4776 17.5234 34.5403 17.5683C34.6032 17.6136 34.7064 17.6493 34.8498 17.6753C34.9446 17.6925 35.0268 17.6996 35.0963 17.6968C35.1658 17.694 35.2214 17.6822 35.2631 17.6616C35.3052 17.6411 35.3324 17.6128 35.3448 17.5766C35.3634 17.5221 35.3412 17.4724 35.2782 17.4274C35.2156 17.3824 35.1132 17.3469 34.971 17.3208C34.8759 17.3033 34.7935 17.2958 34.7237 17.2983C34.6538 17.301 34.5978 17.3127 34.5557 17.3332C34.514 17.3538 34.4869 17.3823 34.4744 17.4188Z" fill="#AAAAAA"/>
</svg>
