<svg width="129" height="90" viewBox="0 0 129 90" fill="none" xmlns="http://www.w3.org/2000/svg">
<g clip-path="url(#clip0_5802_21717)">
<path d="M8.58271 87.9742L8.02796 88.1096L6.22606 86.99C6.04958 86.8839 5.89469 86.7974 5.76139 86.7305C5.62809 86.6636 5.50397 86.6193 5.38902 86.5977C5.27408 86.576 5.15796 86.5795 5.04066 86.6081C4.9068 86.6408 4.79968 86.6991 4.71928 86.7831C4.6375 86.8673 4.58335 86.969 4.55685 87.0881C4.53034 87.2071 4.53359 87.3343 4.56659 87.4695C4.6006 87.6089 4.65938 87.7239 4.74294 87.8147C4.82511 87.9057 4.9257 87.9675 5.04473 87.9998C5.16341 88.0308 5.2952 88.0286 5.44009 87.9933L5.61841 88.7239C5.34932 88.7896 5.10043 88.7853 4.87174 88.711C4.64306 88.6366 4.44794 88.5051 4.28639 88.3165C4.1245 88.1264 4.00937 87.8913 3.94101 87.6112C3.87164 87.3269 3.86381 87.0642 3.91753 86.823C3.97126 86.5818 4.07609 86.3793 4.23205 86.2155C4.38766 86.0503 4.58415 85.9387 4.8215 85.8808C4.98019 85.8421 5.14354 85.8344 5.31153 85.8577C5.47952 85.8811 5.67536 85.9466 5.89903 86.0543C6.12237 86.1606 6.40002 86.3188 6.73199 86.5287L7.65341 87.0781L7.68239 87.071L7.23181 85.2246L7.87349 85.068L8.58271 87.9742ZM7.39755 82.7673C7.48073 83.1081 7.46587 83.4217 7.35298 83.7081C7.23838 83.9934 7.03355 84.2415 6.73849 84.4524C6.44172 84.6622 6.06219 84.8236 5.5999 84.9364C5.13728 85.0478 4.72799 85.0783 4.37205 85.0277C4.01439 84.9761 3.72036 84.8497 3.48998 84.6486C3.25926 84.4461 3.10247 84.1751 3.01963 83.8356C2.93679 83.4962 2.95112 83.1834 3.06263 82.8974C3.17413 82.6114 3.3769 82.3638 3.67091 82.1546C3.96459 81.944 4.34188 81.7825 4.80278 81.67C5.26645 81.5569 5.67849 81.5258 6.03892 81.5767C6.39762 81.6266 6.69303 81.7527 6.92513 81.9548C7.15689 82.1556 7.31436 82.4264 7.39755 82.7673ZM6.74966 82.9254C6.685 82.6604 6.50357 82.4832 6.20538 82.3937C5.90547 82.3031 5.50091 82.3199 4.99171 82.4442C4.655 82.5264 4.38069 82.6306 4.1688 82.7569C3.9569 82.8832 3.80865 83.0246 3.72405 83.1812C3.63808 83.3382 3.61647 83.5043 3.65924 83.6796C3.72356 83.9431 3.90551 84.1195 4.20508 84.2087C4.50327 84.2982 4.90507 84.2821 5.41047 84.1602C5.7489 84.079 6.02492 83.9759 6.23853 83.8506C6.45181 83.724 6.60144 83.5822 6.68742 83.4253C6.77201 83.2686 6.79276 83.102 6.74966 82.9254ZM6.44876 78.8794C6.53194 79.2203 6.51709 79.5339 6.4042 79.8202C6.28959 80.1055 6.08476 80.3536 5.78971 80.5645C5.49293 80.7744 5.1134 80.9357 4.65112 81.0485C4.18849 81.16 3.77921 81.1904 3.42326 81.1398C3.0656 81.0882 2.77158 80.9618 2.54119 80.7607C2.31047 80.5582 2.15369 80.2873 2.07084 79.9478C1.988 79.6083 2.00233 79.2956 2.11384 79.0096C2.22535 78.7236 2.42811 78.476 2.72212 78.2668C3.0158 78.0562 3.39309 77.8947 3.854 77.7822C4.31766 77.669 4.72971 77.6379 5.09013 77.6889C5.44884 77.7388 5.74424 77.8648 5.97634 78.067C6.20811 78.2677 6.36558 78.5386 6.44876 78.8794ZM5.80087 79.0375C5.73621 78.7726 5.55479 78.5953 5.25659 78.5058C4.95668 78.4152 4.55213 78.4321 4.04292 78.5563C3.70621 78.6385 3.43191 78.7427 3.22001 78.869C3.00811 78.9953 2.85987 79.1367 2.77527 79.2934C2.68929 79.4503 2.66769 79.6164 2.71045 79.7917C2.77478 80.0553 2.95672 80.2316 3.2563 80.3208C3.55449 80.4104 3.95629 80.3942 4.46169 80.2723C4.80011 80.1912 5.07613 80.088 5.28975 79.9628C5.50303 79.8362 5.65265 79.6944 5.73863 79.5374C5.82323 79.3808 5.84398 79.2142 5.80087 79.0375Z" fill="#AAAAAA"/>
<path d="M7.36153 52.9792C7.25551 53.2671 7.11195 53.5049 6.93085 53.6925C6.75024 53.8788 6.54815 54.0042 6.32459 54.0687C6.10103 54.1332 5.87247 54.127 5.63893 54.0501L5.91577 53.2983C6.02885 53.3324 6.13899 53.3313 6.24618 53.2951C6.35203 53.2584 6.44799 53.1931 6.53405 53.0991C6.62011 53.0052 6.68842 52.8895 6.73897 52.7522C6.79297 52.6056 6.8155 52.4663 6.80657 52.3344C6.79631 52.2019 6.75697 52.0868 6.68855 51.9889C6.62014 51.8911 6.52571 51.8207 6.40525 51.7779C6.28178 51.7309 6.16069 51.7227 6.042 51.7531C5.92331 51.7836 5.81448 51.851 5.71552 51.9553C5.61704 52.0583 5.5359 52.1965 5.47209 52.3697L5.33882 52.7316L4.76699 52.5211L4.90025 52.1592C4.95277 52.0165 4.97401 51.8828 4.96395 51.758C4.95439 51.6319 4.91625 51.5217 4.84952 51.4275C4.78146 51.3328 4.68787 51.2643 4.56874 51.222C4.45327 51.1779 4.34306 51.1669 4.23811 51.1888C4.13233 51.2088 4.03777 51.258 3.95445 51.3363C3.87161 51.4133 3.80663 51.5158 3.75951 51.6437C3.71337 51.769 3.69333 51.8933 3.69938 52.0167C3.70543 52.14 3.73842 52.2498 3.79834 52.346C3.85694 52.4418 3.94281 52.5127 4.05597 52.5589L3.79313 53.2727C3.56582 53.183 3.38884 53.0429 3.26219 52.8524C3.13469 52.6602 3.06156 52.4395 3.04279 52.1904C3.02269 51.9408 3.06148 51.6834 3.15915 51.4181C3.25978 51.1449 3.39847 50.9265 3.57522 50.763C3.75113 50.5977 3.94544 50.4914 4.15813 50.4441C4.37082 50.3968 4.58113 50.4114 4.78907 50.488C5.02017 50.5716 5.18841 50.7107 5.29381 50.9054C5.3997 51.0988 5.4359 51.315 5.4024 51.5539L5.43439 51.5657C5.5804 51.2925 5.76828 51.1112 5.99801 51.0217C6.2269 50.9304 6.46906 50.9325 6.72449 51.0281C6.95376 51.1125 7.13498 51.2534 7.26816 51.4508C7.4005 51.6464 7.47602 51.877 7.49472 52.1428C7.51391 52.4072 7.46952 52.686 7.36153 52.9792ZM8.75023 49.2759C8.62899 49.6051 8.44162 49.857 8.18812 50.0316C7.93378 50.2044 7.62534 50.2959 7.2628 50.3062C6.89942 50.3147 6.49446 50.2367 6.04792 50.0723C5.60187 49.9065 5.24529 49.7033 4.97819 49.4626C4.71024 49.2202 4.53682 48.9512 4.45792 48.6557C4.37952 48.3589 4.40069 48.0466 4.52144 47.7187C4.64218 47.3908 4.82864 47.1393 5.08081 46.9642C5.33297 46.7891 5.63941 46.6969 6.00013 46.6874C6.36134 46.6766 6.76454 46.7532 7.20975 46.9172C7.65762 47.0821 8.01686 47.2863 8.28748 47.5297C8.55725 47.7713 8.732 48.0408 8.81174 48.3381C8.89197 48.6341 8.87147 48.9466 8.75023 49.2759ZM8.12441 49.0454C8.21865 48.7895 8.16705 48.5412 7.9696 48.3005C7.77132 48.0579 7.42624 47.8461 6.93439 47.6649C6.60915 47.5452 6.32337 47.4785 6.07707 47.465C5.83077 47.4515 5.62881 47.4862 5.47119 47.5689C5.31224 47.6511 5.2016 47.7769 5.13926 47.9462C5.04551 48.2008 5.09802 48.4487 5.2968 48.6899C5.49424 48.9306 5.83665 49.1415 6.32402 49.3225C6.6501 49.4441 6.93671 49.5125 7.18386 49.5278C7.4315 49.5418 7.63479 49.5077 7.79374 49.4255C7.95135 49.3427 8.06158 49.2161 8.12441 49.0454ZM10.1331 45.5205C10.0119 45.8497 9.82452 46.1016 9.57102 46.2762C9.31668 46.4489 9.00824 46.5405 8.6457 46.5508C8.28231 46.5592 7.87735 46.4813 7.43082 46.3168C6.98477 46.1511 6.62819 45.9479 6.36109 45.7072C6.09314 45.4647 5.91972 45.1958 5.84082 44.9003C5.76242 44.6035 5.78359 44.2912 5.90434 43.9633C6.02508 43.6353 6.21154 43.3839 6.46371 43.2088C6.71587 43.0337 7.02231 42.9415 7.38303 42.932C7.74424 42.9212 8.14744 42.9978 8.59265 43.1617C9.04052 43.3267 9.39976 43.5308 9.67038 43.7743C9.94015 44.0159 10.1149 44.2854 10.1946 44.5827C10.2749 44.8786 10.2544 45.1912 10.1331 45.5205ZM9.5073 45.29C9.60155 45.0341 9.54995 44.7858 9.3525 44.545C9.15422 44.3025 8.80914 44.0906 8.31728 43.9095C7.99204 43.7898 7.70627 43.7231 7.45997 43.7096C7.21367 43.6961 7.01171 43.7307 6.85409 43.8135C6.69514 43.8957 6.5845 44.0215 6.52216 44.1908C6.42841 44.4454 6.48092 44.6933 6.6797 44.9345C6.87714 45.1752 7.21955 45.3861 7.70692 45.567C8.033 45.6886 8.31961 45.7571 8.56676 45.7724C8.81439 45.7864 9.01769 45.7523 9.17664 45.67C9.33425 45.5873 9.44448 45.4606 9.5073 45.29Z" fill="#AAAAAA"/>
<path d="M23.3602 21.6242L22.9832 21.1212L22.7102 17.6699L23.1296 17.3555L23.6664 18.0716L23.4106 18.2632L23.5978 20.5913L23.6183 20.6186L25.6864 19.0685L26.0761 19.5885L23.3602 21.6242ZM25.5115 21.0235L24.9109 20.2222L24.749 19.9921L22.9012 17.5267L23.4979 17.0795L26.115 20.5712L25.5115 21.0235ZM28.4469 18.9272C28.1662 19.1376 27.872 19.2472 27.5643 19.2559C27.2569 19.2626 26.9483 19.1718 26.6384 18.9833C26.3288 18.7929 26.0313 18.5073 25.7459 18.1265C25.4616 17.7449 25.2728 17.3805 25.1794 17.0333C25.0864 16.6841 25.087 16.3641 25.1814 16.0732C25.277 15.7815 25.4646 15.5308 25.7442 15.3213C26.0238 15.1117 26.317 15.002 26.6238 14.9921C26.9306 14.9823 27.238 15.0714 27.5459 15.2596C27.8549 15.4469 28.1517 15.7304 28.4363 16.11C28.7225 16.4919 28.913 16.8586 29.0078 17.21C29.1029 17.5595 29.1031 17.8807 29.0084 18.1735C28.9148 18.4656 28.7277 18.7168 28.4469 18.9272ZM28.0469 18.3936C28.2652 18.23 28.3569 17.9935 28.322 17.6841C28.2874 17.3727 28.113 17.0074 27.7986 16.5879C27.5907 16.3106 27.3871 16.0993 27.1877 15.9541C26.9883 15.8089 26.8 15.7281 26.6227 15.7119C26.4446 15.6945 26.2834 15.7399 26.139 15.8481C25.9219 16.0108 25.8313 16.2474 25.867 16.558C25.9018 16.8673 26.0746 17.2305 26.3852 17.6473C26.5928 17.9266 26.7962 18.1399 26.9953 18.2871C27.1955 18.4335 27.3847 18.5154 27.5628 18.5328C27.7401 18.549 27.9014 18.5026 28.0469 18.3936ZM31.6492 16.527C31.3685 16.7374 31.0743 16.847 30.7666 16.8557C30.4592 16.8624 30.1506 16.7716 29.8407 16.5831C29.5311 16.3927 29.2336 16.1071 28.9482 15.7263C28.6639 15.3447 28.4751 14.9803 28.3817 14.6331C28.2887 14.2839 28.2893 13.9639 28.3837 13.673C28.4793 13.3813 28.6669 13.1306 28.9465 12.9211C29.2261 12.7115 29.5193 12.6018 29.8261 12.5919C30.1329 12.5821 30.4403 12.6712 30.7482 12.8594C31.0572 13.0467 31.354 13.3302 31.6386 13.7098C31.9248 14.0917 32.1153 14.4584 32.2101 14.8098C32.3052 15.1593 32.3053 15.4805 32.2107 15.7733C32.1171 16.0653 31.93 16.3166 31.6492 16.527ZM31.2492 15.9934C31.4675 15.8298 31.5591 15.5933 31.5243 15.2839C31.4897 14.9725 31.3153 14.6071 31.0009 14.1877C30.793 13.9104 30.5894 13.6991 30.39 13.5539C30.1906 13.4087 30.0023 13.3279 29.825 13.3117C29.6469 13.2943 29.4857 13.3397 29.3413 13.4479C29.1242 13.6106 29.0335 13.8472 29.0692 14.1577C29.1041 14.4671 29.2768 14.8303 29.5875 15.2471C29.7951 15.5264 29.9984 15.7397 30.1976 15.8869C30.3978 16.0333 30.587 16.1152 30.7651 16.1326C30.9424 16.1488 31.1037 16.1024 31.2492 15.9934Z" fill="#AAAAAA"/>
<path d="M59.8213 6.44312C59.5374 6.45401 59.2813 6.41053 59.0529 6.31268C58.8245 6.21341 58.6407 6.07262 58.5015 5.89033C58.3637 5.70797 58.286 5.49631 58.2682 5.25534L59.0347 5.22593C59.0557 5.40423 59.1387 5.54747 59.2836 5.65563C59.4284 5.76237 59.5995 5.81196 59.7968 5.80439C59.9515 5.79845 60.0878 5.75769 60.2057 5.68209C60.3237 5.60649 60.415 5.50419 60.4797 5.3752C60.5444 5.2462 60.5729 5.10082 60.5653 4.93907C60.5604 4.77436 60.52 4.62949 60.4441 4.50447C60.3683 4.37945 60.2672 4.28311 60.1409 4.21545C60.0146 4.14638 59.8713 4.11492 59.7109 4.12108C59.5802 4.12467 59.4527 4.15372 59.3283 4.20825C59.2038 4.26277 59.1063 4.33191 59.0356 4.41564L58.3178 4.3259L58.4594 2.06882L60.9888 1.97179L61.0141 2.63181L59.1384 2.70377L59.0571 3.8647L59.0826 3.86372C59.1599 3.76551 59.2711 3.68235 59.4164 3.61424C59.5615 3.5447 59.7221 3.50656 59.8981 3.4998C60.1621 3.48968 60.4002 3.54309 60.6122 3.66005C60.8241 3.77559 60.9939 3.93966 61.1215 4.15225C61.249 4.36485 61.3182 4.61096 61.3289 4.89058C61.34 5.17872 61.2831 5.43819 61.1583 5.669C61.0349 5.89833 60.8579 6.0821 60.6272 6.2203C60.3979 6.35703 60.1293 6.43131 59.8213 6.44312ZM63.7121 6.31732C63.3615 6.33077 63.0571 6.2536 62.7991 6.08581C62.5424 5.91655 62.3402 5.66631 62.1925 5.33508C62.0461 5.00238 61.9638 4.59828 61.9455 4.12277C61.9287 3.64722 61.9806 3.2401 62.1012 2.90142C62.2232 2.56126 62.4058 2.29839 62.6488 2.1128C62.8933 1.92716 63.1901 1.82764 63.5393 1.81424C63.8885 1.80085 64.1921 1.87733 64.4501 2.0437C64.708 2.21007 64.9102 2.45819 65.0564 2.78805C65.2041 3.11786 65.2871 3.5198 65.3053 3.99389C65.3236 4.47081 65.2718 4.88077 65.1499 5.22376C65.0294 5.56528 64.8469 5.82957 64.6025 6.01663C64.3595 6.20364 64.0627 6.30387 63.7121 6.31732ZM63.6865 5.65091C63.959 5.64045 64.1689 5.49807 64.3162 5.22376C64.4648 4.94797 64.5291 4.5482 64.509 4.02443C64.4957 3.6781 64.4483 3.38851 64.3669 3.15566C64.2855 2.92282 64.1765 2.74931 64.0399 2.63515C63.9033 2.51956 63.7448 2.46522 63.5645 2.47214C63.2934 2.48254 63.0843 2.62561 62.9371 2.90134C62.7898 3.17565 62.7254 3.57259 62.7439 4.09214C62.7559 4.43995 62.8019 4.73102 62.8819 4.96534C62.9634 5.1996 63.0725 5.37453 63.2091 5.49011C63.3457 5.60428 63.5048 5.65788 63.6865 5.65091ZM67.7111 6.16391C67.3605 6.17736 67.0562 6.10019 66.7981 5.93241C66.5414 5.76314 66.3392 5.5129 66.1915 5.18167C66.0451 4.84897 65.9628 4.44487 65.9445 3.96936C65.9277 3.49381 65.9796 3.08669 66.1002 2.74801C66.2222 2.40786 66.4048 2.14498 66.6478 1.95939C66.8923 1.77375 67.1891 1.67423 67.5383 1.66083C67.8875 1.64744 68.1911 1.72393 68.4491 1.8903C68.7071 2.05666 68.9092 2.30478 69.0555 2.63464C69.2032 2.96445 69.2861 3.3664 69.3043 3.84048C69.3226 4.3174 69.2708 4.72736 69.1489 5.07035C69.0284 5.41187 68.8459 5.67616 68.6015 5.86323C68.3585 6.05024 68.0617 6.15046 67.7111 6.16391ZM67.6855 5.4975C67.958 5.48705 68.1679 5.34466 68.3152 5.07035C68.4638 4.79456 68.5281 4.39479 68.508 3.87103C68.4947 3.52469 68.4473 3.2351 68.3659 3.00225C68.2845 2.76941 68.1755 2.5959 68.0389 2.48174C67.9023 2.36615 67.7438 2.31182 67.5636 2.31873C67.2925 2.32913 67.0833 2.4722 66.9361 2.74793C66.7888 3.02224 66.7244 3.41918 66.743 3.93874C66.7549 4.28655 66.8009 4.57761 66.8809 4.81193C66.9624 5.04619 67.0715 5.22112 67.2081 5.33671C67.3447 5.45087 67.5038 5.50447 67.6855 5.4975Z" fill="#AAAAAA"/>
<path d="M99.1542 15.5036C98.9873 15.3781 98.8452 15.2276 98.7277 15.0521C98.6111 14.8754 98.5371 14.6747 98.5058 14.4499C98.4753 14.2239 98.5027 13.9746 98.5882 13.702C98.6744 13.4282 98.8374 13.1308 99.0771 12.8099C99.2996 12.5098 99.5299 12.2659 99.7681 12.0782C100.006 11.8906 100.245 11.7601 100.485 11.6869C100.726 11.6126 100.963 11.5952 101.195 11.6348C101.428 11.6753 101.65 11.7734 101.86 11.929C102.08 12.0923 102.243 12.2803 102.349 12.4931C102.456 12.7067 102.506 12.9277 102.499 13.1562C102.493 13.3835 102.433 13.6006 102.319 13.8075L101.694 13.3443C101.762 13.186 101.776 13.0301 101.736 12.8766C101.698 12.7228 101.603 12.5901 101.453 12.4784C101.21 12.2983 100.944 12.2651 100.657 12.3789C100.37 12.4935 100.09 12.7347 99.8151 13.1024L99.8391 13.1202C99.9694 13.0612 100.106 13.0288 100.248 13.0229C100.39 13.017 100.532 13.0361 100.672 13.0802C100.815 13.124 100.949 13.1925 101.075 13.2855C101.28 13.4378 101.428 13.6235 101.518 13.8426C101.61 14.0625 101.64 14.2942 101.608 14.5376C101.577 14.7798 101.479 15.0112 101.313 15.2317C101.144 15.463 100.937 15.6312 100.695 15.7362C100.454 15.8401 100.199 15.8743 99.9321 15.8389C99.6648 15.8034 99.4056 15.6917 99.1542 15.5036ZM99.5315 14.9875C99.6559 15.0798 99.7895 15.132 99.9325 15.1443C100.075 15.1566 100.214 15.1325 100.347 15.0721C100.48 15.0117 100.593 14.9172 100.687 14.7885C100.781 14.6639 100.838 14.53 100.857 14.387C100.878 14.2449 100.862 14.1082 100.809 13.9769C100.756 13.8457 100.667 13.7339 100.543 13.6417C100.45 13.5732 100.351 13.527 100.245 13.5032C100.139 13.4793 100.033 13.4768 99.9268 13.4956C99.8218 13.5132 99.7217 13.5504 99.6266 13.6072C99.5334 13.6636 99.452 13.7377 99.3823 13.8293C99.293 13.9522 99.2382 14.0857 99.2179 14.2299C99.1977 14.374 99.2138 14.5133 99.2663 14.6477C99.3187 14.782 99.4071 14.8953 99.5315 14.9875ZM102.278 17.8484C101.996 17.6394 101.807 17.3888 101.711 17.0964C101.616 16.8037 101.615 16.482 101.707 16.1312C101.801 15.7801 101.99 15.4134 102.274 15.0312C102.558 14.6498 102.853 14.3648 103.159 14.1761C103.468 13.9872 103.774 13.8965 104.08 13.9039C104.387 13.9121 104.681 14.0203 104.961 14.2284C105.242 14.4365 105.431 14.6862 105.528 14.9774C105.625 15.2686 105.628 15.5887 105.535 15.9375C105.444 16.2871 105.257 16.6525 104.974 17.0336C104.69 17.417 104.393 17.7043 104.083 17.8955C103.776 18.0864 103.468 18.1783 103.16 18.1712C102.854 18.165 102.559 18.0574 102.278 17.8484ZM102.675 17.3127C102.894 17.4751 103.147 17.4954 103.433 17.3737C103.722 17.2516 104.022 16.9801 104.334 16.559C104.541 16.2806 104.685 16.0251 104.767 15.7926C104.85 15.56 104.873 15.3565 104.838 15.1819C104.804 15.0063 104.714 14.8647 104.569 14.7573C104.351 14.5957 104.099 14.5763 103.811 14.6992C103.525 14.821 103.226 15.0903 102.915 15.5071C102.707 15.7858 102.561 16.0415 102.476 16.2744C102.393 16.5081 102.369 16.7128 102.403 16.8885C102.438 17.063 102.529 17.2044 102.675 17.3127ZM105.492 20.2318C105.211 20.0229 105.022 19.7722 104.925 19.4798C104.831 19.1872 104.83 18.8654 104.922 18.5146C105.016 18.1636 105.205 17.7969 105.488 17.4146C105.773 17.0332 106.068 16.7482 106.374 16.5596C106.682 16.3707 106.989 16.2799 107.295 16.2873C107.602 16.2955 107.896 16.4037 108.176 16.6118C108.457 16.8199 108.646 17.0696 108.743 17.3608C108.84 17.6521 108.842 17.9721 108.75 18.3209C108.659 18.6706 108.472 19.0359 108.189 19.4171C107.905 19.8004 107.608 20.0877 107.298 20.279C106.99 20.4699 106.683 20.5618 106.375 20.5547C106.068 20.5484 105.774 20.4408 105.492 20.2318ZM105.89 19.6961C106.109 19.8585 106.361 19.8789 106.648 19.7571C106.937 19.6351 107.237 19.3635 107.549 18.9425C107.755 18.664 107.9 18.4086 107.982 18.176C108.064 17.9434 108.088 17.7399 108.053 17.5654C108.019 17.3897 107.929 17.2481 107.784 17.1407C107.566 16.9791 107.314 16.9598 107.026 17.0827C106.74 17.2044 106.441 17.4737 106.13 17.8905C105.922 18.1692 105.775 18.425 105.691 18.6578C105.608 18.8915 105.584 19.0962 105.618 19.2719C105.653 19.4464 105.744 19.5878 105.89 19.6961Z" fill="#AAAAAA"/>
<path d="M117.896 42.8512L121.974 43.4121L122.002 43.4024L121.302 41.3653L121.926 41.1505L122.892 43.9614L122.254 44.181L118.163 43.627L117.896 42.8512ZM119.405 47.494C119.291 47.1622 119.277 46.8485 119.363 46.553C119.451 46.2584 119.632 45.9926 119.907 45.7555C120.183 45.5194 120.546 45.3239 120.996 45.1692C121.446 45.0159 121.851 44.9481 122.21 44.9658C122.571 44.9845 122.876 45.0834 123.123 45.2625C123.372 45.443 123.553 45.6985 123.666 46.029C123.78 46.3594 123.794 46.6722 123.709 46.9672C123.625 47.2622 123.445 47.5273 123.172 47.7626C122.899 47.9992 122.538 48.1946 122.089 48.3488C121.638 48.504 121.23 48.5727 120.867 48.555C120.505 48.5382 120.199 48.4397 119.95 48.2597C119.7 48.081 119.519 47.8258 119.405 47.494ZM120.035 47.2772C120.124 47.5351 120.321 47.6949 120.626 47.7568C120.933 47.8195 121.334 47.7656 121.83 47.5952C122.158 47.4826 122.421 47.3537 122.621 47.2085C122.82 47.0633 122.955 46.9089 123.025 46.7452C123.096 46.581 123.102 46.4136 123.044 46.243C122.955 45.9864 122.758 45.8275 122.452 45.7661C122.146 45.7043 121.748 45.7572 121.256 45.9249C120.926 46.0366 120.661 46.1647 120.46 46.309C120.259 46.4546 120.123 46.6095 120.051 46.7737C119.982 46.9374 119.976 47.1052 120.035 47.2772ZM120.706 51.2785C120.592 50.9467 120.578 50.6331 120.664 50.3376C120.752 50.043 120.933 49.7772 121.208 49.5401C121.484 49.304 121.847 49.1085 122.297 48.9538C122.747 48.8005 123.152 48.7327 123.511 48.7504C123.872 48.7691 124.177 48.868 124.424 49.0471C124.673 49.2276 124.854 49.4831 124.967 49.8135C125.081 50.144 125.095 50.4567 125.01 50.7518C124.926 51.0468 124.746 51.3119 124.473 51.5472C124.2 51.7838 123.839 51.9792 123.39 52.1334C122.939 52.2886 122.531 52.3573 122.168 52.3396C121.806 52.3228 121.5 52.2243 121.251 52.0443C121.001 51.8656 120.82 51.6103 120.706 51.2785ZM121.336 51.0617C121.425 51.3196 121.622 51.4795 121.927 51.5413C122.234 51.6041 122.635 51.5502 123.131 51.3798C123.459 51.2671 123.722 51.1382 123.922 50.9931C124.121 50.8479 124.256 50.6935 124.326 50.5297C124.397 50.3656 124.403 50.1982 124.345 50.0276C124.256 49.771 124.059 49.612 123.753 49.5507C123.447 49.4888 123.049 49.5418 122.557 49.7094C122.227 49.8212 121.962 49.9493 121.761 50.0935C121.56 50.2392 121.424 50.3941 121.352 50.5582C121.283 50.722 121.277 50.8898 121.336 51.0617Z" fill="#AAAAAA"/>
<path d="M122.29 78.0367C122.368 77.7298 122.489 77.4705 122.653 77.2587C122.817 77.0483 123.005 76.8985 123.219 76.8093C123.433 76.7218 123.654 76.7079 123.882 76.7675C124.06 76.8115 124.214 76.8916 124.342 77.008C124.471 77.1244 124.568 77.262 124.633 77.4208C124.699 77.5813 124.724 77.7476 124.71 77.9198L124.739 77.9272C124.842 77.722 124.998 77.5741 125.206 77.4835C125.415 77.3946 125.633 77.38 125.861 77.4397C126.079 77.4938 126.258 77.6038 126.397 77.7699C126.537 77.9359 126.628 78.1381 126.671 78.3764C126.716 78.615 126.703 78.8712 126.633 79.1451C126.564 79.4163 126.453 79.6452 126.3 79.8319C126.148 80.0203 125.971 80.1539 125.769 80.2329C125.567 80.3132 125.357 80.3256 125.139 80.2701C124.911 80.2118 124.726 80.0922 124.586 79.9114C124.447 79.7323 124.381 79.5299 124.387 79.3042L124.358 79.2969C124.289 79.455 124.187 79.5873 124.053 79.6938C123.919 79.802 123.769 79.8764 123.6 79.9169C123.431 79.9588 123.258 79.9571 123.08 79.9118C122.852 79.8535 122.664 79.7339 122.519 79.553C122.374 79.3725 122.28 79.1507 122.238 78.8876C122.194 78.6259 122.212 78.3423 122.29 78.0367ZM122.88 78.1874C122.84 78.3457 122.831 78.4902 122.855 78.6209C122.881 78.7519 122.934 78.8624 123.017 78.9524C123.1 79.0424 123.205 79.1045 123.334 79.1389C123.47 79.172 123.598 79.1673 123.718 79.1248C123.84 79.084 123.946 79.012 124.035 78.9088C124.124 78.8069 124.188 78.6809 124.226 78.5309C124.265 78.3795 124.27 78.2371 124.241 78.1036C124.212 77.9701 124.154 77.8556 124.067 77.7601C123.981 77.6663 123.87 77.6029 123.735 77.5699C123.606 77.5355 123.483 77.538 123.368 77.5774C123.254 77.6172 123.154 77.6885 123.069 77.7915C122.984 77.8958 122.921 78.0278 122.88 78.1874ZM124.806 78.6789C124.773 78.8083 124.77 78.9292 124.797 79.0417C124.824 79.1555 124.877 79.2532 124.956 79.3349C125.034 79.4166 125.135 79.4738 125.257 79.5064C125.379 79.5359 125.492 79.5341 125.597 79.5008C125.704 79.4679 125.795 79.4075 125.87 79.3197C125.946 79.2322 126.001 79.1231 126.035 78.9924C126.069 78.8589 126.073 78.7347 126.048 78.6198C126.025 78.5067 125.974 78.4102 125.896 78.3302C125.819 78.252 125.72 78.1981 125.598 78.1686C125.476 78.1359 125.361 78.1359 125.253 78.1685C125.146 78.2027 125.053 78.2633 124.974 78.35C124.896 78.4385 124.84 78.5482 124.806 78.6789ZM121.294 81.8436C121.381 81.5037 121.541 81.2338 121.776 81.0341C122.011 80.8361 122.308 80.7134 122.668 80.6659C123.028 80.6201 123.439 80.656 123.9 80.7736C124.361 80.8927 124.737 81.0581 125.027 81.2701C125.318 81.4837 125.519 81.7334 125.627 82.0192C125.736 82.3064 125.747 82.6192 125.661 82.9578C125.574 83.2964 125.415 83.5657 125.182 83.7658C124.949 83.9658 124.654 84.0891 124.296 84.1356C123.938 84.1835 123.529 84.1488 123.069 84.0315C122.606 83.9135 122.228 83.7473 121.934 83.533C121.641 83.3203 121.439 83.0703 121.329 82.7828C121.219 82.4966 121.207 82.1836 121.294 81.8436ZM121.94 82.0085C121.873 82.2728 121.95 82.5145 122.171 82.7336C122.393 82.9545 122.758 83.1297 123.266 83.2593C123.602 83.345 123.893 83.3819 124.139 83.37C124.386 83.3581 124.583 83.3029 124.731 83.2044C124.881 83.1063 124.978 82.9698 125.023 82.795C125.09 82.5321 125.012 82.291 124.79 82.0714C124.568 81.8523 124.206 81.6778 123.703 81.5478C123.366 81.4604 123.074 81.4218 122.826 81.432C122.579 81.4435 122.38 81.4984 122.23 81.5965C122.082 81.695 121.985 81.8323 121.94 82.0085ZM120.305 85.7213C120.391 85.3814 120.552 85.1115 120.786 84.9118C121.021 84.7138 121.319 84.5911 121.678 84.5436C122.039 84.4978 122.45 84.5337 122.911 84.6514C123.372 84.7704 123.747 84.9358 124.038 85.1478C124.329 85.3614 124.529 85.6111 124.638 85.8969C124.746 86.1841 124.758 86.4969 124.671 86.8355C124.585 87.1741 124.425 87.4434 124.192 87.6435C123.959 87.8436 123.664 87.9668 123.306 88.0133C122.948 88.0612 122.539 88.0265 122.079 87.9092C121.617 87.7912 121.239 87.625 120.944 87.4107C120.651 87.1981 120.45 86.948 120.34 86.6605C120.23 86.3743 120.218 86.0613 120.305 85.7213ZM120.951 85.8862C120.883 86.1505 120.96 86.3922 121.181 86.6113C121.404 86.8322 121.769 87.0075 122.277 87.137C122.612 87.2227 122.903 87.2596 123.15 87.2477C123.396 87.2358 123.594 87.1807 123.742 87.0822C123.891 86.984 123.989 86.8475 124.033 86.6727C124.1 86.4098 124.023 86.1687 123.8 85.9492C123.579 85.73 123.217 85.5555 122.713 85.4255C122.376 85.3381 122.084 85.2995 121.837 85.3097C121.589 85.3212 121.39 85.3761 121.241 85.4742C121.092 85.5727 120.996 85.71 120.951 85.8862Z" fill="#AAAAAA"/>
</g>
<defs>
<clipPath id="clip0_5802_21717">
<rect width="128.64" height="89.7725" fill="white"/>
</clipPath>
</defs>
</svg>
