<svg width="125" height="88" viewBox="0 0 125 88" fill="none" xmlns="http://www.w3.org/2000/svg">
<path d="M6.58241 86.9711L6.02767 87.1065L4.22576 85.9869C4.04928 85.8808 3.89439 85.7943 3.76109 85.7274C3.62779 85.6605 3.50367 85.6163 3.38873 85.5946C3.27378 85.5729 3.15766 85.5764 3.04036 85.605C2.90651 85.6377 2.79938 85.696 2.71898 85.78C2.6372 85.8643 2.58306 85.9659 2.55655 86.085C2.53004 86.204 2.53329 86.3312 2.56629 86.4664C2.6003 86.6058 2.65909 86.7209 2.74264 86.8116C2.82481 86.9027 2.92541 86.9644 3.04443 86.9967C3.16311 87.0277 3.2949 87.0255 3.4398 86.9902L3.61811 87.7209C3.34902 87.7865 3.10013 87.7822 2.87145 87.7079C2.64276 87.6336 2.44764 87.5021 2.28609 87.3134C2.1242 87.1233 2.00908 86.8883 1.94071 86.6081C1.87134 86.3239 1.86352 86.0611 1.91724 85.8199C1.97096 85.5787 2.0758 85.3762 2.23175 85.2124C2.38736 85.0472 2.58385 84.9357 2.8212 84.8777C2.9799 84.839 3.14324 84.8313 3.31123 84.8547C3.47923 84.878 3.67506 84.9435 3.89874 85.0512C4.12207 85.1576 4.39973 85.3157 4.73169 85.5257L5.65312 86.075L5.6821 86.0679L5.23151 84.2215L5.87319 84.0649L6.58241 86.9711Z" fill="#AAAAAA"/>
<path d="M5.39725 81.7642C5.48043 82.105 5.46557 82.4186 5.35269 82.705C5.23808 82.9903 5.03325 83.2384 4.73819 83.4493C4.44142 83.6592 4.06189 83.8205 3.5996 83.9333C3.13698 84.0447 2.7277 84.0752 2.37175 84.0246C2.01409 83.973 1.72007 83.8466 1.48968 83.6455C1.25896 83.443 1.10218 83.172 1.01933 82.8326C0.936489 82.4931 0.950821 82.1803 1.06233 81.8943C1.17384 81.6083 1.3766 81.3607 1.67061 81.1515C1.96429 80.941 2.34158 80.7794 2.80249 80.667C3.26615 80.5538 3.6782 80.5227 4.03862 80.5736C4.39732 80.6235 4.69273 80.7496 4.92483 80.9517C5.15659 81.1525 5.31407 81.4233 5.39725 81.7642ZM4.74936 81.9223C4.6847 81.6573 4.50327 81.4801 4.20508 81.3906C3.90517 81.3 3.50061 81.3168 2.99141 81.4411C2.6547 81.5233 2.3804 81.6275 2.1685 81.7538C1.9566 81.8801 1.80835 82.0215 1.72376 82.1781C1.63778 82.3351 1.61617 82.5012 1.65894 82.6765C1.72326 82.94 1.90521 83.1164 2.20478 83.2056C2.50298 83.2951 2.90477 83.279 3.41017 83.1571C3.7486 83.076 4.02462 82.9728 4.23824 82.8475C4.45151 82.7209 4.60114 82.5791 4.68712 82.4222C4.77172 82.2655 4.79246 82.0989 4.74936 81.9223Z" fill="#AAAAAA"/>
<path d="M4.44846 77.8763C4.53164 78.2172 4.51679 78.5308 4.4039 78.8171C4.2893 79.1024 4.08447 79.3505 3.78941 79.5614C3.49263 79.7713 3.1131 79.9326 2.65082 80.0455C2.1882 80.1569 1.77891 80.1873 1.42297 80.1367C1.0653 80.0851 0.77128 79.9588 0.540895 79.7576C0.310173 79.5552 0.153391 79.2842 0.070547 78.9447C-0.0122965 78.6052 0.00203566 78.2925 0.113544 78.0065C0.225051 77.7205 0.427812 77.4729 0.721827 77.2637C1.0155 77.0531 1.3928 76.8916 1.8537 76.7791C2.31737 76.6659 2.72941 76.6348 3.08983 76.6858C3.44854 76.7357 3.74394 76.8617 3.97604 77.0639C4.20781 77.2647 4.36528 77.5355 4.44846 77.8763ZM3.80057 78.0344C3.73591 77.7695 3.55449 77.5922 3.2563 77.5027C2.95639 77.4121 2.55183 77.429 2.04263 77.5533C1.70592 77.6354 1.43161 77.7396 1.21971 77.8659C1.00782 77.9922 0.859568 78.1337 0.77497 78.2903C0.688993 78.4472 0.667388 78.6134 0.710157 78.7886C0.774479 79.0522 0.956426 79.2286 1.256 79.3178C1.55419 79.4073 1.95599 79.3911 2.46139 79.2692C2.79982 79.1881 3.07584 79.0849 3.28945 78.9597C3.50273 78.8331 3.65236 78.6913 3.73833 78.5343C3.82293 78.3777 3.84368 78.2111 3.80057 78.0344Z" fill="#AAAAAA"/>
<path d="M5.36123 51.9761C5.25521 52.2641 5.11165 52.5018 4.93055 52.6894C4.74994 52.8757 4.54785 53.0011 4.32429 53.0656C4.10073 53.1301 3.87218 53.1239 3.63863 53.047L3.91547 52.2952C4.02856 52.3293 4.13869 52.3282 4.24588 52.292C4.35173 52.2553 4.44769 52.19 4.53375 52.096C4.61981 52.0021 4.68812 51.8865 4.73868 51.7492C4.79267 51.6025 4.8152 51.4632 4.80627 51.3313C4.79601 51.1988 4.75667 51.0837 4.68826 50.9859C4.61984 50.888 4.52541 50.8177 4.40495 50.7748C4.28148 50.7278 4.1604 50.7196 4.0417 50.75C3.92301 50.7805 3.81418 50.8479 3.71522 50.9522C3.61674 51.0552 3.5356 51.1934 3.47179 51.3666L3.33852 51.7285L2.76669 51.518L2.89995 51.1561C2.95247 51.0135 2.97371 50.8797 2.96366 50.7549C2.9541 50.6288 2.91595 50.5186 2.84922 50.4244C2.78116 50.3297 2.68757 50.2612 2.56844 50.2189C2.45297 50.1748 2.34276 50.1638 2.23782 50.1857C2.13203 50.2058 2.03747 50.2549 1.95415 50.3332C1.87131 50.4102 1.80633 50.5127 1.75921 50.6406C1.71307 50.7659 1.69303 50.8903 1.69908 51.0136C1.70513 51.1369 1.73812 51.2467 1.79805 51.3429C1.85664 51.4387 1.94251 51.5097 2.05568 51.5559L1.79283 52.2697C1.56552 52.1799 1.38854 52.0398 1.26189 51.8494C1.1344 51.6571 1.06126 51.4364 1.04249 51.1873C1.02239 50.9377 1.06118 50.6803 1.15886 50.415C1.25948 50.1418 1.39817 49.9234 1.57492 49.7599C1.75084 49.5946 1.94514 49.4883 2.15783 49.441C2.37052 49.3937 2.58084 49.4083 2.78878 49.4849C3.01987 49.5685 3.18811 49.7076 3.29351 49.9023C3.3994 50.0957 3.4356 50.3119 3.4021 50.5508L3.43409 50.5626C3.58011 50.2894 3.76798 50.1081 3.99771 50.0186C4.2266 49.9273 4.46876 49.9294 4.7242 50.025C4.95346 50.1094 5.13469 50.2504 5.26787 50.4477C5.4002 50.6433 5.47572 50.8739 5.49442 51.1397C5.51362 51.4041 5.46922 51.6829 5.36123 51.9761Z" fill="#AAAAAA"/>
<path d="M6.74993 48.2728C6.62869 48.602 6.44132 48.8539 6.18782 49.0285C5.93348 49.2013 5.62504 49.2928 5.2625 49.3031C4.89912 49.3116 4.49416 49.2336 4.04762 49.0692C3.60157 48.9034 3.24499 48.7002 2.97789 48.4595C2.70994 48.2171 2.53652 47.9481 2.45763 47.6526C2.37922 47.3558 2.40039 47.0435 2.52114 46.7156C2.64189 46.3877 2.82834 46.1362 3.08051 45.9611C3.33268 45.7861 3.63912 45.6938 3.99983 45.6843C4.36104 45.6736 4.76425 45.7501 5.20945 45.9141C5.65732 46.079 6.01657 46.2832 6.28718 46.5266C6.55695 46.7683 6.7317 47.0377 6.81144 47.335C6.89167 47.631 6.87117 47.9436 6.74993 48.2728ZM6.12411 48.0423C6.21835 47.7864 6.16675 47.5381 5.96931 47.2974C5.77102 47.0548 5.42595 46.843 4.93409 46.6619C4.60885 46.5421 4.32308 46.4755 4.07677 46.462C3.83047 46.4485 3.62851 46.4831 3.47089 46.5658C3.31194 46.648 3.2013 46.7738 3.13896 46.9431C3.04521 47.1977 3.09772 47.4456 3.2965 47.6868C3.49394 47.9275 3.83635 48.1384 4.32372 48.3194C4.6498 48.441 4.93642 48.5094 5.18356 48.5248C5.4312 48.5387 5.63449 48.5046 5.79344 48.4224C5.95106 48.3396 6.06128 48.213 6.12411 48.0423Z" fill="#AAAAAA"/>
<path d="M8.13283 44.5174C8.01159 44.8466 7.82422 45.0985 7.57072 45.2731C7.31638 45.4459 7.00794 45.5374 6.6454 45.5477C6.28202 45.5562 5.87706 45.4782 5.43052 45.3137C4.98447 45.148 4.62789 44.9448 4.36079 44.7041C4.09284 44.4617 3.91942 44.1927 3.84052 43.8972C3.76212 43.6004 3.78329 43.2881 3.90404 42.9602C4.02479 42.6323 4.21124 42.3808 4.46341 42.2057C4.71557 42.0306 5.02202 41.9384 5.38273 41.9289C5.74394 41.9181 6.14715 41.9947 6.59235 42.1586C7.04022 42.3236 7.39947 42.5278 7.67008 42.7712C7.93985 43.0128 8.1146 43.2823 8.19434 43.5796C8.27457 43.8755 8.25407 44.1881 8.13283 44.5174ZM7.50701 44.2869C7.60125 44.031 7.54965 43.7827 7.3522 43.5419C7.15392 43.2994 6.80885 43.0876 6.31699 42.9064C5.99175 42.7867 5.70597 42.72 5.45967 42.7065C5.21337 42.693 5.01141 42.7276 4.85379 42.8104C4.69484 42.8926 4.5842 43.0184 4.52186 43.1877C4.42811 43.4423 4.48062 43.6902 4.6794 43.9314C4.87684 44.1721 5.21925 44.383 5.70662 44.564C6.0327 44.6855 6.31932 44.754 6.56646 44.7693C6.8141 44.7833 7.01739 44.7492 7.17634 44.667C7.33396 44.5842 7.44418 44.4575 7.50701 44.2869Z" fill="#AAAAAA"/>
<path d="M21.3599 20.6211L20.9829 20.1181L20.7099 16.6668L21.1293 16.3524L21.6661 17.0685L21.4103 17.2602L21.5975 19.5882L21.618 19.6155L23.6861 18.0654L24.0758 18.5854L21.3599 20.6211ZM23.5112 20.0205L22.9106 19.2191L22.7487 18.989L20.9009 16.5236L21.4976 16.0764L24.1147 19.5681L23.5112 20.0205Z" fill="#AAAAAA"/>
<path d="M26.4466 17.9241C26.1659 18.1345 25.8717 18.2441 25.564 18.2528C25.2566 18.2595 24.948 18.1687 24.6381 17.9802C24.3285 17.7898 24.031 17.5042 23.7456 17.1234C23.4613 16.7418 23.2725 16.3774 23.1792 16.0302C23.0861 15.6811 23.0867 15.361 23.1811 15.0701C23.2767 14.7784 23.4643 14.5278 23.7439 14.3182C24.0235 14.1086 24.3167 13.9989 24.6235 13.989C24.9303 13.9792 25.2377 14.0683 25.5456 14.2565C25.8546 14.4438 26.1514 14.7273 26.436 15.1069C26.7222 15.4888 26.9127 15.8555 27.0075 16.207C27.1026 16.5564 27.1028 16.8776 27.0081 17.1704C26.9145 17.4625 26.7274 17.7137 26.4466 17.9241ZM26.0466 17.3905C26.2649 17.2269 26.3566 16.9904 26.3217 16.681C26.2871 16.3697 26.1127 16.0043 25.7983 15.5849C25.5905 15.3075 25.3868 15.0962 25.1874 14.951C24.988 14.8058 24.7997 14.725 24.6224 14.7088C24.4443 14.6914 24.2831 14.7368 24.1387 14.845C23.9216 15.0077 23.831 15.2443 23.8667 15.5549C23.9015 15.8643 24.0743 16.2274 24.3849 16.6442C24.5925 16.9236 24.7959 17.1368 24.995 17.284C25.1952 17.4304 25.3844 17.5123 25.5625 17.5297C25.7398 17.5459 25.9012 17.4995 26.0466 17.3905Z" fill="#AAAAAA"/>
<path d="M29.6489 15.5239C29.3682 15.7343 29.074 15.8439 28.7663 15.8526C28.4589 15.8593 28.1503 15.7685 27.8404 15.58C27.5308 15.3896 27.2333 15.104 26.9479 14.7232C26.6636 14.3416 26.4748 13.9772 26.3814 13.63C26.2884 13.2808 26.289 12.9608 26.3834 12.6699C26.479 12.3782 26.6666 12.1276 26.9462 11.918C27.2258 11.7084 27.519 11.5987 27.8258 11.5888C28.1326 11.579 28.44 11.6681 28.7479 11.8563C29.0569 12.0436 29.3537 12.3271 29.6383 12.7067C29.9245 13.0886 30.115 13.4553 30.2098 13.8067C30.3049 14.1562 30.305 14.4774 30.2104 14.7702C30.1168 15.0623 29.9297 15.3135 29.6489 15.5239ZM29.2489 14.9903C29.4672 14.8267 29.5588 14.5902 29.524 14.2808C29.4894 13.9695 29.315 13.6041 29.0006 13.1846C28.7927 12.9073 28.5891 12.696 28.3897 12.5508C28.1903 12.4056 28.002 12.3248 27.8247 12.3086C27.6466 12.2912 27.4854 12.3366 27.341 12.4448C27.1239 12.6075 27.0332 12.8441 27.0689 13.1547C27.1038 13.464 27.2766 13.8272 27.5872 14.244C27.7948 14.5233 27.9982 14.7366 28.1973 14.8838C28.3975 15.0302 28.5867 15.1121 28.7648 15.1295C28.9421 15.1457 29.1034 15.0993 29.2489 14.9903Z" fill="#AAAAAA"/>
<path d="M57.821 5.44004C57.5371 5.45093 57.281 5.40745 57.0526 5.30959C56.8242 5.21032 56.6404 5.06954 56.5012 4.88724C56.3634 4.70489 56.2857 4.49322 56.2679 4.25225L57.0344 4.22285C57.0554 4.40115 57.1384 4.54438 57.2833 4.65254C57.4281 4.75928 57.5992 4.80887 57.7965 4.8013C57.9512 4.79537 58.0875 4.7546 58.2054 4.679C58.3234 4.6034 58.4147 4.50111 58.4794 4.37211C58.5441 4.24311 58.5726 4.09774 58.565 3.93598C58.5601 3.77127 58.5197 3.62641 58.4438 3.50138C58.368 3.37636 58.2669 3.28002 58.1406 3.21237C58.0143 3.1433 57.871 3.11184 57.7106 3.11799C57.5799 3.12158 57.4524 3.15064 57.328 3.20516C57.2036 3.25969 57.106 3.32882 57.0353 3.41256L56.3175 3.32282L56.4591 1.06573L58.9885 0.9687L59.0138 1.62873L57.1381 1.70068L57.0568 2.86161L57.0823 2.86063C57.1596 2.76243 57.2708 2.67927 57.4161 2.61115C57.5612 2.54161 57.7218 2.50347 57.8978 2.49672C58.1618 2.48659 58.3999 2.54001 58.6119 2.65696C58.8239 2.7725 58.9936 2.93657 59.1212 3.14917C59.2487 3.36176 59.3179 3.60787 59.3286 3.8875C59.3397 4.17564 59.2828 4.43511 59.158 4.66591C59.0346 4.89524 58.8576 5.07901 58.6269 5.21722C58.3976 5.35395 58.129 5.42822 57.821 5.44004Z" fill="#AAAAAA"/>
<path d="M61.7118 5.31424C61.3612 5.32769 61.0568 5.25052 60.7988 5.08273C60.5421 4.91346 60.3399 4.66322 60.1922 4.33199C60.0458 3.99929 59.9635 3.59519 59.9452 3.11969C59.9284 2.64413 59.9803 2.23701 60.1009 1.89833C60.2229 1.55818 60.4055 1.29531 60.6485 1.10972C60.893 0.92407 61.1898 0.82455 61.539 0.811155C61.8882 0.797761 62.1918 0.874248 62.4498 1.04062C62.7077 1.20699 62.9099 1.4551 63.0562 1.78496C63.2038 2.11477 63.2868 2.51672 63.305 2.9908C63.3233 3.46772 63.2715 3.87768 63.1496 4.22067C63.0291 4.56219 62.8466 4.82648 62.6022 5.01355C62.3592 5.20056 62.0624 5.30079 61.7118 5.31424ZM61.6862 4.64782C61.9587 4.63737 62.1686 4.49498 62.3159 4.22067C62.4645 3.94488 62.5288 3.54511 62.5087 3.02135C62.4954 2.67501 62.448 2.38542 62.3666 2.15258C62.2852 1.91973 62.1762 1.74622 62.0396 1.63206C61.903 1.51647 61.7445 1.46214 61.5643 1.46905C61.2931 1.47945 61.084 1.62252 60.9368 1.89825C60.7895 2.17256 60.7251 2.5695 60.7436 3.08906C60.7556 3.43687 60.8016 3.72793 60.8816 3.96225C60.9631 4.19652 61.0722 4.37144 61.2088 4.48703C61.3454 4.60119 61.5045 4.65479 61.6862 4.64782Z" fill="#AAAAAA"/>
<path d="M65.7108 5.16083C65.3602 5.17428 65.0559 5.09711 64.7978 4.92932C64.5411 4.76006 64.3389 4.50981 64.1912 4.17858C64.0448 3.84588 63.9625 3.44178 63.9442 2.96628C63.9274 2.49072 63.9793 2.0836 64.1 1.74492C64.2219 1.40477 64.4045 1.1419 64.6475 0.956307C64.892 0.770662 65.1888 0.671142 65.538 0.657747C65.8872 0.644352 66.1908 0.720839 66.4488 0.887209C66.7068 1.05358 66.9089 1.30169 67.0552 1.63156C67.2029 1.96136 67.2858 2.36331 67.304 2.83739C67.3223 3.31431 67.2705 3.72427 67.1486 4.06726C67.0281 4.40878 66.8456 4.67307 66.6012 4.86014C66.3582 5.04715 66.0614 5.14738 65.7108 5.16083ZM65.6852 4.49441C65.9577 4.48396 66.1676 4.34158 66.3149 4.06726C66.4635 3.79148 66.5278 3.3917 66.5077 2.86794C66.4944 2.5216 66.4471 2.23201 66.3656 1.99917C66.2842 1.76632 66.1752 1.59282 66.0386 1.47865C65.902 1.36306 65.7435 1.30873 65.5633 1.31564C65.2922 1.32604 65.083 1.46911 64.9358 1.74484C64.7885 2.01915 64.7242 2.41609 64.7427 2.93565C64.7546 3.28346 64.8006 3.57452 64.8806 3.80884C64.9621 4.04311 65.0712 4.21803 65.2078 4.33362C65.3444 4.44779 65.5035 4.50138 65.6852 4.49441Z" fill="#AAAAAA"/>
<path d="M97.1539 14.5005C96.987 14.375 96.8449 14.2245 96.7274 14.049C96.6108 13.8724 96.5368 13.6716 96.5055 13.4468C96.475 13.2208 96.5024 12.9715 96.5879 12.6989C96.6741 12.4251 96.8371 12.1278 97.0768 11.8068C97.2993 11.5067 97.5296 11.2628 97.7678 11.0751C98.006 10.8875 98.245 10.757 98.485 10.6838C98.7258 10.6095 98.9623 10.5921 99.1946 10.6317C99.4281 10.6722 99.6498 10.7703 99.8598 10.9259C100.08 11.0892 100.243 11.2772 100.349 11.49C100.456 11.7036 100.506 11.9247 100.499 12.1531C100.493 12.3804 100.433 12.5975 100.318 12.8044L99.6937 12.3412C99.7616 12.1829 99.7755 12.027 99.7355 11.8735C99.6974 11.7197 99.6031 11.587 99.4524 11.4754C99.2094 11.2952 98.944 11.262 98.6563 11.3758C98.3697 11.4904 98.0892 11.7316 97.8148 12.0993L97.8388 12.1171C97.9691 12.0581 98.1055 12.0257 98.2478 12.0198C98.3901 12.0139 98.5315 12.033 98.6721 12.0771C98.8147 12.1209 98.9487 12.1894 99.0742 12.2824C99.2796 12.4347 99.4275 12.6204 99.5179 12.8395C99.6095 13.0595 99.6393 13.2911 99.6074 13.5345C99.5764 13.7767 99.4782 14.0081 99.313 14.2286C99.1432 14.4599 98.9372 14.6281 98.6949 14.7331C98.4534 14.837 98.199 14.8713 97.9318 14.8358C97.6645 14.8003 97.4053 14.6886 97.1539 14.5005ZM97.5312 13.9845C97.6556 14.0767 97.7892 14.1289 97.9322 14.1412C98.0752 14.1535 98.2133 14.1294 98.3465 14.069C98.4796 14.0086 98.593 13.9141 98.6866 13.7854C98.7808 13.6608 98.8376 13.5269 98.857 13.3839C98.8775 13.2418 98.8613 13.1051 98.8083 12.9738C98.7553 12.8426 98.6666 12.7309 98.5422 12.6386C98.4498 12.5701 98.3506 12.5239 98.2445 12.5001C98.1384 12.4762 98.0324 12.4737 97.9265 12.4925C97.8215 12.5101 97.7214 12.5473 97.6263 12.6041C97.5331 12.6606 97.4517 12.7346 97.382 12.8262C97.2927 12.9491 97.2379 13.0827 97.2176 13.2268C97.1974 13.3709 97.2135 13.5102 97.266 13.6446C97.3184 13.779 97.4068 13.8922 97.5312 13.9845Z" fill="#AAAAAA"/>
<path d="M100.277 16.8453C99.9955 16.6364 99.8064 16.3857 99.7102 16.0933C99.616 15.8007 99.6149 15.4789 99.707 15.1281C99.8011 14.777 99.9898 14.4104 100.273 14.0281C100.558 13.6467 100.853 13.3617 101.159 13.173C101.467 12.9841 101.774 12.8934 102.08 12.9008C102.387 12.909 102.68 13.0172 102.961 13.2253C103.242 13.4334 103.431 13.6831 103.528 13.9743C103.625 14.2655 103.627 14.5856 103.535 14.9344C103.444 15.284 103.257 15.6494 102.974 16.0305C102.69 16.4139 102.393 16.7012 102.083 16.8924C101.775 17.0833 101.468 17.1752 101.16 17.1681C100.853 17.1619 100.559 17.0543 100.277 16.8453ZM100.674 16.3096C100.894 16.472 101.146 16.4923 101.433 16.3706C101.721 16.2485 102.022 15.977 102.334 15.5559C102.54 15.2775 102.685 15.022 102.767 14.7895C102.849 14.5569 102.873 14.3534 102.838 14.1788C102.804 14.0032 102.714 13.8616 102.569 13.7542C102.351 13.5926 102.098 13.5733 101.811 13.6962C101.525 13.8179 101.226 14.0872 100.915 14.504C100.707 14.7827 100.56 15.0385 100.476 15.2713C100.393 15.505 100.369 15.7097 100.403 15.8854C100.438 16.0599 100.528 16.2013 100.674 16.3096Z" fill="#AAAAAA"/>
<path d="M103.492 19.2287C103.21 19.0198 103.021 18.7691 102.925 18.4768C102.831 18.1841 102.83 17.8624 102.922 17.5116C103.016 17.1605 103.205 16.7938 103.488 16.4115C103.773 16.0301 104.068 15.7451 104.374 15.5565C104.682 15.3676 104.989 15.2768 105.295 15.2842C105.601 15.2925 105.895 15.4006 106.176 15.6087C106.457 15.8169 106.646 16.0665 106.743 16.3578C106.84 16.649 106.842 16.969 106.75 17.3178C106.658 17.6675 106.471 18.0329 106.189 18.414C105.905 18.7974 105.608 19.0847 105.298 19.2759C104.99 19.4668 104.682 19.5587 104.375 19.5516C104.068 19.5453 103.774 19.4377 103.492 19.2287ZM103.889 18.693C104.108 18.8554 104.361 18.8758 104.648 18.754C104.936 18.632 105.237 18.3604 105.549 17.9394C105.755 17.661 105.9 17.4055 105.982 17.1729C106.064 16.9403 106.088 16.7368 106.053 16.5623C106.018 16.3866 105.929 16.2451 105.784 16.1376C105.566 15.976 105.313 15.9567 105.026 16.0796C104.739 16.2014 104.441 16.4706 104.13 16.8874C103.921 17.1661 103.775 17.4219 103.691 17.6548C103.608 17.8885 103.583 18.0931 103.618 18.2688C103.653 18.4433 103.743 18.5847 103.889 18.693Z" fill="#AAAAAA"/>
<path d="M115.896 41.8481L119.973 42.409L120.001 42.3993L119.301 40.3622L119.926 40.1474L120.892 42.9583L120.253 43.1779L116.163 42.6239L115.896 41.8481Z" fill="#AAAAAA"/>
<path d="M117.404 46.4909C117.29 46.1591 117.276 45.8454 117.363 45.55C117.451 45.2553 117.632 44.9895 117.906 44.7525C118.183 44.5163 118.546 44.3209 118.996 44.1662C119.446 44.0128 119.851 43.945 120.21 43.9628C120.571 43.9814 120.875 44.0803 121.123 44.2595C121.371 44.44 121.552 44.6954 121.666 45.0259C121.78 45.3563 121.794 45.6691 121.709 45.9641C121.624 46.2591 121.445 46.5243 121.171 46.7595C120.898 46.9961 120.537 47.1915 120.089 47.3457C119.637 47.5009 119.23 47.5696 118.866 47.5519C118.505 47.5351 118.199 47.4367 117.949 47.2566C117.7 47.0779 117.518 46.8227 117.404 46.4909ZM118.035 46.2741C118.124 46.532 118.321 46.6919 118.626 46.7537C118.933 46.8164 119.334 46.7626 119.83 46.5922C120.157 46.4795 120.421 46.3506 120.62 46.2054C120.82 46.0602 120.955 45.9058 121.024 45.7421C121.096 45.5779 121.102 45.4105 121.043 45.2399C120.955 44.9833 120.758 44.8244 120.451 44.763C120.146 44.7012 119.748 44.7541 119.255 44.9218C118.926 45.0336 118.66 45.1616 118.459 45.3059C118.258 45.4515 118.122 45.6064 118.051 45.7706C117.981 45.9343 117.976 46.1021 118.035 46.2741Z" fill="#AAAAAA"/>
<path d="M118.705 50.2755C118.591 49.9437 118.577 49.63 118.664 49.3345C118.752 49.0399 118.933 48.7741 119.207 48.537C119.484 48.3009 119.847 48.1054 120.297 47.9507C120.747 47.7974 121.152 47.7296 121.511 47.7473C121.872 47.766 122.176 47.8649 122.424 48.044C122.672 48.2245 122.853 48.48 122.967 48.8105C123.081 49.1409 123.095 49.4537 123.01 49.7487C122.925 50.0437 122.746 50.3088 122.472 50.5441C122.199 50.7807 121.838 50.9761 121.39 51.1303C120.938 51.2855 120.531 51.3542 120.167 51.3365C119.806 51.3197 119.5 51.2212 119.25 51.0412C119.001 50.8625 118.819 50.6072 118.705 50.2755ZM119.336 50.0586C119.425 50.3166 119.622 50.4764 119.927 50.5383C120.234 50.601 120.635 50.5471 121.131 50.3767C121.458 50.2641 121.722 50.1351 121.921 49.99C122.121 49.8448 122.256 49.6904 122.325 49.5267C122.397 49.3625 122.403 49.1951 122.344 49.0245C122.256 48.7679 122.059 48.609 121.752 48.5476C121.447 48.4858 121.049 48.5387 120.556 48.7063C120.227 48.8181 119.961 48.9462 119.76 49.0905C119.559 49.2361 119.423 49.391 119.352 49.5552C119.282 49.7189 119.277 49.8867 119.336 50.0586Z" fill="#AAAAAA"/>
<path d="M120.289 77.0337C120.368 76.7267 120.489 76.4674 120.653 76.2556C120.817 76.0452 121.005 75.8954 121.218 75.8062C121.433 75.7187 121.654 75.7048 121.882 75.7645C122.06 75.8084 122.213 75.8885 122.342 76.0049C122.47 76.1213 122.567 76.2589 122.632 76.4177C122.698 76.5782 122.724 76.7446 122.71 76.9167L122.738 76.9241C122.842 76.7189 122.998 76.571 123.206 76.4804C123.415 76.3915 123.633 76.3769 123.861 76.4366C124.079 76.4907 124.258 76.6008 124.397 76.7668C124.536 76.9329 124.628 77.135 124.671 77.3733C124.716 77.6119 124.703 77.8682 124.633 78.1421C124.564 78.4132 124.453 78.6421 124.3 78.8288C124.147 79.0172 123.97 79.1508 123.769 79.2298C123.566 79.3101 123.356 79.3225 123.139 79.267C122.91 79.2087 122.726 79.0892 122.586 78.9083C122.447 78.7292 122.381 78.5268 122.387 78.3012L122.358 78.2938C122.288 78.4519 122.187 78.5842 122.052 78.6907C121.919 78.7989 121.768 78.8733 121.6 78.9138C121.431 78.9557 121.257 78.954 121.08 78.9087C120.851 78.8504 120.664 78.7308 120.518 78.5499C120.374 78.3694 120.28 78.1476 120.237 77.8845C120.194 77.6228 120.211 77.3392 120.289 77.0337ZM120.88 77.1843C120.839 77.3426 120.831 77.4871 120.855 77.6178C120.88 77.7488 120.934 77.8593 121.017 77.9493C121.099 78.0393 121.205 78.1015 121.334 78.1358C121.469 78.1689 121.597 78.1642 121.718 78.1217C121.84 78.0809 121.946 78.0089 122.035 77.9057C122.124 77.8038 122.188 77.6778 122.226 77.5278C122.265 77.3764 122.269 77.234 122.24 77.1005C122.211 76.967 122.153 76.8525 122.066 76.757C121.98 76.6633 121.87 76.5998 121.735 76.5668C121.605 76.5324 121.483 76.5349 121.368 76.5743C121.253 76.6141 121.154 76.6854 121.069 76.7884C120.984 76.8927 120.921 77.0247 120.88 77.1843ZM122.806 77.6758C122.773 77.8052 122.77 77.9261 122.797 78.0386C122.824 78.1524 122.876 78.2501 122.955 78.3318C123.034 78.4135 123.135 78.4707 123.257 78.5033C123.378 78.5328 123.492 78.531 123.597 78.4977C123.703 78.4648 123.794 78.4045 123.87 78.3166C123.946 78.2291 124.001 78.12 124.034 77.9893C124.069 77.8558 124.073 77.7316 124.048 77.6168C124.024 77.5036 123.973 77.4071 123.896 77.3271C123.819 77.2489 123.72 77.195 123.598 77.1655C123.476 77.1329 123.361 77.1328 123.253 77.1654C123.146 77.1996 123.053 77.2602 122.974 77.3469C122.895 77.4355 122.839 77.5451 122.806 77.6758Z" fill="#AAAAAA"/>
<path d="M119.294 80.8405C119.381 80.5006 119.541 80.2307 119.775 80.031C120.01 79.833 120.308 79.7103 120.667 79.6628C121.028 79.617 121.439 79.6529 121.9 79.7706C122.361 79.8896 122.736 80.0551 123.027 80.267C123.318 80.4806 123.518 80.7303 123.627 81.0161C123.736 81.3033 123.747 81.6161 123.66 81.9547C123.574 82.2933 123.414 82.5626 123.181 82.7627C122.949 82.9628 122.653 83.086 122.295 83.1325C121.937 83.1804 121.528 83.1457 121.069 83.0284C120.606 82.9104 120.228 82.7442 119.934 82.5299C119.64 82.3173 119.439 82.0672 119.329 81.7797C119.219 81.4935 119.207 81.1805 119.294 80.8405ZM119.94 81.0054C119.873 81.2697 119.949 81.5114 120.171 81.7305C120.393 81.9514 120.758 82.1267 121.266 82.2563C121.602 82.3419 121.893 82.3788 122.139 82.367C122.385 82.3551 122.583 82.2999 122.731 82.2014C122.881 82.1032 122.978 81.9667 123.022 81.7919C123.089 81.5291 123.012 81.2879 122.789 81.0684C122.568 80.8492 122.206 80.6747 121.702 80.5448C121.366 80.4573 121.073 80.4187 120.826 80.4289C120.578 80.4404 120.38 80.4953 120.23 80.5934C120.082 80.6919 119.985 80.8293 119.94 81.0054Z" fill="#AAAAAA"/>
<path d="M118.304 84.7182C118.391 84.3783 118.552 84.1084 118.786 83.9087C119.021 83.7107 119.318 83.588 119.678 83.5405C120.039 83.4947 120.449 83.5306 120.91 83.6483C121.371 83.7673 121.747 83.9328 122.037 84.1447C122.329 84.3583 122.529 84.608 122.638 84.8938C122.746 85.181 122.757 85.4938 122.671 85.8324C122.584 86.171 122.425 86.4403 122.192 86.6404C121.959 86.8405 121.664 86.9637 121.306 87.0102C120.948 87.0581 120.539 87.0234 120.079 86.9061C119.617 86.7881 119.238 86.6219 118.944 86.4076C118.651 86.195 118.449 85.9449 118.34 85.6574C118.229 85.3712 118.218 85.0582 118.304 84.7182ZM118.951 84.8831C118.883 85.1474 118.96 85.3891 119.181 85.6082C119.403 85.8291 119.768 86.0044 120.276 86.134C120.612 86.2196 120.903 86.2566 121.15 86.2447C121.396 86.2328 121.593 86.1776 121.742 86.0791C121.891 85.9809 121.988 85.8444 122.033 85.6696C122.1 85.4068 122.022 85.1656 121.8 84.9461C121.579 84.7269 121.216 84.5524 120.713 84.4225C120.376 84.335 120.084 84.2964 119.837 84.3066C119.589 84.3181 119.39 84.373 119.24 84.4711C119.092 84.5696 118.996 84.707 118.951 84.8831Z" fill="#AAAAAA"/>
</svg>
